<?xml version="1.0" encoding="utf-8" standalone="no"?>
<!DOCTYPE svg PUBLIC "-//W3C//DTD SVG 1.1//EN"
  "http://www.w3.org/Graphics/SVG/1.1/DTD/svg11.dtd">
<svg xmlns:xlink="http://www.w3.org/1999/xlink" width="1440pt" height="1008pt" viewBox="0 0 1440 1008" xmlns="http://www.w3.org/2000/svg" version="1.1">
 <metadata>
  <rdf:RDF xmlns:dc="http://purl.org/dc/elements/1.1/" xmlns:cc="http://creativecommons.org/ns#" xmlns:rdf="http://www.w3.org/1999/02/22-rdf-syntax-ns#">
   <cc:Work>
    <dc:type rdf:resource="http://purl.org/dc/dcmitype/StillImage"/>
    <dc:date>2025-08-28T15:44:53.364559</dc:date>
    <dc:format>image/svg+xml</dc:format>
    <dc:creator>
     <cc:Agent>
      <dc:title>Matplotlib v3.10.5, https://matplotlib.org/</dc:title>
     </cc:Agent>
    </dc:creator>
   </cc:Work>
  </rdf:RDF>
 </metadata>
 <defs>
  <style type="text/css">*{stroke-linejoin: round; stroke-linecap: butt}</style>
 </defs>
 <g id="figure_1">
  <g id="patch_1">
   <path d="M 0 1008 
L 1440 1008 
L 1440 0 
L 0 0 
z
" style="fill: #ffffff"/>
  </g>
  <g id="axes_1">
   <g id="patch_2">
    <path d="M 180 897.12 
L 1296 897.12 
L 1296 120.96 
L 180 120.96 
z
" style="fill: #ffffff"/>
   </g>
   <g id="patch_3">
    <path d="M 620.063947 513.610759 
Q 701.417268 564.164608 781.820971 614.128353 
" clip-path="url(#p5aee9958a4)" style="fill: none; stroke: #000000; stroke-linecap: round"/>
    <path d="M 777.137267 606.50845 
L 781.820971 614.128353 
L 772.914826 613.303374 
z
" clip-path="url(#p5aee9958a4)" style="stroke: #000000; stroke-linecap: round"/>
   </g>
   <g id="patch_4">
    <path d="M 429.612381 398.79 
Q 516.831406 398.79 602.932397 398.79 
" clip-path="url(#p5aee9958a4)" style="fill: none; stroke: #000000; stroke-linecap: round"/>
    <path d="M 594.932397 394.79 
L 602.932397 398.79 
L 594.932397 402.79 
z
" clip-path="url(#p5aee9958a4)" style="stroke: #000000; stroke-linecap: round"/>
   </g>
   <g id="patch_5">
    <path d="M 429.612381 288.54 
Q 516.831406 288.54 602.932397 288.54 
" clip-path="url(#p5aee9958a4)" style="fill: none; stroke: #000000; stroke-linecap: round"/>
    <path d="M 594.932397 284.54 
L 602.932397 288.54 
L 594.932397 292.54 
z
" clip-path="url(#p5aee9958a4)" style="stroke: #000000; stroke-linecap: round"/>
   </g>
   <g id="patch_6">
    <path d="M 621.368815 729.54 
Q 701.418113 729.54 780.349376 729.54 
" clip-path="url(#p5aee9958a4)" style="fill: none; stroke: #000000; stroke-linecap: round"/>
    <path d="M 772.349376 725.54 
L 780.349376 729.54 
L 772.349376 733.54 
z
" clip-path="url(#p5aee9958a4)" style="stroke: #000000; stroke-linecap: round"/>
   </g>
   <g id="patch_7">
    <path d="M 429.612381 619.29 
Q 516.831406 619.29 602.932397 619.29 
" clip-path="url(#p5aee9958a4)" style="fill: none; stroke: #000000; stroke-linecap: round"/>
    <path d="M 594.932397 615.29 
L 602.932397 619.29 
L 594.932397 623.29 
z
" clip-path="url(#p5aee9958a4)" style="stroke: #000000; stroke-linecap: round"/>
   </g>
   <g id="patch_8">
    <path d="M 621.368815 619.29 
Q 701.418113 619.29 780.349376 619.29 
" clip-path="url(#p5aee9958a4)" style="fill: none; stroke: #000000; stroke-linecap: round"/>
    <path d="M 772.349376 615.29 
L 780.349376 619.29 
L 772.349376 623.29 
z
" clip-path="url(#p5aee9958a4)" style="stroke: #000000; stroke-linecap: round"/>
   </g>
   <g id="patch_9">
    <path d="M 797.008526 624.543765 
Q 862.32654 674.413612 926.755914 723.60499 
" clip-path="url(#p5aee9958a4)" style="fill: none; stroke: #000000; stroke-linecap: round"/>
    <path d="M 922.824699 715.570966 
L 926.755914 723.60499 
L 917.969966 721.929548 
z
" clip-path="url(#p5aee9958a4)" style="stroke: #000000; stroke-linecap: round"/>
   </g>
   <g id="patch_10">
    <path d="M 798.786671 619.29 
Q 862.327016 619.29 924.749326 619.29 
" clip-path="url(#p5aee9958a4)" style="fill: none; stroke: #000000; stroke-linecap: round"/>
    <path d="M 916.749326 615.29 
L 924.749326 619.29 
L 916.749326 623.29 
z
" clip-path="url(#p5aee9958a4)" style="stroke: #000000; stroke-linecap: round"/>
   </g>
   <g id="patch_11">
    <path d="M 798.786671 729.54 
Q 862.327016 729.54 924.749326 729.54 
" clip-path="url(#p5aee9958a4)" style="fill: none; stroke: #000000; stroke-linecap: round"/>
    <path d="M 916.749326 725.54 
L 924.749326 729.54 
L 916.749326 733.54 
z
" clip-path="url(#p5aee9958a4)" style="stroke: #000000; stroke-linecap: round"/>
   </g>
   <g id="patch_12">
    <path d="M 943.190766 729.54 
Q 994.788042 729.54 1045.267284 729.54 
" clip-path="url(#p5aee9958a4)" style="fill: none; stroke: #000000; stroke-linecap: round"/>
    <path d="M 1037.267284 725.54 
L 1045.267284 729.54 
L 1037.267284 733.54 
z
" clip-path="url(#p5aee9958a4)" style="stroke: #000000; stroke-linecap: round"/>
   </g>
   <g id="matplotlib.axis_1">
    <g id="xtick_1"/>
    <g id="xtick_2"/>
    <g id="xtick_3"/>
    <g id="xtick_4"/>
    <g id="xtick_5"/>
    <g id="xtick_6"/>
   </g>
   <g id="matplotlib.axis_2">
    <g id="ytick_1"/>
    <g id="ytick_2"/>
    <g id="ytick_3"/>
    <g id="ytick_4"/>
    <g id="ytick_5"/>
    <g id="ytick_6"/>
    <g id="ytick_7"/>
    <g id="ytick_8"/>
   </g>
   <g id="PathCollection_1">
    <defs>
     <path id="mc812235d4f" d="M 0 8.660254 
C 2.296726 8.660254 4.499694 7.747755 6.123724 6.123724 
C 7.747755 4.499694 8.660254 2.296726 8.660254 0 
C 8.660254 -2.296726 7.747755 -4.499694 6.123724 -6.123724 
C 4.499694 -7.747755 2.296726 -8.660254 0 -8.660254 
C -2.296726 -8.660254 -4.499694 -7.747755 -6.123724 -6.123724 
C -7.747755 -4.499694 -8.660254 -2.296726 -8.660254 0 
C -8.660254 2.296726 -7.747755 4.499694 -6.123724 6.123724 
C -4.499694 7.747755 -2.296726 8.660254 0 8.660254 
z
" style="stroke: #2ca02c"/>
    </defs>
    <g clip-path="url(#p5aee9958a4)">
     <use xlink:href="#mc812235d4f" x="612.708495" y="509.04" style="fill: #2ca02c; stroke: #2ca02c"/>
     <use xlink:href="#mc812235d4f" x="420.954545" y="398.79" style="fill: #2ca02c; stroke: #2ca02c"/>
     <use xlink:href="#mc812235d4f" x="420.954545" y="288.54" style="fill: #2ca02c; stroke: #2ca02c"/>
     <use xlink:href="#mc812235d4f" x="612.708495" y="729.54" style="fill: #2ca02c; stroke: #2ca02c"/>
     <use xlink:href="#mc812235d4f" x="420.954545" y="619.29" style="fill: #2ca02c; stroke: #2ca02c"/>
    </g>
   </g>
   <g id="PathCollection_2">
    <defs>
     <path id="mbd5ac39ab4" d="M 0 8.660254 
C 2.296726 8.660254 4.499694 7.747755 6.123724 6.123724 
C 7.747755 4.499694 8.660254 2.296726 8.660254 0 
C 8.660254 -2.296726 7.747755 -4.499694 6.123724 -6.123724 
C 4.499694 -7.747755 2.296726 -8.660254 0 -8.660254 
C -2.296726 -8.660254 -4.499694 -7.747755 -6.123724 -6.123724 
C -7.747755 -4.499694 -8.660254 -2.296726 -8.660254 0 
C -8.660254 2.296726 -7.747755 4.499694 -6.123724 6.123724 
C -4.499694 7.747755 -2.296726 8.660254 0 8.660254 
z
" style="stroke: #1f77b4"/>
    </defs>
    <g clip-path="url(#p5aee9958a4)">
     <use xlink:href="#mbd5ac39ab4" x="612.708495" y="619.29" style="fill: #1f77b4; stroke: #1f77b4"/>
     <use xlink:href="#mbd5ac39ab4" x="790.127304" y="619.29" style="fill: #1f77b4; stroke: #1f77b4"/>
     <use xlink:href="#mbd5ac39ab4" x="790.127304" y="729.54" style="fill: #1f77b4; stroke: #1f77b4"/>
     <use xlink:href="#mbd5ac39ab4" x="934.529411" y="729.54" style="fill: #1f77b4; stroke: #1f77b4"/>
    </g>
   </g>
   <g id="PathCollection_3">
    <defs>
     <path id="m95c5d7e4b7" d="M 0 8.660254 
C 2.296726 8.660254 4.499694 7.747755 6.123724 6.123724 
C 7.747755 4.499694 8.660254 2.296726 8.660254 0 
C 8.660254 -2.296726 7.747755 -4.499694 6.123724 -6.123724 
C 4.499694 -7.747755 2.296726 -8.660254 0 -8.660254 
C -2.296726 -8.660254 -4.499694 -7.747755 -6.123724 -6.123724 
C -7.747755 -4.499694 -8.660254 -2.296726 -8.660254 0 
C -8.660254 2.296726 -7.747755 4.499694 -6.123724 6.123724 
C -4.499694 7.747755 -2.296726 8.660254 0 8.660254 
z
" style="stroke: #d62728"/>
    </defs>
    <g clip-path="url(#p5aee9958a4)">
     <use xlink:href="#m95c5d7e4b7" x="1055.045455" y="729.54" style="fill: #d62728; stroke: #d62728"/>
     <use xlink:href="#m95c5d7e4b7" x="612.708495" y="398.79" style="fill: #d62728; stroke: #d62728"/>
     <use xlink:href="#m95c5d7e4b7" x="612.708495" y="288.54" style="fill: #d62728; stroke: #d62728"/>
     <use xlink:href="#m95c5d7e4b7" x="934.529411" y="619.29" style="fill: #d62728; stroke: #d62728"/>
    </g>
   </g>
   <g id="patch_13">
    <path d="M 180 897.12 
L 180 120.96 
" style="fill: none; stroke: #000000; stroke-width: 0.8; stroke-linejoin: miter; stroke-linecap: square"/>
   </g>
   <g id="patch_14">
    <path d="M 1296 897.12 
L 1296 120.96 
" style="fill: none; stroke: #000000; stroke-width: 0.8; stroke-linejoin: miter; stroke-linecap: square"/>
   </g>
   <g id="patch_15">
    <path d="M 180 897.12 
L 1296 897.12 
" style="fill: none; stroke: #000000; stroke-width: 0.8; stroke-linejoin: miter; stroke-linecap: square"/>
   </g>
   <g id="patch_16">
    <path d="M 180 120.96 
L 1296 120.96 
" style="fill: none; stroke: #000000; stroke-width: 0.8; stroke-linejoin: miter; stroke-linecap: square"/>
   </g>
   <g id="text_1">
    <g id="patch_17">
     <path d="M 526.576982 518.446875 
L 603.952607 518.446875 
Q 607.552607 518.446875 607.552607 514.846875 
L 607.552607 503.233125 
Q 607.552607 499.633125 603.952607 499.633125 
L 526.576982 499.633125 
Q 522.976982 499.633125 522.976982 503.233125 
L 522.976982 514.846875 
Q 522.976982 518.446875 526.576982 518.446875 
z
" clip-path="url(#p5aee9958a4)" style="fill: #2ca02c; stroke: #000000; stroke-linejoin: miter"/>
    </g>
    <g clip-path="url(#p5aee9958a4)">
     <!-- assessments -->
     <g style="fill: #f5f5f5" transform="translate(526.576982 512.35125) scale(0.12 -0.12)">
      <defs>
       <path id="DejaVuSans-61" d="M 2194 1759 
Q 1497 1759 1228 1600 
Q 959 1441 959 1056 
Q 959 750 1161 570 
Q 1363 391 1709 391 
Q 2188 391 2477 730 
Q 2766 1069 2766 1631 
L 2766 1759 
L 2194 1759 
z
M 3341 1997 
L 3341 0 
L 2766 0 
L 2766 531 
Q 2569 213 2275 61 
Q 1981 -91 1556 -91 
Q 1019 -91 701 211 
Q 384 513 384 1019 
Q 384 1609 779 1909 
Q 1175 2209 1959 2209 
L 2766 2209 
L 2766 2266 
Q 2766 2663 2505 2880 
Q 2244 3097 1772 3097 
Q 1472 3097 1187 3025 
Q 903 2953 641 2809 
L 641 3341 
Q 956 3463 1253 3523 
Q 1550 3584 1831 3584 
Q 2591 3584 2966 3190 
Q 3341 2797 3341 1997 
z
" transform="scale(0.015625)"/>
       <path id="DejaVuSans-73" d="M 2834 3397 
L 2834 2853 
Q 2591 2978 2328 3040 
Q 2066 3103 1784 3103 
Q 1356 3103 1142 2972 
Q 928 2841 928 2578 
Q 928 2378 1081 2264 
Q 1234 2150 1697 2047 
L 1894 2003 
Q 2506 1872 2764 1633 
Q 3022 1394 3022 966 
Q 3022 478 2636 193 
Q 2250 -91 1575 -91 
Q 1294 -91 989 -36 
Q 684 19 347 128 
L 347 722 
Q 666 556 975 473 
Q 1284 391 1588 391 
Q 1994 391 2212 530 
Q 2431 669 2431 922 
Q 2431 1156 2273 1281 
Q 2116 1406 1581 1522 
L 1381 1569 
Q 847 1681 609 1914 
Q 372 2147 372 2553 
Q 372 3047 722 3315 
Q 1072 3584 1716 3584 
Q 2034 3584 2315 3537 
Q 2597 3491 2834 3397 
z
" transform="scale(0.015625)"/>
       <path id="DejaVuSans-65" d="M 3597 1894 
L 3597 1613 
L 953 1613 
Q 991 1019 1311 708 
Q 1631 397 2203 397 
Q 2534 397 2845 478 
Q 3156 559 3463 722 
L 3463 178 
Q 3153 47 2828 -22 
Q 2503 -91 2169 -91 
Q 1331 -91 842 396 
Q 353 884 353 1716 
Q 353 2575 817 3079 
Q 1281 3584 2069 3584 
Q 2775 3584 3186 3129 
Q 3597 2675 3597 1894 
z
M 3022 2063 
Q 3016 2534 2758 2815 
Q 2500 3097 2075 3097 
Q 1594 3097 1305 2825 
Q 1016 2553 972 2059 
L 3022 2063 
z
" transform="scale(0.015625)"/>
       <path id="DejaVuSans-6d" d="M 3328 2828 
Q 3544 3216 3844 3400 
Q 4144 3584 4550 3584 
Q 5097 3584 5394 3201 
Q 5691 2819 5691 2113 
L 5691 0 
L 5113 0 
L 5113 2094 
Q 5113 2597 4934 2840 
Q 4756 3084 4391 3084 
Q 3944 3084 3684 2787 
Q 3425 2491 3425 1978 
L 3425 0 
L 2847 0 
L 2847 2094 
Q 2847 2600 2669 2842 
Q 2491 3084 2119 3084 
Q 1678 3084 1418 2786 
Q 1159 2488 1159 1978 
L 1159 0 
L 581 0 
L 581 3500 
L 1159 3500 
L 1159 2956 
Q 1356 3278 1631 3431 
Q 1906 3584 2284 3584 
Q 2666 3584 2933 3390 
Q 3200 3197 3328 2828 
z
" transform="scale(0.015625)"/>
       <path id="DejaVuSans-6e" d="M 3513 2113 
L 3513 0 
L 2938 0 
L 2938 2094 
Q 2938 2591 2744 2837 
Q 2550 3084 2163 3084 
Q 1697 3084 1428 2787 
Q 1159 2491 1159 1978 
L 1159 0 
L 581 0 
L 581 3500 
L 1159 3500 
L 1159 2956 
Q 1366 3272 1645 3428 
Q 1925 3584 2291 3584 
Q 2894 3584 3203 3211 
Q 3513 2838 3513 2113 
z
" transform="scale(0.015625)"/>
       <path id="DejaVuSans-74" d="M 1172 4494 
L 1172 3500 
L 2356 3500 
L 2356 3053 
L 1172 3053 
L 1172 1153 
Q 1172 725 1289 603 
Q 1406 481 1766 481 
L 2356 481 
L 2356 0 
L 1766 0 
Q 1100 0 847 248 
Q 594 497 594 1153 
L 594 3053 
L 172 3053 
L 172 3500 
L 594 3500 
L 594 4494 
L 1172 4494 
z
" transform="scale(0.015625)"/>
      </defs>
      <use xlink:href="#DejaVuSans-61"/>
      <use xlink:href="#DejaVuSans-73" transform="translate(61.279297 0)"/>
      <use xlink:href="#DejaVuSans-73" transform="translate(113.378906 0)"/>
      <use xlink:href="#DejaVuSans-65" transform="translate(165.478516 0)"/>
      <use xlink:href="#DejaVuSans-73" transform="translate(227.001953 0)"/>
      <use xlink:href="#DejaVuSans-73" transform="translate(279.101562 0)"/>
      <use xlink:href="#DejaVuSans-6d" transform="translate(331.201172 0)"/>
      <use xlink:href="#DejaVuSans-65" transform="translate(428.613281 0)"/>
      <use xlink:href="#DejaVuSans-6e" transform="translate(490.136719 0)"/>
      <use xlink:href="#DejaVuSans-74" transform="translate(553.515625 0)"/>
      <use xlink:href="#DejaVuSans-73" transform="translate(592.724609 0)"/>
     </g>
    </g>
   </g>
   <g id="text_2">
    <g id="patch_18">
     <path d="M 169.140532 408.196875 
L 412.198657 408.196875 
Q 415.798657 408.196875 415.798657 404.596875 
L 415.798657 392.983125 
Q 415.798657 389.383125 412.198657 389.383125 
L 169.140532 389.383125 
Q 165.540532 389.383125 165.540532 392.983125 
L 165.540532 404.596875 
Q 165.540532 408.196875 169.140532 408.196875 
z
" clip-path="url(#p5aee9958a4)" style="fill: #2ca02c; stroke: #000000; stroke-linejoin: miter"/>
    </g>
    <g clip-path="url(#p5aee9958a4)">
     <!-- assessmentReportingMethodDescriptors -->
     <g style="fill: #f5f5f5" transform="translate(169.140532 402.10125) scale(0.12 -0.12)">
      <defs>
       <path id="DejaVuSans-52" d="M 2841 2188 
Q 3044 2119 3236 1894 
Q 3428 1669 3622 1275 
L 4263 0 
L 3584 0 
L 2988 1197 
Q 2756 1666 2539 1819 
Q 2322 1972 1947 1972 
L 1259 1972 
L 1259 0 
L 628 0 
L 628 4666 
L 2053 4666 
Q 2853 4666 3247 4331 
Q 3641 3997 3641 3322 
Q 3641 2881 3436 2590 
Q 3231 2300 2841 2188 
z
M 1259 4147 
L 1259 2491 
L 2053 2491 
Q 2509 2491 2742 2702 
Q 2975 2913 2975 3322 
Q 2975 3731 2742 3939 
Q 2509 4147 2053 4147 
L 1259 4147 
z
" transform="scale(0.015625)"/>
       <path id="DejaVuSans-70" d="M 1159 525 
L 1159 -1331 
L 581 -1331 
L 581 3500 
L 1159 3500 
L 1159 2969 
Q 1341 3281 1617 3432 
Q 1894 3584 2278 3584 
Q 2916 3584 3314 3078 
Q 3713 2572 3713 1747 
Q 3713 922 3314 415 
Q 2916 -91 2278 -91 
Q 1894 -91 1617 61 
Q 1341 213 1159 525 
z
M 3116 1747 
Q 3116 2381 2855 2742 
Q 2594 3103 2138 3103 
Q 1681 3103 1420 2742 
Q 1159 2381 1159 1747 
Q 1159 1113 1420 752 
Q 1681 391 2138 391 
Q 2594 391 2855 752 
Q 3116 1113 3116 1747 
z
" transform="scale(0.015625)"/>
       <path id="DejaVuSans-6f" d="M 1959 3097 
Q 1497 3097 1228 2736 
Q 959 2375 959 1747 
Q 959 1119 1226 758 
Q 1494 397 1959 397 
Q 2419 397 2687 759 
Q 2956 1122 2956 1747 
Q 2956 2369 2687 2733 
Q 2419 3097 1959 3097 
z
M 1959 3584 
Q 2709 3584 3137 3096 
Q 3566 2609 3566 1747 
Q 3566 888 3137 398 
Q 2709 -91 1959 -91 
Q 1206 -91 779 398 
Q 353 888 353 1747 
Q 353 2609 779 3096 
Q 1206 3584 1959 3584 
z
" transform="scale(0.015625)"/>
       <path id="DejaVuSans-72" d="M 2631 2963 
Q 2534 3019 2420 3045 
Q 2306 3072 2169 3072 
Q 1681 3072 1420 2755 
Q 1159 2438 1159 1844 
L 1159 0 
L 581 0 
L 581 3500 
L 1159 3500 
L 1159 2956 
Q 1341 3275 1631 3429 
Q 1922 3584 2338 3584 
Q 2397 3584 2469 3576 
Q 2541 3569 2628 3553 
L 2631 2963 
z
" transform="scale(0.015625)"/>
       <path id="DejaVuSans-69" d="M 603 3500 
L 1178 3500 
L 1178 0 
L 603 0 
L 603 3500 
z
M 603 4863 
L 1178 4863 
L 1178 4134 
L 603 4134 
L 603 4863 
z
" transform="scale(0.015625)"/>
       <path id="DejaVuSans-67" d="M 2906 1791 
Q 2906 2416 2648 2759 
Q 2391 3103 1925 3103 
Q 1463 3103 1205 2759 
Q 947 2416 947 1791 
Q 947 1169 1205 825 
Q 1463 481 1925 481 
Q 2391 481 2648 825 
Q 2906 1169 2906 1791 
z
M 3481 434 
Q 3481 -459 3084 -895 
Q 2688 -1331 1869 -1331 
Q 1566 -1331 1297 -1286 
Q 1028 -1241 775 -1147 
L 775 -588 
Q 1028 -725 1275 -790 
Q 1522 -856 1778 -856 
Q 2344 -856 2625 -561 
Q 2906 -266 2906 331 
L 2906 616 
Q 2728 306 2450 153 
Q 2172 0 1784 0 
Q 1141 0 747 490 
Q 353 981 353 1791 
Q 353 2603 747 3093 
Q 1141 3584 1784 3584 
Q 2172 3584 2450 3431 
Q 2728 3278 2906 2969 
L 2906 3500 
L 3481 3500 
L 3481 434 
z
" transform="scale(0.015625)"/>
       <path id="DejaVuSans-4d" d="M 628 4666 
L 1569 4666 
L 2759 1491 
L 3956 4666 
L 4897 4666 
L 4897 0 
L 4281 0 
L 4281 4097 
L 3078 897 
L 2444 897 
L 1241 4097 
L 1241 0 
L 628 0 
L 628 4666 
z
" transform="scale(0.015625)"/>
       <path id="DejaVuSans-68" d="M 3513 2113 
L 3513 0 
L 2938 0 
L 2938 2094 
Q 2938 2591 2744 2837 
Q 2550 3084 2163 3084 
Q 1697 3084 1428 2787 
Q 1159 2491 1159 1978 
L 1159 0 
L 581 0 
L 581 4863 
L 1159 4863 
L 1159 2956 
Q 1366 3272 1645 3428 
Q 1925 3584 2291 3584 
Q 2894 3584 3203 3211 
Q 3513 2838 3513 2113 
z
" transform="scale(0.015625)"/>
       <path id="DejaVuSans-64" d="M 2906 2969 
L 2906 4863 
L 3481 4863 
L 3481 0 
L 2906 0 
L 2906 525 
Q 2725 213 2448 61 
Q 2172 -91 1784 -91 
Q 1150 -91 751 415 
Q 353 922 353 1747 
Q 353 2572 751 3078 
Q 1150 3584 1784 3584 
Q 2172 3584 2448 3432 
Q 2725 3281 2906 2969 
z
M 947 1747 
Q 947 1113 1208 752 
Q 1469 391 1925 391 
Q 2381 391 2643 752 
Q 2906 1113 2906 1747 
Q 2906 2381 2643 2742 
Q 2381 3103 1925 3103 
Q 1469 3103 1208 2742 
Q 947 2381 947 1747 
z
" transform="scale(0.015625)"/>
       <path id="DejaVuSans-44" d="M 1259 4147 
L 1259 519 
L 2022 519 
Q 2988 519 3436 956 
Q 3884 1394 3884 2338 
Q 3884 3275 3436 3711 
Q 2988 4147 2022 4147 
L 1259 4147 
z
M 628 4666 
L 1925 4666 
Q 3281 4666 3915 4102 
Q 4550 3538 4550 2338 
Q 4550 1131 3912 565 
Q 3275 0 1925 0 
L 628 0 
L 628 4666 
z
" transform="scale(0.015625)"/>
       <path id="DejaVuSans-63" d="M 3122 3366 
L 3122 2828 
Q 2878 2963 2633 3030 
Q 2388 3097 2138 3097 
Q 1578 3097 1268 2742 
Q 959 2388 959 1747 
Q 959 1106 1268 751 
Q 1578 397 2138 397 
Q 2388 397 2633 464 
Q 2878 531 3122 666 
L 3122 134 
Q 2881 22 2623 -34 
Q 2366 -91 2075 -91 
Q 1284 -91 818 406 
Q 353 903 353 1747 
Q 353 2603 823 3093 
Q 1294 3584 2113 3584 
Q 2378 3584 2631 3529 
Q 2884 3475 3122 3366 
z
" transform="scale(0.015625)"/>
      </defs>
      <use xlink:href="#DejaVuSans-61"/>
      <use xlink:href="#DejaVuSans-73" transform="translate(61.279297 0)"/>
      <use xlink:href="#DejaVuSans-73" transform="translate(113.378906 0)"/>
      <use xlink:href="#DejaVuSans-65" transform="translate(165.478516 0)"/>
      <use xlink:href="#DejaVuSans-73" transform="translate(227.001953 0)"/>
      <use xlink:href="#DejaVuSans-73" transform="translate(279.101562 0)"/>
      <use xlink:href="#DejaVuSans-6d" transform="translate(331.201172 0)"/>
      <use xlink:href="#DejaVuSans-65" transform="translate(428.613281 0)"/>
      <use xlink:href="#DejaVuSans-6e" transform="translate(490.136719 0)"/>
      <use xlink:href="#DejaVuSans-74" transform="translate(553.515625 0)"/>
      <use xlink:href="#DejaVuSans-52" transform="translate(592.724609 0)"/>
      <use xlink:href="#DejaVuSans-65" transform="translate(657.707031 0)"/>
      <use xlink:href="#DejaVuSans-70" transform="translate(719.230469 0)"/>
      <use xlink:href="#DejaVuSans-6f" transform="translate(782.707031 0)"/>
      <use xlink:href="#DejaVuSans-72" transform="translate(843.888672 0)"/>
      <use xlink:href="#DejaVuSans-74" transform="translate(885.001953 0)"/>
      <use xlink:href="#DejaVuSans-69" transform="translate(924.210938 0)"/>
      <use xlink:href="#DejaVuSans-6e" transform="translate(951.994141 0)"/>
      <use xlink:href="#DejaVuSans-67" transform="translate(1015.373047 0)"/>
      <use xlink:href="#DejaVuSans-4d" transform="translate(1078.849609 0)"/>
      <use xlink:href="#DejaVuSans-65" transform="translate(1165.128906 0)"/>
      <use xlink:href="#DejaVuSans-74" transform="translate(1226.652344 0)"/>
      <use xlink:href="#DejaVuSans-68" transform="translate(1265.861328 0)"/>
      <use xlink:href="#DejaVuSans-6f" transform="translate(1329.240234 0)"/>
      <use xlink:href="#DejaVuSans-64" transform="translate(1390.421875 0)"/>
      <use xlink:href="#DejaVuSans-44" transform="translate(1453.898438 0)"/>
      <use xlink:href="#DejaVuSans-65" transform="translate(1530.900391 0)"/>
      <use xlink:href="#DejaVuSans-73" transform="translate(1592.423828 0)"/>
      <use xlink:href="#DejaVuSans-63" transform="translate(1644.523438 0)"/>
      <use xlink:href="#DejaVuSans-72" transform="translate(1699.503906 0)"/>
      <use xlink:href="#DejaVuSans-69" transform="translate(1740.617188 0)"/>
      <use xlink:href="#DejaVuSans-70" transform="translate(1768.400391 0)"/>
      <use xlink:href="#DejaVuSans-74" transform="translate(1831.876953 0)"/>
      <use xlink:href="#DejaVuSans-6f" transform="translate(1871.085938 0)"/>
      <use xlink:href="#DejaVuSans-72" transform="translate(1932.267578 0)"/>
      <use xlink:href="#DejaVuSans-73" transform="translate(1973.380859 0)"/>
     </g>
    </g>
   </g>
   <g id="text_3">
    <g id="patch_19">
     <path d="M 235.074907 297.946875 
L 412.198657 297.946875 
Q 415.798657 297.946875 415.798657 294.346875 
L 415.798657 282.733125 
Q 415.798657 279.133125 412.198657 279.133125 
L 235.074907 279.133125 
Q 231.474907 279.133125 231.474907 282.733125 
L 231.474907 294.346875 
Q 231.474907 297.946875 235.074907 297.946875 
z
" clip-path="url(#p5aee9958a4)" style="fill: #2ca02c; stroke: #000000; stroke-linejoin: miter"/>
    </g>
    <g clip-path="url(#p5aee9958a4)">
     <!-- performanceLevelDescriptors -->
     <g style="fill: #f5f5f5" transform="translate(235.074907 291.85125) scale(0.12 -0.12)">
      <defs>
       <path id="DejaVuSans-66" d="M 2375 4863 
L 2375 4384 
L 1825 4384 
Q 1516 4384 1395 4259 
Q 1275 4134 1275 3809 
L 1275 3500 
L 2222 3500 
L 2222 3053 
L 1275 3053 
L 1275 0 
L 697 0 
L 697 3053 
L 147 3053 
L 147 3500 
L 697 3500 
L 697 3744 
Q 697 4328 969 4595 
Q 1241 4863 1831 4863 
L 2375 4863 
z
" transform="scale(0.015625)"/>
       <path id="DejaVuSans-4c" d="M 628 4666 
L 1259 4666 
L 1259 531 
L 3531 531 
L 3531 0 
L 628 0 
L 628 4666 
z
" transform="scale(0.015625)"/>
       <path id="DejaVuSans-76" d="M 191 3500 
L 800 3500 
L 1894 563 
L 2988 3500 
L 3597 3500 
L 2284 0 
L 1503 0 
L 191 3500 
z
" transform="scale(0.015625)"/>
       <path id="DejaVuSans-6c" d="M 603 4863 
L 1178 4863 
L 1178 0 
L 603 0 
L 603 4863 
z
" transform="scale(0.015625)"/>
      </defs>
      <use xlink:href="#DejaVuSans-70"/>
      <use xlink:href="#DejaVuSans-65" transform="translate(63.476562 0)"/>
      <use xlink:href="#DejaVuSans-72" transform="translate(125 0)"/>
      <use xlink:href="#DejaVuSans-66" transform="translate(166.113281 0)"/>
      <use xlink:href="#DejaVuSans-6f" transform="translate(201.318359 0)"/>
      <use xlink:href="#DejaVuSans-72" transform="translate(262.5 0)"/>
      <use xlink:href="#DejaVuSans-6d" transform="translate(301.863281 0)"/>
      <use xlink:href="#DejaVuSans-61" transform="translate(399.275391 0)"/>
      <use xlink:href="#DejaVuSans-6e" transform="translate(460.554688 0)"/>
      <use xlink:href="#DejaVuSans-63" transform="translate(523.933594 0)"/>
      <use xlink:href="#DejaVuSans-65" transform="translate(578.914062 0)"/>
      <use xlink:href="#DejaVuSans-4c" transform="translate(640.4375 0)"/>
      <use xlink:href="#DejaVuSans-65" transform="translate(694.400391 0)"/>
      <use xlink:href="#DejaVuSans-76" transform="translate(755.923828 0)"/>
      <use xlink:href="#DejaVuSans-65" transform="translate(815.103516 0)"/>
      <use xlink:href="#DejaVuSans-6c" transform="translate(876.626953 0)"/>
      <use xlink:href="#DejaVuSans-44" transform="translate(904.410156 0)"/>
      <use xlink:href="#DejaVuSans-65" transform="translate(981.412109 0)"/>
      <use xlink:href="#DejaVuSans-73" transform="translate(1042.935547 0)"/>
      <use xlink:href="#DejaVuSans-63" transform="translate(1095.035156 0)"/>
      <use xlink:href="#DejaVuSans-72" transform="translate(1150.015625 0)"/>
      <use xlink:href="#DejaVuSans-69" transform="translate(1191.128906 0)"/>
      <use xlink:href="#DejaVuSans-70" transform="translate(1218.912109 0)"/>
      <use xlink:href="#DejaVuSans-74" transform="translate(1282.388672 0)"/>
      <use xlink:href="#DejaVuSans-6f" transform="translate(1321.597656 0)"/>
      <use xlink:href="#DejaVuSans-72" transform="translate(1382.779297 0)"/>
      <use xlink:href="#DejaVuSans-73" transform="translate(1423.892578 0)"/>
     </g>
    </g>
   </g>
   <g id="text_4">
    <g id="patch_20">
     <path d="M 468.776357 738.946875 
L 603.952607 738.946875 
Q 607.552607 738.946875 607.552607 735.346875 
L 607.552607 723.733125 
Q 607.552607 720.133125 603.952607 720.133125 
L 468.776357 720.133125 
Q 465.176357 720.133125 465.176357 723.733125 
L 465.176357 735.346875 
Q 465.176357 738.946875 468.776357 738.946875 
z
" clip-path="url(#p5aee9958a4)" style="fill: #2ca02c; stroke: #000000; stroke-linejoin: miter"/>
    </g>
    <g clip-path="url(#p5aee9958a4)">
     <!-- gradeLevelDescriptors -->
     <g style="fill: #f5f5f5" transform="translate(468.776357 732.85125) scale(0.12 -0.12)">
      <use xlink:href="#DejaVuSans-67"/>
      <use xlink:href="#DejaVuSans-72" transform="translate(63.476562 0)"/>
      <use xlink:href="#DejaVuSans-61" transform="translate(104.589844 0)"/>
      <use xlink:href="#DejaVuSans-64" transform="translate(165.869141 0)"/>
      <use xlink:href="#DejaVuSans-65" transform="translate(229.345703 0)"/>
      <use xlink:href="#DejaVuSans-4c" transform="translate(290.869141 0)"/>
      <use xlink:href="#DejaVuSans-65" transform="translate(344.832031 0)"/>
      <use xlink:href="#DejaVuSans-76" transform="translate(406.355469 0)"/>
      <use xlink:href="#DejaVuSans-65" transform="translate(465.535156 0)"/>
      <use xlink:href="#DejaVuSans-6c" transform="translate(527.058594 0)"/>
      <use xlink:href="#DejaVuSans-44" transform="translate(554.841797 0)"/>
      <use xlink:href="#DejaVuSans-65" transform="translate(631.84375 0)"/>
      <use xlink:href="#DejaVuSans-73" transform="translate(693.367188 0)"/>
      <use xlink:href="#DejaVuSans-63" transform="translate(745.466797 0)"/>
      <use xlink:href="#DejaVuSans-72" transform="translate(800.447266 0)"/>
      <use xlink:href="#DejaVuSans-69" transform="translate(841.560547 0)"/>
      <use xlink:href="#DejaVuSans-70" transform="translate(869.34375 0)"/>
      <use xlink:href="#DejaVuSans-74" transform="translate(932.820312 0)"/>
      <use xlink:href="#DejaVuSans-6f" transform="translate(972.029297 0)"/>
      <use xlink:href="#DejaVuSans-72" transform="translate(1033.210938 0)"/>
      <use xlink:href="#DejaVuSans-73" transform="translate(1074.324219 0)"/>
     </g>
    </g>
   </g>
   <g id="text_5">
    <g id="patch_21">
     <path d="M 381.332407 628.696875 
L 412.198657 628.696875 
Q 415.798657 628.696875 415.798657 625.096875 
L 415.798657 613.483125 
Q 415.798657 609.883125 412.198657 609.883125 
L 381.332407 609.883125 
Q 377.732407 609.883125 377.732407 613.483125 
L 377.732407 625.096875 
Q 377.732407 628.696875 381.332407 628.696875 
z
" clip-path="url(#p5aee9958a4)" style="fill: #2ca02c; stroke: #000000; stroke-linejoin: miter"/>
    </g>
    <g clip-path="url(#p5aee9958a4)">
     <!-- input -->
     <g style="fill: #f5f5f5" transform="translate(381.332407 622.60125) scale(0.12 -0.12)">
      <defs>
       <path id="DejaVuSans-75" d="M 544 1381 
L 544 3500 
L 1119 3500 
L 1119 1403 
Q 1119 906 1312 657 
Q 1506 409 1894 409 
Q 2359 409 2629 706 
Q 2900 1003 2900 1516 
L 2900 3500 
L 3475 3500 
L 3475 0 
L 2900 0 
L 2900 538 
Q 2691 219 2414 64 
Q 2138 -91 1772 -91 
Q 1169 -91 856 284 
Q 544 659 544 1381 
z
M 1991 3584 
L 1991 3584 
z
" transform="scale(0.015625)"/>
      </defs>
      <use xlink:href="#DejaVuSans-69"/>
      <use xlink:href="#DejaVuSans-6e" transform="translate(27.783203 0)"/>
      <use xlink:href="#DejaVuSans-70" transform="translate(91.162109 0)"/>
      <use xlink:href="#DejaVuSans-75" transform="translate(154.638672 0)"/>
      <use xlink:href="#DejaVuSans-74" transform="translate(218.017578 0)"/>
     </g>
    </g>
   </g>
   <g id="text_6">
    <g clip-path="url(#p5aee9958a4)">
     <!-- 46 rows; 6 cols; 7KB -->
     <g transform="translate(522.900107 529.6225) scale(0.08 -0.08)">
      <defs>
       <path id="DejaVuSans-34" d="M 2419 4116 
L 825 1625 
L 2419 1625 
L 2419 4116 
z
M 2253 4666 
L 3047 4666 
L 3047 1625 
L 3713 1625 
L 3713 1100 
L 3047 1100 
L 3047 0 
L 2419 0 
L 2419 1100 
L 313 1100 
L 313 1709 
L 2253 4666 
z
" transform="scale(0.015625)"/>
       <path id="DejaVuSans-36" d="M 2113 2584 
Q 1688 2584 1439 2293 
Q 1191 2003 1191 1497 
Q 1191 994 1439 701 
Q 1688 409 2113 409 
Q 2538 409 2786 701 
Q 3034 994 3034 1497 
Q 3034 2003 2786 2293 
Q 2538 2584 2113 2584 
z
M 3366 4563 
L 3366 3988 
Q 3128 4100 2886 4159 
Q 2644 4219 2406 4219 
Q 1781 4219 1451 3797 
Q 1122 3375 1075 2522 
Q 1259 2794 1537 2939 
Q 1816 3084 2150 3084 
Q 2853 3084 3261 2657 
Q 3669 2231 3669 1497 
Q 3669 778 3244 343 
Q 2819 -91 2113 -91 
Q 1303 -91 875 529 
Q 447 1150 447 2328 
Q 447 3434 972 4092 
Q 1497 4750 2381 4750 
Q 2619 4750 2861 4703 
Q 3103 4656 3366 4563 
z
" transform="scale(0.015625)"/>
       <path id="DejaVuSans-20" transform="scale(0.015625)"/>
       <path id="DejaVuSans-77" d="M 269 3500 
L 844 3500 
L 1563 769 
L 2278 3500 
L 2956 3500 
L 3675 769 
L 4391 3500 
L 4966 3500 
L 4050 0 
L 3372 0 
L 2619 2869 
L 1863 0 
L 1184 0 
L 269 3500 
z
" transform="scale(0.015625)"/>
       <path id="DejaVuSans-3b" d="M 750 3309 
L 1409 3309 
L 1409 2516 
L 750 2516 
L 750 3309 
z
M 750 794 
L 1409 794 
L 1409 256 
L 897 -744 
L 494 -744 
L 750 256 
L 750 794 
z
" transform="scale(0.015625)"/>
       <path id="DejaVuSans-37" d="M 525 4666 
L 3525 4666 
L 3525 4397 
L 1831 0 
L 1172 0 
L 2766 4134 
L 525 4134 
L 525 4666 
z
" transform="scale(0.015625)"/>
       <path id="DejaVuSans-4b" d="M 628 4666 
L 1259 4666 
L 1259 2694 
L 3353 4666 
L 4166 4666 
L 1850 2491 
L 4331 0 
L 3500 0 
L 1259 2247 
L 1259 0 
L 628 0 
L 628 4666 
z
" transform="scale(0.015625)"/>
       <path id="DejaVuSans-42" d="M 1259 2228 
L 1259 519 
L 2272 519 
Q 2781 519 3026 730 
Q 3272 941 3272 1375 
Q 3272 1813 3026 2020 
Q 2781 2228 2272 2228 
L 1259 2228 
z
M 1259 4147 
L 1259 2741 
L 2194 2741 
Q 2656 2741 2882 2914 
Q 3109 3088 3109 3444 
Q 3109 3797 2882 3972 
Q 2656 4147 2194 4147 
L 1259 4147 
z
M 628 4666 
L 2241 4666 
Q 2963 4666 3353 4366 
Q 3744 4066 3744 3513 
Q 3744 3084 3544 2831 
Q 3344 2578 2956 2516 
Q 3422 2416 3680 2098 
Q 3938 1781 3938 1306 
Q 3938 681 3513 340 
Q 3088 0 2303 0 
L 628 0 
L 628 4666 
z
" transform="scale(0.015625)"/>
      </defs>
      <use xlink:href="#DejaVuSans-34"/>
      <use xlink:href="#DejaVuSans-36" transform="translate(63.623047 0)"/>
      <use xlink:href="#DejaVuSans-20" transform="translate(127.246094 0)"/>
      <use xlink:href="#DejaVuSans-72" transform="translate(159.033203 0)"/>
      <use xlink:href="#DejaVuSans-6f" transform="translate(197.896484 0)"/>
      <use xlink:href="#DejaVuSans-77" transform="translate(259.078125 0)"/>
      <use xlink:href="#DejaVuSans-73" transform="translate(340.865234 0)"/>
      <use xlink:href="#DejaVuSans-3b" transform="translate(392.964844 0)"/>
      <use xlink:href="#DejaVuSans-20" transform="translate(426.65625 0)"/>
      <use xlink:href="#DejaVuSans-36" transform="translate(458.443359 0)"/>
      <use xlink:href="#DejaVuSans-20" transform="translate(522.066406 0)"/>
      <use xlink:href="#DejaVuSans-63" transform="translate(553.853516 0)"/>
      <use xlink:href="#DejaVuSans-6f" transform="translate(608.833984 0)"/>
      <use xlink:href="#DejaVuSans-6c" transform="translate(670.015625 0)"/>
      <use xlink:href="#DejaVuSans-73" transform="translate(697.798828 0)"/>
      <use xlink:href="#DejaVuSans-3b" transform="translate(749.898438 0)"/>
      <use xlink:href="#DejaVuSans-20" transform="translate(783.589844 0)"/>
      <use xlink:href="#DejaVuSans-37" transform="translate(815.376953 0)"/>
      <use xlink:href="#DejaVuSans-4b" transform="translate(879 0)"/>
      <use xlink:href="#DejaVuSans-42" transform="translate(944.576172 0)"/>
     </g>
    </g>
   </g>
   <g id="text_7">
    <g clip-path="url(#p5aee9958a4)">
     <!-- 5 rows; 4 cols; 584B -->
     <g transform="translate(331.302407 419.3725) scale(0.08 -0.08)">
      <defs>
       <path id="DejaVuSans-35" d="M 691 4666 
L 3169 4666 
L 3169 4134 
L 1269 4134 
L 1269 2991 
Q 1406 3038 1543 3061 
Q 1681 3084 1819 3084 
Q 2600 3084 3056 2656 
Q 3513 2228 3513 1497 
Q 3513 744 3044 326 
Q 2575 -91 1722 -91 
Q 1428 -91 1123 -41 
Q 819 9 494 109 
L 494 744 
Q 775 591 1075 516 
Q 1375 441 1709 441 
Q 2250 441 2565 725 
Q 2881 1009 2881 1497 
Q 2881 1984 2565 2268 
Q 2250 2553 1709 2553 
Q 1456 2553 1204 2497 
Q 953 2441 691 2322 
L 691 4666 
z
" transform="scale(0.015625)"/>
       <path id="DejaVuSans-38" d="M 2034 2216 
Q 1584 2216 1326 1975 
Q 1069 1734 1069 1313 
Q 1069 891 1326 650 
Q 1584 409 2034 409 
Q 2484 409 2743 651 
Q 3003 894 3003 1313 
Q 3003 1734 2745 1975 
Q 2488 2216 2034 2216 
z
M 1403 2484 
Q 997 2584 770 2862 
Q 544 3141 544 3541 
Q 544 4100 942 4425 
Q 1341 4750 2034 4750 
Q 2731 4750 3128 4425 
Q 3525 4100 3525 3541 
Q 3525 3141 3298 2862 
Q 3072 2584 2669 2484 
Q 3125 2378 3379 2068 
Q 3634 1759 3634 1313 
Q 3634 634 3220 271 
Q 2806 -91 2034 -91 
Q 1263 -91 848 271 
Q 434 634 434 1313 
Q 434 1759 690 2068 
Q 947 2378 1403 2484 
z
M 1172 3481 
Q 1172 3119 1398 2916 
Q 1625 2713 2034 2713 
Q 2441 2713 2670 2916 
Q 2900 3119 2900 3481 
Q 2900 3844 2670 4047 
Q 2441 4250 2034 4250 
Q 1625 4250 1398 4047 
Q 1172 3844 1172 3481 
z
" transform="scale(0.015625)"/>
      </defs>
      <use xlink:href="#DejaVuSans-35"/>
      <use xlink:href="#DejaVuSans-20" transform="translate(63.623047 0)"/>
      <use xlink:href="#DejaVuSans-72" transform="translate(95.410156 0)"/>
      <use xlink:href="#DejaVuSans-6f" transform="translate(134.273438 0)"/>
      <use xlink:href="#DejaVuSans-77" transform="translate(195.455078 0)"/>
      <use xlink:href="#DejaVuSans-73" transform="translate(277.242188 0)"/>
      <use xlink:href="#DejaVuSans-3b" transform="translate(329.341797 0)"/>
      <use xlink:href="#DejaVuSans-20" transform="translate(363.033203 0)"/>
      <use xlink:href="#DejaVuSans-34" transform="translate(394.820312 0)"/>
      <use xlink:href="#DejaVuSans-20" transform="translate(458.443359 0)"/>
      <use xlink:href="#DejaVuSans-63" transform="translate(490.230469 0)"/>
      <use xlink:href="#DejaVuSans-6f" transform="translate(545.210938 0)"/>
      <use xlink:href="#DejaVuSans-6c" transform="translate(606.392578 0)"/>
      <use xlink:href="#DejaVuSans-73" transform="translate(634.175781 0)"/>
      <use xlink:href="#DejaVuSans-3b" transform="translate(686.275391 0)"/>
      <use xlink:href="#DejaVuSans-20" transform="translate(719.966797 0)"/>
      <use xlink:href="#DejaVuSans-35" transform="translate(751.753906 0)"/>
      <use xlink:href="#DejaVuSans-38" transform="translate(815.376953 0)"/>
      <use xlink:href="#DejaVuSans-34" transform="translate(879 0)"/>
      <use xlink:href="#DejaVuSans-42" transform="translate(942.623047 0)"/>
     </g>
    </g>
   </g>
   <g id="text_8">
    <g clip-path="url(#p5aee9958a4)">
     <!-- 15 rows; 4 cols; 1KB -->
     <g transform="translate(331.146157 309.1225) scale(0.08 -0.08)">
      <defs>
       <path id="DejaVuSans-31" d="M 794 531 
L 1825 531 
L 1825 4091 
L 703 3866 
L 703 4441 
L 1819 4666 
L 2450 4666 
L 2450 531 
L 3481 531 
L 3481 0 
L 794 0 
L 794 531 
z
" transform="scale(0.015625)"/>
      </defs>
      <use xlink:href="#DejaVuSans-31"/>
      <use xlink:href="#DejaVuSans-35" transform="translate(63.623047 0)"/>
      <use xlink:href="#DejaVuSans-20" transform="translate(127.246094 0)"/>
      <use xlink:href="#DejaVuSans-72" transform="translate(159.033203 0)"/>
      <use xlink:href="#DejaVuSans-6f" transform="translate(197.896484 0)"/>
      <use xlink:href="#DejaVuSans-77" transform="translate(259.078125 0)"/>
      <use xlink:href="#DejaVuSans-73" transform="translate(340.865234 0)"/>
      <use xlink:href="#DejaVuSans-3b" transform="translate(392.964844 0)"/>
      <use xlink:href="#DejaVuSans-20" transform="translate(426.65625 0)"/>
      <use xlink:href="#DejaVuSans-34" transform="translate(458.443359 0)"/>
      <use xlink:href="#DejaVuSans-20" transform="translate(522.066406 0)"/>
      <use xlink:href="#DejaVuSans-63" transform="translate(553.853516 0)"/>
      <use xlink:href="#DejaVuSans-6f" transform="translate(608.833984 0)"/>
      <use xlink:href="#DejaVuSans-6c" transform="translate(670.015625 0)"/>
      <use xlink:href="#DejaVuSans-73" transform="translate(697.798828 0)"/>
      <use xlink:href="#DejaVuSans-3b" transform="translate(749.898438 0)"/>
      <use xlink:href="#DejaVuSans-20" transform="translate(783.589844 0)"/>
      <use xlink:href="#DejaVuSans-31" transform="translate(815.376953 0)"/>
      <use xlink:href="#DejaVuSans-4b" transform="translate(879 0)"/>
      <use xlink:href="#DejaVuSans-42" transform="translate(944.576172 0)"/>
     </g>
    </g>
   </g>
   <g id="text_9">
    <g clip-path="url(#p5aee9958a4)">
     <!-- 75 rows; 3 cols; 4KB -->
     <g transform="translate(522.900107 750.1225) scale(0.08 -0.08)">
      <defs>
       <path id="DejaVuSans-33" d="M 2597 2516 
Q 3050 2419 3304 2112 
Q 3559 1806 3559 1356 
Q 3559 666 3084 287 
Q 2609 -91 1734 -91 
Q 1441 -91 1130 -33 
Q 819 25 488 141 
L 488 750 
Q 750 597 1062 519 
Q 1375 441 1716 441 
Q 2309 441 2620 675 
Q 2931 909 2931 1356 
Q 2931 1769 2642 2001 
Q 2353 2234 1838 2234 
L 1294 2234 
L 1294 2753 
L 1863 2753 
Q 2328 2753 2575 2939 
Q 2822 3125 2822 3475 
Q 2822 3834 2567 4026 
Q 2313 4219 1838 4219 
Q 1578 4219 1281 4162 
Q 984 4106 628 3988 
L 628 4550 
Q 988 4650 1302 4700 
Q 1616 4750 1894 4750 
Q 2613 4750 3031 4423 
Q 3450 4097 3450 3541 
Q 3450 3153 3228 2886 
Q 3006 2619 2597 2516 
z
" transform="scale(0.015625)"/>
      </defs>
      <use xlink:href="#DejaVuSans-37"/>
      <use xlink:href="#DejaVuSans-35" transform="translate(63.623047 0)"/>
      <use xlink:href="#DejaVuSans-20" transform="translate(127.246094 0)"/>
      <use xlink:href="#DejaVuSans-72" transform="translate(159.033203 0)"/>
      <use xlink:href="#DejaVuSans-6f" transform="translate(197.896484 0)"/>
      <use xlink:href="#DejaVuSans-77" transform="translate(259.078125 0)"/>
      <use xlink:href="#DejaVuSans-73" transform="translate(340.865234 0)"/>
      <use xlink:href="#DejaVuSans-3b" transform="translate(392.964844 0)"/>
      <use xlink:href="#DejaVuSans-20" transform="translate(426.65625 0)"/>
      <use xlink:href="#DejaVuSans-33" transform="translate(458.443359 0)"/>
      <use xlink:href="#DejaVuSans-20" transform="translate(522.066406 0)"/>
      <use xlink:href="#DejaVuSans-63" transform="translate(553.853516 0)"/>
      <use xlink:href="#DejaVuSans-6f" transform="translate(608.833984 0)"/>
      <use xlink:href="#DejaVuSans-6c" transform="translate(670.015625 0)"/>
      <use xlink:href="#DejaVuSans-73" transform="translate(697.798828 0)"/>
      <use xlink:href="#DejaVuSans-3b" transform="translate(749.898438 0)"/>
      <use xlink:href="#DejaVuSans-20" transform="translate(783.589844 0)"/>
      <use xlink:href="#DejaVuSans-34" transform="translate(815.376953 0)"/>
      <use xlink:href="#DejaVuSans-4b" transform="translate(879 0)"/>
      <use xlink:href="#DejaVuSans-42" transform="translate(944.576172 0)"/>
     </g>
    </g>
   </g>
   <g id="text_10">
    <g clip-path="url(#p5aee9958a4)">
     <!-- 5 rows; 18 cols; 928B -->
     <g transform="translate(326.212407 639.8725) scale(0.08 -0.08)">
      <defs>
       <path id="DejaVuSans-39" d="M 703 97 
L 703 672 
Q 941 559 1184 500 
Q 1428 441 1663 441 
Q 2288 441 2617 861 
Q 2947 1281 2994 2138 
Q 2813 1869 2534 1725 
Q 2256 1581 1919 1581 
Q 1219 1581 811 2004 
Q 403 2428 403 3163 
Q 403 3881 828 4315 
Q 1253 4750 1959 4750 
Q 2769 4750 3195 4129 
Q 3622 3509 3622 2328 
Q 3622 1225 3098 567 
Q 2575 -91 1691 -91 
Q 1453 -91 1209 -44 
Q 966 3 703 97 
z
M 1959 2075 
Q 2384 2075 2632 2365 
Q 2881 2656 2881 3163 
Q 2881 3666 2632 3958 
Q 2384 4250 1959 4250 
Q 1534 4250 1286 3958 
Q 1038 3666 1038 3163 
Q 1038 2656 1286 2365 
Q 1534 2075 1959 2075 
z
" transform="scale(0.015625)"/>
       <path id="DejaVuSans-32" d="M 1228 531 
L 3431 531 
L 3431 0 
L 469 0 
L 469 531 
Q 828 903 1448 1529 
Q 2069 2156 2228 2338 
Q 2531 2678 2651 2914 
Q 2772 3150 2772 3378 
Q 2772 3750 2511 3984 
Q 2250 4219 1831 4219 
Q 1534 4219 1204 4116 
Q 875 4013 500 3803 
L 500 4441 
Q 881 4594 1212 4672 
Q 1544 4750 1819 4750 
Q 2544 4750 2975 4387 
Q 3406 4025 3406 3419 
Q 3406 3131 3298 2873 
Q 3191 2616 2906 2266 
Q 2828 2175 2409 1742 
Q 1991 1309 1228 531 
z
" transform="scale(0.015625)"/>
      </defs>
      <use xlink:href="#DejaVuSans-35"/>
      <use xlink:href="#DejaVuSans-20" transform="translate(63.623047 0)"/>
      <use xlink:href="#DejaVuSans-72" transform="translate(95.410156 0)"/>
      <use xlink:href="#DejaVuSans-6f" transform="translate(134.273438 0)"/>
      <use xlink:href="#DejaVuSans-77" transform="translate(195.455078 0)"/>
      <use xlink:href="#DejaVuSans-73" transform="translate(277.242188 0)"/>
      <use xlink:href="#DejaVuSans-3b" transform="translate(329.341797 0)"/>
      <use xlink:href="#DejaVuSans-20" transform="translate(363.033203 0)"/>
      <use xlink:href="#DejaVuSans-31" transform="translate(394.820312 0)"/>
      <use xlink:href="#DejaVuSans-38" transform="translate(458.443359 0)"/>
      <use xlink:href="#DejaVuSans-20" transform="translate(522.066406 0)"/>
      <use xlink:href="#DejaVuSans-63" transform="translate(553.853516 0)"/>
      <use xlink:href="#DejaVuSans-6f" transform="translate(608.833984 0)"/>
      <use xlink:href="#DejaVuSans-6c" transform="translate(670.015625 0)"/>
      <use xlink:href="#DejaVuSans-73" transform="translate(697.798828 0)"/>
      <use xlink:href="#DejaVuSans-3b" transform="translate(749.898438 0)"/>
      <use xlink:href="#DejaVuSans-20" transform="translate(783.589844 0)"/>
      <use xlink:href="#DejaVuSans-39" transform="translate(815.376953 0)"/>
      <use xlink:href="#DejaVuSans-32" transform="translate(879 0)"/>
      <use xlink:href="#DejaVuSans-38" transform="translate(942.623047 0)"/>
      <use xlink:href="#DejaVuSans-42" transform="translate(1006.246094 0)"/>
     </g>
    </g>
   </g>
   <g id="text_11">
    <g id="patch_22">
     <path d="M 597.27537 608.280208 
L 628.14162 608.280208 
Q 631.74162 608.280208 631.74162 604.680208 
L 631.74162 593.066458 
Q 631.74162 589.466458 628.14162 589.466458 
L 597.27537 589.466458 
Q 593.67537 589.466458 593.67537 593.066458 
L 593.67537 604.680208 
Q 593.67537 608.280208 597.27537 608.280208 
z
" clip-path="url(#p5aee9958a4)" style="fill: #1f77b4; stroke: #000000; stroke-linejoin: miter"/>
    </g>
    <g clip-path="url(#p5aee9958a4)">
     <!-- input -->
     <g style="fill: #f5f5f5" transform="translate(597.27537 602.184583) scale(0.12 -0.12)">
      <use xlink:href="#DejaVuSans-69"/>
      <use xlink:href="#DejaVuSans-6e" transform="translate(27.783203 0)"/>
      <use xlink:href="#DejaVuSans-70" transform="translate(91.162109 0)"/>
      <use xlink:href="#DejaVuSans-75" transform="translate(154.638672 0)"/>
      <use xlink:href="#DejaVuSans-74" transform="translate(218.017578 0)"/>
     </g>
    </g>
   </g>
   <g id="text_12">
    <g id="patch_23">
     <path d="M 750.893867 608.447083 
L 829.360742 608.447083 
Q 832.960742 608.447083 832.960742 604.847083 
L 832.960742 592.899583 
Q 832.960742 589.299583 829.360742 589.299583 
L 750.893867 589.299583 
Q 747.293867 589.299583 747.293867 592.899583 
L 747.293867 604.847083 
Q 747.293867 608.447083 750.893867 608.447083 
z
" clip-path="url(#p5aee9958a4)" style="fill: #1f77b4; stroke: #000000; stroke-linejoin: miter"/>
    </g>
    <g clip-path="url(#p5aee9958a4)">
     <!-- clean_results -->
     <g style="fill: #f5f5f5" transform="translate(750.893867 602.017708) scale(0.12 -0.12)">
      <defs>
       <path id="DejaVuSans-5f" d="M 3263 -1063 
L 3263 -1509 
L -63 -1509 
L -63 -1063 
L 3263 -1063 
z
" transform="scale(0.015625)"/>
      </defs>
      <use xlink:href="#DejaVuSans-63"/>
      <use xlink:href="#DejaVuSans-6c" transform="translate(54.980469 0)"/>
      <use xlink:href="#DejaVuSans-65" transform="translate(82.763672 0)"/>
      <use xlink:href="#DejaVuSans-61" transform="translate(144.287109 0)"/>
      <use xlink:href="#DejaVuSans-6e" transform="translate(205.566406 0)"/>
      <use xlink:href="#DejaVuSans-5f" transform="translate(268.945312 0)"/>
      <use xlink:href="#DejaVuSans-72" transform="translate(318.945312 0)"/>
      <use xlink:href="#DejaVuSans-65" transform="translate(357.808594 0)"/>
      <use xlink:href="#DejaVuSans-73" transform="translate(419.332031 0)"/>
      <use xlink:href="#DejaVuSans-75" transform="translate(471.431641 0)"/>
      <use xlink:href="#DejaVuSans-6c" transform="translate(534.810547 0)"/>
      <use xlink:href="#DejaVuSans-74" transform="translate(562.59375 0)"/>
      <use xlink:href="#DejaVuSans-73" transform="translate(601.802734 0)"/>
     </g>
    </g>
   </g>
   <g id="text_13">
    <g id="patch_24">
     <path d="M 718.921367 718.697083 
L 861.333242 718.697083 
Q 864.933242 718.697083 864.933242 715.097083 
L 864.933242 703.149583 
Q 864.933242 699.549583 861.333242 699.549583 
L 718.921367 699.549583 
Q 715.321367 699.549583 715.321367 703.149583 
L 715.321367 715.097083 
Q 715.321367 718.697083 718.921367 718.697083 
z
" clip-path="url(#p5aee9958a4)" style="fill: #1f77b4; stroke: #000000; stroke-linejoin: miter"/>
    </g>
    <g clip-path="url(#p5aee9958a4)">
     <!-- grade_level_descriptors -->
     <g style="fill: #f5f5f5" transform="translate(718.921367 712.267708) scale(0.12 -0.12)">
      <use xlink:href="#DejaVuSans-67"/>
      <use xlink:href="#DejaVuSans-72" transform="translate(63.476562 0)"/>
      <use xlink:href="#DejaVuSans-61" transform="translate(104.589844 0)"/>
      <use xlink:href="#DejaVuSans-64" transform="translate(165.869141 0)"/>
      <use xlink:href="#DejaVuSans-65" transform="translate(229.345703 0)"/>
      <use xlink:href="#DejaVuSans-5f" transform="translate(290.869141 0)"/>
      <use xlink:href="#DejaVuSans-6c" transform="translate(340.869141 0)"/>
      <use xlink:href="#DejaVuSans-65" transform="translate(368.652344 0)"/>
      <use xlink:href="#DejaVuSans-76" transform="translate(430.175781 0)"/>
      <use xlink:href="#DejaVuSans-65" transform="translate(489.355469 0)"/>
      <use xlink:href="#DejaVuSans-6c" transform="translate(550.878906 0)"/>
      <use xlink:href="#DejaVuSans-5f" transform="translate(578.662109 0)"/>
      <use xlink:href="#DejaVuSans-64" transform="translate(628.662109 0)"/>
      <use xlink:href="#DejaVuSans-65" transform="translate(692.138672 0)"/>
      <use xlink:href="#DejaVuSans-73" transform="translate(753.662109 0)"/>
      <use xlink:href="#DejaVuSans-63" transform="translate(805.761719 0)"/>
      <use xlink:href="#DejaVuSans-72" transform="translate(860.742188 0)"/>
      <use xlink:href="#DejaVuSans-69" transform="translate(901.855469 0)"/>
      <use xlink:href="#DejaVuSans-70" transform="translate(929.638672 0)"/>
      <use xlink:href="#DejaVuSans-74" transform="translate(993.115234 0)"/>
      <use xlink:href="#DejaVuSans-6f" transform="translate(1032.324219 0)"/>
      <use xlink:href="#DejaVuSans-72" transform="translate(1093.505859 0)"/>
      <use xlink:href="#DejaVuSans-73" transform="translate(1134.619141 0)"/>
     </g>
    </g>
   </g>
   <g id="text_14">
    <g id="patch_25">
     <path d="M 895.841598 718.530208 
L 973.217223 718.530208 
Q 976.817223 718.530208 976.817223 714.930208 
L 976.817223 703.316458 
Q 976.817223 699.716458 973.217223 699.716458 
L 895.841598 699.716458 
Q 892.241598 699.716458 892.241598 703.316458 
L 892.241598 714.930208 
Q 892.241598 718.530208 895.841598 718.530208 
z
" clip-path="url(#p5aee9958a4)" style="fill: #1f77b4; stroke: #000000; stroke-linejoin: miter"/>
    </g>
    <g clip-path="url(#p5aee9958a4)">
     <!-- assessments -->
     <g style="fill: #f5f5f5" transform="translate(895.841598 712.434583) scale(0.12 -0.12)">
      <use xlink:href="#DejaVuSans-61"/>
      <use xlink:href="#DejaVuSans-73" transform="translate(61.279297 0)"/>
      <use xlink:href="#DejaVuSans-73" transform="translate(113.378906 0)"/>
      <use xlink:href="#DejaVuSans-65" transform="translate(165.478516 0)"/>
      <use xlink:href="#DejaVuSans-73" transform="translate(227.001953 0)"/>
      <use xlink:href="#DejaVuSans-73" transform="translate(279.101562 0)"/>
      <use xlink:href="#DejaVuSans-6d" transform="translate(331.201172 0)"/>
      <use xlink:href="#DejaVuSans-65" transform="translate(428.613281 0)"/>
      <use xlink:href="#DejaVuSans-6e" transform="translate(490.136719 0)"/>
      <use xlink:href="#DejaVuSans-74" transform="translate(553.515625 0)"/>
      <use xlink:href="#DejaVuSans-73" transform="translate(592.724609 0)"/>
     </g>
    </g>
   </g>
   <g id="text_15">
    <g clip-path="url(#p5aee9958a4)">
     <!-- 5 rows; 18 cols -->
     <g transform="translate(615.860615 619.455833) scale(0.08 -0.08)">
      <use xlink:href="#DejaVuSans-35"/>
      <use xlink:href="#DejaVuSans-20" transform="translate(63.623047 0)"/>
      <use xlink:href="#DejaVuSans-72" transform="translate(95.410156 0)"/>
      <use xlink:href="#DejaVuSans-6f" transform="translate(134.273438 0)"/>
      <use xlink:href="#DejaVuSans-77" transform="translate(195.455078 0)"/>
      <use xlink:href="#DejaVuSans-73" transform="translate(277.242188 0)"/>
      <use xlink:href="#DejaVuSans-3b" transform="translate(329.341797 0)"/>
      <use xlink:href="#DejaVuSans-20" transform="translate(363.033203 0)"/>
      <use xlink:href="#DejaVuSans-31" transform="translate(394.820312 0)"/>
      <use xlink:href="#DejaVuSans-38" transform="translate(458.443359 0)"/>
      <use xlink:href="#DejaVuSans-20" transform="translate(522.066406 0)"/>
      <use xlink:href="#DejaVuSans-63" transform="translate(553.853516 0)"/>
      <use xlink:href="#DejaVuSans-6f" transform="translate(608.833984 0)"/>
      <use xlink:href="#DejaVuSans-6c" transform="translate(670.015625 0)"/>
      <use xlink:href="#DejaVuSans-73" transform="translate(697.798828 0)"/>
     </g>
    </g>
   </g>
   <g id="text_16">
    <g clip-path="url(#p5aee9958a4)">
     <!-- 5 rows; 26 cols -->
     <g transform="translate(793.279424 619.455833) scale(0.08 -0.08)">
      <use xlink:href="#DejaVuSans-35"/>
      <use xlink:href="#DejaVuSans-20" transform="translate(63.623047 0)"/>
      <use xlink:href="#DejaVuSans-72" transform="translate(95.410156 0)"/>
      <use xlink:href="#DejaVuSans-6f" transform="translate(134.273438 0)"/>
      <use xlink:href="#DejaVuSans-77" transform="translate(195.455078 0)"/>
      <use xlink:href="#DejaVuSans-73" transform="translate(277.242188 0)"/>
      <use xlink:href="#DejaVuSans-3b" transform="translate(329.341797 0)"/>
      <use xlink:href="#DejaVuSans-20" transform="translate(363.033203 0)"/>
      <use xlink:href="#DejaVuSans-32" transform="translate(394.820312 0)"/>
      <use xlink:href="#DejaVuSans-36" transform="translate(458.443359 0)"/>
      <use xlink:href="#DejaVuSans-20" transform="translate(522.066406 0)"/>
      <use xlink:href="#DejaVuSans-63" transform="translate(553.853516 0)"/>
      <use xlink:href="#DejaVuSans-6f" transform="translate(608.833984 0)"/>
      <use xlink:href="#DejaVuSans-6c" transform="translate(670.015625 0)"/>
      <use xlink:href="#DejaVuSans-73" transform="translate(697.798828 0)"/>
     </g>
    </g>
   </g>
   <g id="text_17">
    <g clip-path="url(#p5aee9958a4)">
     <!-- 46 rows; 2 cols -->
     <g transform="translate(793.279424 729.705833) scale(0.08 -0.08)">
      <use xlink:href="#DejaVuSans-34"/>
      <use xlink:href="#DejaVuSans-36" transform="translate(63.623047 0)"/>
      <use xlink:href="#DejaVuSans-20" transform="translate(127.246094 0)"/>
      <use xlink:href="#DejaVuSans-72" transform="translate(159.033203 0)"/>
      <use xlink:href="#DejaVuSans-6f" transform="translate(197.896484 0)"/>
      <use xlink:href="#DejaVuSans-77" transform="translate(259.078125 0)"/>
      <use xlink:href="#DejaVuSans-73" transform="translate(340.865234 0)"/>
      <use xlink:href="#DejaVuSans-3b" transform="translate(392.964844 0)"/>
      <use xlink:href="#DejaVuSans-20" transform="translate(426.65625 0)"/>
      <use xlink:href="#DejaVuSans-32" transform="translate(458.443359 0)"/>
      <use xlink:href="#DejaVuSans-20" transform="translate(522.066406 0)"/>
      <use xlink:href="#DejaVuSans-63" transform="translate(553.853516 0)"/>
      <use xlink:href="#DejaVuSans-6f" transform="translate(608.833984 0)"/>
      <use xlink:href="#DejaVuSans-6c" transform="translate(670.015625 0)"/>
      <use xlink:href="#DejaVuSans-73" transform="translate(697.798828 0)"/>
     </g>
    </g>
   </g>
   <g id="text_18">
    <g clip-path="url(#p5aee9958a4)">
     <!-- 1 rows; 7 cols -->
     <g transform="translate(937.68153 729.705833) scale(0.08 -0.08)">
      <use xlink:href="#DejaVuSans-31"/>
      <use xlink:href="#DejaVuSans-20" transform="translate(63.623047 0)"/>
      <use xlink:href="#DejaVuSans-72" transform="translate(95.410156 0)"/>
      <use xlink:href="#DejaVuSans-6f" transform="translate(134.273438 0)"/>
      <use xlink:href="#DejaVuSans-77" transform="translate(195.455078 0)"/>
      <use xlink:href="#DejaVuSans-73" transform="translate(277.242188 0)"/>
      <use xlink:href="#DejaVuSans-3b" transform="translate(329.341797 0)"/>
      <use xlink:href="#DejaVuSans-20" transform="translate(363.033203 0)"/>
      <use xlink:href="#DejaVuSans-37" transform="translate(394.820312 0)"/>
      <use xlink:href="#DejaVuSans-20" transform="translate(458.443359 0)"/>
      <use xlink:href="#DejaVuSans-63" transform="translate(490.230469 0)"/>
      <use xlink:href="#DejaVuSans-6f" transform="translate(545.210938 0)"/>
      <use xlink:href="#DejaVuSans-6c" transform="translate(606.392578 0)"/>
      <use xlink:href="#DejaVuSans-73" transform="translate(634.175781 0)"/>
     </g>
    </g>
   </g>
   <g id="text_19">
    <g id="patch_26">
     <path d="M 1063.801343 738.946875 
L 1141.176968 738.946875 
Q 1144.776968 738.946875 1144.776968 735.346875 
L 1144.776968 723.733125 
Q 1144.776968 720.133125 1141.176968 720.133125 
L 1063.801343 720.133125 
Q 1060.201343 720.133125 1060.201343 723.733125 
L 1060.201343 735.346875 
Q 1060.201343 738.946875 1063.801343 738.946875 
z
" clip-path="url(#p5aee9958a4)" style="fill: #d62728; stroke: #000000; stroke-linejoin: miter"/>
    </g>
    <g clip-path="url(#p5aee9958a4)">
     <!-- assessments -->
     <g style="fill: #f5f5f5" transform="translate(1063.801343 732.85125) scale(0.12 -0.12)">
      <use xlink:href="#DejaVuSans-61"/>
      <use xlink:href="#DejaVuSans-73" transform="translate(61.279297 0)"/>
      <use xlink:href="#DejaVuSans-73" transform="translate(113.378906 0)"/>
      <use xlink:href="#DejaVuSans-65" transform="translate(165.478516 0)"/>
      <use xlink:href="#DejaVuSans-73" transform="translate(227.001953 0)"/>
      <use xlink:href="#DejaVuSans-73" transform="translate(279.101562 0)"/>
      <use xlink:href="#DejaVuSans-6d" transform="translate(331.201172 0)"/>
      <use xlink:href="#DejaVuSans-65" transform="translate(428.613281 0)"/>
      <use xlink:href="#DejaVuSans-6e" transform="translate(490.136719 0)"/>
      <use xlink:href="#DejaVuSans-74" transform="translate(553.515625 0)"/>
      <use xlink:href="#DejaVuSans-73" transform="translate(592.724609 0)"/>
     </g>
    </g>
   </g>
   <g id="text_20">
    <g id="patch_27">
     <path d="M 621.464383 408.196875 
L 864.522508 408.196875 
Q 868.122508 408.196875 868.122508 404.596875 
L 868.122508 392.983125 
Q 868.122508 389.383125 864.522508 389.383125 
L 621.464383 389.383125 
Q 617.864383 389.383125 617.864383 392.983125 
L 617.864383 404.596875 
Q 617.864383 408.196875 621.464383 408.196875 
z
" clip-path="url(#p5aee9958a4)" style="fill: #d62728; stroke: #000000; stroke-linejoin: miter"/>
    </g>
    <g clip-path="url(#p5aee9958a4)">
     <!-- assessmentReportingMethodDescriptors -->
     <g style="fill: #f5f5f5" transform="translate(621.464383 402.10125) scale(0.12 -0.12)">
      <use xlink:href="#DejaVuSans-61"/>
      <use xlink:href="#DejaVuSans-73" transform="translate(61.279297 0)"/>
      <use xlink:href="#DejaVuSans-73" transform="translate(113.378906 0)"/>
      <use xlink:href="#DejaVuSans-65" transform="translate(165.478516 0)"/>
      <use xlink:href="#DejaVuSans-73" transform="translate(227.001953 0)"/>
      <use xlink:href="#DejaVuSans-73" transform="translate(279.101562 0)"/>
      <use xlink:href="#DejaVuSans-6d" transform="translate(331.201172 0)"/>
      <use xlink:href="#DejaVuSans-65" transform="translate(428.613281 0)"/>
      <use xlink:href="#DejaVuSans-6e" transform="translate(490.136719 0)"/>
      <use xlink:href="#DejaVuSans-74" transform="translate(553.515625 0)"/>
      <use xlink:href="#DejaVuSans-52" transform="translate(592.724609 0)"/>
      <use xlink:href="#DejaVuSans-65" transform="translate(657.707031 0)"/>
      <use xlink:href="#DejaVuSans-70" transform="translate(719.230469 0)"/>
      <use xlink:href="#DejaVuSans-6f" transform="translate(782.707031 0)"/>
      <use xlink:href="#DejaVuSans-72" transform="translate(843.888672 0)"/>
      <use xlink:href="#DejaVuSans-74" transform="translate(885.001953 0)"/>
      <use xlink:href="#DejaVuSans-69" transform="translate(924.210938 0)"/>
      <use xlink:href="#DejaVuSans-6e" transform="translate(951.994141 0)"/>
      <use xlink:href="#DejaVuSans-67" transform="translate(1015.373047 0)"/>
      <use xlink:href="#DejaVuSans-4d" transform="translate(1078.849609 0)"/>
      <use xlink:href="#DejaVuSans-65" transform="translate(1165.128906 0)"/>
      <use xlink:href="#DejaVuSans-74" transform="translate(1226.652344 0)"/>
      <use xlink:href="#DejaVuSans-68" transform="translate(1265.861328 0)"/>
      <use xlink:href="#DejaVuSans-6f" transform="translate(1329.240234 0)"/>
      <use xlink:href="#DejaVuSans-64" transform="translate(1390.421875 0)"/>
      <use xlink:href="#DejaVuSans-44" transform="translate(1453.898438 0)"/>
      <use xlink:href="#DejaVuSans-65" transform="translate(1530.900391 0)"/>
      <use xlink:href="#DejaVuSans-73" transform="translate(1592.423828 0)"/>
      <use xlink:href="#DejaVuSans-63" transform="translate(1644.523438 0)"/>
      <use xlink:href="#DejaVuSans-72" transform="translate(1699.503906 0)"/>
      <use xlink:href="#DejaVuSans-69" transform="translate(1740.617188 0)"/>
      <use xlink:href="#DejaVuSans-70" transform="translate(1768.400391 0)"/>
      <use xlink:href="#DejaVuSans-74" transform="translate(1831.876953 0)"/>
      <use xlink:href="#DejaVuSans-6f" transform="translate(1871.085938 0)"/>
      <use xlink:href="#DejaVuSans-72" transform="translate(1932.267578 0)"/>
      <use xlink:href="#DejaVuSans-73" transform="translate(1973.380859 0)"/>
     </g>
    </g>
   </g>
   <g id="text_21">
    <g id="patch_28">
     <path d="M 621.464383 297.946875 
L 798.588133 297.946875 
Q 802.188133 297.946875 802.188133 294.346875 
L 802.188133 282.733125 
Q 802.188133 279.133125 798.588133 279.133125 
L 621.464383 279.133125 
Q 617.864383 279.133125 617.864383 282.733125 
L 617.864383 294.346875 
Q 617.864383 297.946875 621.464383 297.946875 
z
" clip-path="url(#p5aee9958a4)" style="fill: #d62728; stroke: #000000; stroke-linejoin: miter"/>
    </g>
    <g clip-path="url(#p5aee9958a4)">
     <!-- performanceLevelDescriptors -->
     <g style="fill: #f5f5f5" transform="translate(621.464383 291.85125) scale(0.12 -0.12)">
      <use xlink:href="#DejaVuSans-70"/>
      <use xlink:href="#DejaVuSans-65" transform="translate(63.476562 0)"/>
      <use xlink:href="#DejaVuSans-72" transform="translate(125 0)"/>
      <use xlink:href="#DejaVuSans-66" transform="translate(166.113281 0)"/>
      <use xlink:href="#DejaVuSans-6f" transform="translate(201.318359 0)"/>
      <use xlink:href="#DejaVuSans-72" transform="translate(262.5 0)"/>
      <use xlink:href="#DejaVuSans-6d" transform="translate(301.863281 0)"/>
      <use xlink:href="#DejaVuSans-61" transform="translate(399.275391 0)"/>
      <use xlink:href="#DejaVuSans-6e" transform="translate(460.554688 0)"/>
      <use xlink:href="#DejaVuSans-63" transform="translate(523.933594 0)"/>
      <use xlink:href="#DejaVuSans-65" transform="translate(578.914062 0)"/>
      <use xlink:href="#DejaVuSans-4c" transform="translate(640.4375 0)"/>
      <use xlink:href="#DejaVuSans-65" transform="translate(694.400391 0)"/>
      <use xlink:href="#DejaVuSans-76" transform="translate(755.923828 0)"/>
      <use xlink:href="#DejaVuSans-65" transform="translate(815.103516 0)"/>
      <use xlink:href="#DejaVuSans-6c" transform="translate(876.626953 0)"/>
      <use xlink:href="#DejaVuSans-44" transform="translate(904.410156 0)"/>
      <use xlink:href="#DejaVuSans-65" transform="translate(981.412109 0)"/>
      <use xlink:href="#DejaVuSans-73" transform="translate(1042.935547 0)"/>
      <use xlink:href="#DejaVuSans-63" transform="translate(1095.035156 0)"/>
      <use xlink:href="#DejaVuSans-72" transform="translate(1150.015625 0)"/>
      <use xlink:href="#DejaVuSans-69" transform="translate(1191.128906 0)"/>
      <use xlink:href="#DejaVuSans-70" transform="translate(1218.912109 0)"/>
      <use xlink:href="#DejaVuSans-74" transform="translate(1282.388672 0)"/>
      <use xlink:href="#DejaVuSans-6f" transform="translate(1321.597656 0)"/>
      <use xlink:href="#DejaVuSans-72" transform="translate(1382.779297 0)"/>
      <use xlink:href="#DejaVuSans-73" transform="translate(1423.892578 0)"/>
     </g>
    </g>
   </g>
   <g id="text_22">
    <g id="patch_29">
     <path d="M 943.285299 628.696875 
L 1067.387799 628.696875 
Q 1070.987799 628.696875 1070.987799 625.096875 
L 1070.987799 613.483125 
Q 1070.987799 609.883125 1067.387799 609.883125 
L 943.285299 609.883125 
Q 939.685299 609.883125 939.685299 613.483125 
L 939.685299 625.096875 
Q 939.685299 628.696875 943.285299 628.696875 
z
" clip-path="url(#p5aee9958a4)" style="fill: #d62728; stroke: #000000; stroke-linejoin: miter"/>
    </g>
    <g clip-path="url(#p5aee9958a4)">
     <!-- studentAssessments -->
     <g style="fill: #f5f5f5" transform="translate(943.285299 622.60125) scale(0.12 -0.12)">
      <defs>
       <path id="DejaVuSans-41" d="M 2188 4044 
L 1331 1722 
L 3047 1722 
L 2188 4044 
z
M 1831 4666 
L 2547 4666 
L 4325 0 
L 3669 0 
L 3244 1197 
L 1141 1197 
L 716 0 
L 50 0 
L 1831 4666 
z
" transform="scale(0.015625)"/>
      </defs>
      <use xlink:href="#DejaVuSans-73"/>
      <use xlink:href="#DejaVuSans-74" transform="translate(52.099609 0)"/>
      <use xlink:href="#DejaVuSans-75" transform="translate(91.308594 0)"/>
      <use xlink:href="#DejaVuSans-64" transform="translate(154.6875 0)"/>
      <use xlink:href="#DejaVuSans-65" transform="translate(218.164062 0)"/>
      <use xlink:href="#DejaVuSans-6e" transform="translate(279.6875 0)"/>
      <use xlink:href="#DejaVuSans-74" transform="translate(343.066406 0)"/>
      <use xlink:href="#DejaVuSans-41" transform="translate(382.275391 0)"/>
      <use xlink:href="#DejaVuSans-73" transform="translate(450.683594 0)"/>
      <use xlink:href="#DejaVuSans-73" transform="translate(502.783203 0)"/>
      <use xlink:href="#DejaVuSans-65" transform="translate(554.882812 0)"/>
      <use xlink:href="#DejaVuSans-73" transform="translate(616.40625 0)"/>
      <use xlink:href="#DejaVuSans-73" transform="translate(668.505859 0)"/>
      <use xlink:href="#DejaVuSans-6d" transform="translate(720.605469 0)"/>
      <use xlink:href="#DejaVuSans-65" transform="translate(818.017578 0)"/>
      <use xlink:href="#DejaVuSans-6e" transform="translate(879.541016 0)"/>
      <use xlink:href="#DejaVuSans-74" transform="translate(942.919922 0)"/>
      <use xlink:href="#DejaVuSans-73" transform="translate(982.128906 0)"/>
     </g>
    </g>
   </g>
   <g id="text_23">
    <g clip-path="url(#p5aee9958a4)">
     <!-- 1 rows; 1 cols; 1KB -->
     <g transform="translate(1063.801343 750.1225) scale(0.08 -0.08)">
      <use xlink:href="#DejaVuSans-31"/>
      <use xlink:href="#DejaVuSans-20" transform="translate(63.623047 0)"/>
      <use xlink:href="#DejaVuSans-72" transform="translate(95.410156 0)"/>
      <use xlink:href="#DejaVuSans-6f" transform="translate(134.273438 0)"/>
      <use xlink:href="#DejaVuSans-77" transform="translate(195.455078 0)"/>
      <use xlink:href="#DejaVuSans-73" transform="translate(277.242188 0)"/>
      <use xlink:href="#DejaVuSans-3b" transform="translate(329.341797 0)"/>
      <use xlink:href="#DejaVuSans-20" transform="translate(363.033203 0)"/>
      <use xlink:href="#DejaVuSans-31" transform="translate(394.820312 0)"/>
      <use xlink:href="#DejaVuSans-20" transform="translate(458.443359 0)"/>
      <use xlink:href="#DejaVuSans-63" transform="translate(490.230469 0)"/>
      <use xlink:href="#DejaVuSans-6f" transform="translate(545.210938 0)"/>
      <use xlink:href="#DejaVuSans-6c" transform="translate(606.392578 0)"/>
      <use xlink:href="#DejaVuSans-73" transform="translate(634.175781 0)"/>
      <use xlink:href="#DejaVuSans-3b" transform="translate(686.275391 0)"/>
      <use xlink:href="#DejaVuSans-20" transform="translate(719.966797 0)"/>
      <use xlink:href="#DejaVuSans-31" transform="translate(751.753906 0)"/>
      <use xlink:href="#DejaVuSans-4b" transform="translate(815.376953 0)"/>
      <use xlink:href="#DejaVuSans-42" transform="translate(880.953125 0)"/>
     </g>
    </g>
   </g>
   <g id="text_24">
    <g clip-path="url(#p5aee9958a4)">
     <!-- 5 rows; 1 cols; 916B -->
     <g transform="translate(621.464383 419.3725) scale(0.08 -0.08)">
      <use xlink:href="#DejaVuSans-35"/>
      <use xlink:href="#DejaVuSans-20" transform="translate(63.623047 0)"/>
      <use xlink:href="#DejaVuSans-72" transform="translate(95.410156 0)"/>
      <use xlink:href="#DejaVuSans-6f" transform="translate(134.273438 0)"/>
      <use xlink:href="#DejaVuSans-77" transform="translate(195.455078 0)"/>
      <use xlink:href="#DejaVuSans-73" transform="translate(277.242188 0)"/>
      <use xlink:href="#DejaVuSans-3b" transform="translate(329.341797 0)"/>
      <use xlink:href="#DejaVuSans-20" transform="translate(363.033203 0)"/>
      <use xlink:href="#DejaVuSans-31" transform="translate(394.820312 0)"/>
      <use xlink:href="#DejaVuSans-20" transform="translate(458.443359 0)"/>
      <use xlink:href="#DejaVuSans-63" transform="translate(490.230469 0)"/>
      <use xlink:href="#DejaVuSans-6f" transform="translate(545.210938 0)"/>
      <use xlink:href="#DejaVuSans-6c" transform="translate(606.392578 0)"/>
      <use xlink:href="#DejaVuSans-73" transform="translate(634.175781 0)"/>
      <use xlink:href="#DejaVuSans-3b" transform="translate(686.275391 0)"/>
      <use xlink:href="#DejaVuSans-20" transform="translate(719.966797 0)"/>
      <use xlink:href="#DejaVuSans-39" transform="translate(751.753906 0)"/>
      <use xlink:href="#DejaVuSans-31" transform="translate(815.376953 0)"/>
      <use xlink:href="#DejaVuSans-36" transform="translate(879 0)"/>
      <use xlink:href="#DejaVuSans-42" transform="translate(942.623047 0)"/>
     </g>
    </g>
   </g>
   <g id="text_25">
    <g clip-path="url(#p5aee9958a4)">
     <!-- 15 rows; 1 cols; 2KB -->
     <g transform="translate(621.464383 309.1225) scale(0.08 -0.08)">
      <use xlink:href="#DejaVuSans-31"/>
      <use xlink:href="#DejaVuSans-35" transform="translate(63.623047 0)"/>
      <use xlink:href="#DejaVuSans-20" transform="translate(127.246094 0)"/>
      <use xlink:href="#DejaVuSans-72" transform="translate(159.033203 0)"/>
      <use xlink:href="#DejaVuSans-6f" transform="translate(197.896484 0)"/>
      <use xlink:href="#DejaVuSans-77" transform="translate(259.078125 0)"/>
      <use xlink:href="#DejaVuSans-73" transform="translate(340.865234 0)"/>
      <use xlink:href="#DejaVuSans-3b" transform="translate(392.964844 0)"/>
      <use xlink:href="#DejaVuSans-20" transform="translate(426.65625 0)"/>
      <use xlink:href="#DejaVuSans-31" transform="translate(458.443359 0)"/>
      <use xlink:href="#DejaVuSans-20" transform="translate(522.066406 0)"/>
      <use xlink:href="#DejaVuSans-63" transform="translate(553.853516 0)"/>
      <use xlink:href="#DejaVuSans-6f" transform="translate(608.833984 0)"/>
      <use xlink:href="#DejaVuSans-6c" transform="translate(670.015625 0)"/>
      <use xlink:href="#DejaVuSans-73" transform="translate(697.798828 0)"/>
      <use xlink:href="#DejaVuSans-3b" transform="translate(749.898438 0)"/>
      <use xlink:href="#DejaVuSans-20" transform="translate(783.589844 0)"/>
      <use xlink:href="#DejaVuSans-32" transform="translate(815.376953 0)"/>
      <use xlink:href="#DejaVuSans-4b" transform="translate(879 0)"/>
      <use xlink:href="#DejaVuSans-42" transform="translate(944.576172 0)"/>
     </g>
    </g>
   </g>
   <g id="text_26">
    <g clip-path="url(#p5aee9958a4)">
     <!-- 5 rows; 1 cols; 7KB -->
     <g transform="translate(943.285299 639.8725) scale(0.08 -0.08)">
      <use xlink:href="#DejaVuSans-35"/>
      <use xlink:href="#DejaVuSans-20" transform="translate(63.623047 0)"/>
      <use xlink:href="#DejaVuSans-72" transform="translate(95.410156 0)"/>
      <use xlink:href="#DejaVuSans-6f" transform="translate(134.273438 0)"/>
      <use xlink:href="#DejaVuSans-77" transform="translate(195.455078 0)"/>
      <use xlink:href="#DejaVuSans-73" transform="translate(277.242188 0)"/>
      <use xlink:href="#DejaVuSans-3b" transform="translate(329.341797 0)"/>
      <use xlink:href="#DejaVuSans-20" transform="translate(363.033203 0)"/>
      <use xlink:href="#DejaVuSans-31" transform="translate(394.820312 0)"/>
      <use xlink:href="#DejaVuSans-20" transform="translate(458.443359 0)"/>
      <use xlink:href="#DejaVuSans-63" transform="translate(490.230469 0)"/>
      <use xlink:href="#DejaVuSans-6f" transform="translate(545.210938 0)"/>
      <use xlink:href="#DejaVuSans-6c" transform="translate(606.392578 0)"/>
      <use xlink:href="#DejaVuSans-73" transform="translate(634.175781 0)"/>
      <use xlink:href="#DejaVuSans-3b" transform="translate(686.275391 0)"/>
      <use xlink:href="#DejaVuSans-20" transform="translate(719.966797 0)"/>
      <use xlink:href="#DejaVuSans-37" transform="translate(751.753906 0)"/>
      <use xlink:href="#DejaVuSans-4b" transform="translate(815.376953 0)"/>
      <use xlink:href="#DejaVuSans-42" transform="translate(880.953125 0)"/>
     </g>
    </g>
   </g>
   <g id="legend_1">
    <g id="patch_30">
     <path d="M 584.417187 892.12 
L 891.582812 892.12 
Q 893.582812 892.12 893.582812 890.12 
L 893.582812 876.441875 
Q 893.582812 874.441875 891.582812 874.441875 
L 584.417187 874.441875 
Q 582.417187 874.441875 582.417187 876.441875 
L 582.417187 890.12 
Q 582.417187 892.12 584.417187 892.12 
z
" style="fill: #ffffff; opacity: 0.8; stroke: #cccccc; stroke-linejoin: miter"/>
    </g>
    <g id="patch_31">
     <path d="M 586.417187 886.040313 
L 606.417187 886.040313 
L 606.417187 879.040313 
L 586.417187 879.040313 
z
" style="fill: #2ca02c; stroke: #2ca02c; stroke-linejoin: miter"/>
    </g>
    <g id="text_27">
     <!-- sources -->
     <g transform="translate(614.417187 886.040313) scale(0.1 -0.1)">
      <use xlink:href="#DejaVuSans-73"/>
      <use xlink:href="#DejaVuSans-6f" transform="translate(52.099609 0)"/>
      <use xlink:href="#DejaVuSans-75" transform="translate(113.28125 0)"/>
      <use xlink:href="#DejaVuSans-72" transform="translate(176.660156 0)"/>
      <use xlink:href="#DejaVuSans-63" transform="translate(215.523438 0)"/>
      <use xlink:href="#DejaVuSans-65" transform="translate(270.503906 0)"/>
      <use xlink:href="#DejaVuSans-73" transform="translate(332.027344 0)"/>
     </g>
    </g>
    <g id="patch_32">
     <path d="M 672.829687 886.040313 
L 692.829687 886.040313 
L 692.829687 879.040313 
L 672.829687 879.040313 
z
" style="fill: #1f77b4; stroke: #1f77b4; stroke-linejoin: miter"/>
    </g>
    <g id="text_28">
     <!-- transformations -->
     <g transform="translate(700.829687 886.040313) scale(0.1 -0.1)">
      <use xlink:href="#DejaVuSans-74"/>
      <use xlink:href="#DejaVuSans-72" transform="translate(39.208984 0)"/>
      <use xlink:href="#DejaVuSans-61" transform="translate(80.322266 0)"/>
      <use xlink:href="#DejaVuSans-6e" transform="translate(141.601562 0)"/>
      <use xlink:href="#DejaVuSans-73" transform="translate(204.980469 0)"/>
      <use xlink:href="#DejaVuSans-66" transform="translate(257.080078 0)"/>
      <use xlink:href="#DejaVuSans-6f" transform="translate(292.285156 0)"/>
      <use xlink:href="#DejaVuSans-72" transform="translate(353.466797 0)"/>
      <use xlink:href="#DejaVuSans-6d" transform="translate(392.830078 0)"/>
      <use xlink:href="#DejaVuSans-61" transform="translate(490.242188 0)"/>
      <use xlink:href="#DejaVuSans-74" transform="translate(551.521484 0)"/>
      <use xlink:href="#DejaVuSans-69" transform="translate(590.730469 0)"/>
      <use xlink:href="#DejaVuSans-6f" transform="translate(618.513672 0)"/>
      <use xlink:href="#DejaVuSans-6e" transform="translate(679.695312 0)"/>
      <use xlink:href="#DejaVuSans-73" transform="translate(743.074219 0)"/>
     </g>
    </g>
    <g id="patch_33">
     <path d="M 800.34375 886.040313 
L 820.34375 886.040313 
L 820.34375 879.040313 
L 800.34375 879.040313 
z
" style="fill: #d62728; stroke: #d62728; stroke-linejoin: miter"/>
    </g>
    <g id="text_29">
     <!-- destinations -->
     <g transform="translate(828.34375 886.040313) scale(0.1 -0.1)">
      <use xlink:href="#DejaVuSans-64"/>
      <use xlink:href="#DejaVuSans-65" transform="translate(63.476562 0)"/>
      <use xlink:href="#DejaVuSans-73" transform="translate(125 0)"/>
      <use xlink:href="#DejaVuSans-74" transform="translate(177.099609 0)"/>
      <use xlink:href="#DejaVuSans-69" transform="translate(216.308594 0)"/>
      <use xlink:href="#DejaVuSans-6e" transform="translate(244.091797 0)"/>
      <use xlink:href="#DejaVuSans-61" transform="translate(307.470703 0)"/>
      <use xlink:href="#DejaVuSans-74" transform="translate(368.75 0)"/>
      <use xlink:href="#DejaVuSans-69" transform="translate(407.958984 0)"/>
      <use xlink:href="#DejaVuSans-6f" transform="translate(435.742188 0)"/>
      <use xlink:href="#DejaVuSans-6e" transform="translate(496.923828 0)"/>
      <use xlink:href="#DejaVuSans-73" transform="translate(560.302734 0)"/>
     </g>
    </g>
   </g>
  </g>
 </g>
 <defs>
  <clipPath id="p5aee9958a4">
   <rect x="180" y="120.96" width="1116" height="776.16"/>
  </clipPath>
 </defs>
</svg>
