<?xml version="1.0" encoding="utf-8" standalone="no"?>
<!DOCTYPE svg PUBLIC "-//W3C//DTD SVG 1.1//EN"
  "http://www.w3.org/Graphics/SVG/1.1/DTD/svg11.dtd">
<svg xmlns:xlink="http://www.w3.org/1999/xlink" width="1440pt" height="1008pt" viewBox="0 0 1440 1008" xmlns="http://www.w3.org/2000/svg" version="1.1">
 <metadata>
  <rdf:RDF xmlns:dc="http://purl.org/dc/elements/1.1/" xmlns:cc="http://creativecommons.org/ns#" xmlns:rdf="http://www.w3.org/1999/02/22-rdf-syntax-ns#">
   <cc:Work>
    <dc:type rdf:resource="http://purl.org/dc/dcmitype/StillImage"/>
    <dc:date>2024-08-06T19:05:23.860830</dc:date>
    <dc:format>image/svg+xml</dc:format>
    <dc:creator>
     <cc:Agent>
      <dc:title>Matplotlib v3.5.3, https://matplotlib.org/</dc:title>
     </cc:Agent>
    </dc:creator>
   </cc:Work>
  </rdf:RDF>
 </metadata>
 <defs>
  <style type="text/css">*{stroke-linejoin: round; stroke-linecap: butt}</style>
 </defs>
 <g id="figure_1">
  <g id="patch_1">
   <path d="M 0 1008 
L 1440 1008 
L 1440 0 
L 0 0 
z
" style="fill: #ffffff"/>
  </g>
  <g id="axes_1">
   <g id="patch_2">
    <path d="M 180 897.12 
L 1296 897.12 
L 1296 120.96 
L 180 120.96 
z
" style="fill: #ffffff"/>
   </g>
   <g id="patch_3">
    <path d="M 683.545688 639.63955 
Q 785.201518 619.289564 885.761064 599.159039 
" clip-path="url(#p9fe0e2f666)" style="fill: none; stroke: #000000; stroke-linecap: round"/>
    <path d="M 877.131536 596.807181 
L 885.761064 599.159039 
L 878.701861 604.651547 
L 877.131536 596.807181 
z
" clip-path="url(#p9fe0e2f666)" style="stroke: #000000; stroke-linecap: round"/>
   </g>
   <g id="patch_4">
    <path d="M 429.612353 464.94 
Q 548.000617 464.94 665.270847 464.94 
" clip-path="url(#p9fe0e2f666)" style="fill: none; stroke: #000000; stroke-linecap: round"/>
    <path d="M 657.270847 460.94 
L 665.270847 464.94 
L 657.270847 468.94 
L 657.270847 460.94 
z
" clip-path="url(#p9fe0e2f666)" style="stroke: #000000; stroke-linecap: round"/>
   </g>
   <g id="patch_5">
    <path d="M 429.612353 376.74 
Q 548.000617 376.74 665.270847 376.74 
" clip-path="url(#p9fe0e2f666)" style="fill: none; stroke: #000000; stroke-linecap: round"/>
    <path d="M 657.270847 372.74 
L 665.270847 376.74 
L 657.270847 380.74 
L 657.270847 372.74 
z
" clip-path="url(#p9fe0e2f666)" style="stroke: #000000; stroke-linecap: round"/>
   </g>
   <g id="patch_6">
    <path d="M 429.612353 288.54 
Q 548.000617 288.54 665.270847 288.54 
" clip-path="url(#p9fe0e2f666)" style="fill: none; stroke: #000000; stroke-linecap: round"/>
    <path d="M 657.270847 284.54 
L 665.270847 288.54 
L 657.270847 292.54 
L 657.270847 284.54 
z
" clip-path="url(#p9fe0e2f666)" style="stroke: #000000; stroke-linecap: round"/>
   </g>
   <g id="patch_7">
    <path d="M 428.635296 601.23912 
Q 548.002448 663.389753 666.377933 725.024057 
" clip-path="url(#p9fe0e2f666)" style="fill: none; stroke: #000000; stroke-linecap: round"/>
    <path d="M 661.129414 717.781608 
L 666.377933 725.024057 
L 657.434863 724.877402 
L 661.129414 717.781608 
z
" clip-path="url(#p9fe0e2f666)" style="stroke: #000000; stroke-linecap: round"/>
   </g>
   <g id="patch_8">
    <path d="M 429.488282 595.758919 
Q 548.003838 575.189841 665.417827 554.811946 
" clip-path="url(#p9fe0e2f666)" style="fill: none; stroke: #000000; stroke-linecap: round"/>
    <path d="M 656.85166 552.238859 
L 665.417827 554.811946 
L 658.219657 560.121028 
L 656.85166 552.238859 
z
" clip-path="url(#p9fe0e2f666)" style="stroke: #000000; stroke-linecap: round"/>
   </g>
   <g id="patch_9">
    <path d="M 429.612353 729.54 
Q 548.000617 729.54 665.270847 729.54 
" clip-path="url(#p9fe0e2f666)" style="fill: none; stroke: #000000; stroke-linecap: round"/>
    <path d="M 657.270847 725.54 
L 665.270847 729.54 
L 657.270847 733.54 
L 657.270847 725.54 
z
" clip-path="url(#p9fe0e2f666)" style="stroke: #000000; stroke-linecap: round"/>
   </g>
   <g id="patch_10">
    <path d="M 683.71376 729.54 
Q 785.201732 729.54 885.57167 729.54 
" clip-path="url(#p9fe0e2f666)" style="fill: none; stroke: #000000; stroke-linecap: round"/>
    <path d="M 877.57167 725.54 
L 885.57167 729.54 
L 877.57167 733.54 
L 877.57167 725.54 
z
" clip-path="url(#p9fe0e2f666)" style="stroke: #000000; stroke-linecap: round"/>
   </g>
   <g id="patch_11">
    <path d="M 683.545688 554.84045 
Q 785.201518 575.190436 885.761064 595.320961 
" clip-path="url(#p9fe0e2f666)" style="fill: none; stroke: #000000; stroke-linecap: round"/>
    <path d="M 878.701861 589.828453 
L 885.761064 595.320961 
L 877.131536 597.672819 
L 878.701861 589.828453 
z
" clip-path="url(#p9fe0e2f666)" style="stroke: #000000; stroke-linecap: round"/>
   </g>
   <g id="patch_12">
    <path d="M 904.007769 597.24 
Q 975.19617 597.24 1045.266538 597.24 
" clip-path="url(#p9fe0e2f666)" style="fill: none; stroke: #000000; stroke-linecap: round"/>
    <path d="M 1037.266538 593.24 
L 1045.266538 597.24 
L 1037.266538 601.24 
L 1037.266538 593.24 
z
" clip-path="url(#p9fe0e2f666)" style="stroke: #000000; stroke-linecap: round"/>
   </g>
   <g id="matplotlib.axis_1">
    <g id="xtick_1"/>
    <g id="xtick_2"/>
    <g id="xtick_3"/>
    <g id="xtick_4"/>
    <g id="xtick_5"/>
   </g>
   <g id="matplotlib.axis_2">
    <g id="ytick_1"/>
    <g id="ytick_2"/>
    <g id="ytick_3"/>
    <g id="ytick_4"/>
   </g>
   <g id="PathCollection_1">
    <defs>
     <path id="m7fa8b7b7f1" d="M 0 8.660254 
C 2.296726 8.660254 4.499694 7.747755 6.123724 6.123724 
C 7.747755 4.499694 8.660254 2.296726 8.660254 0 
C 8.660254 -2.296726 7.747755 -4.499694 6.123724 -6.123724 
C 4.499694 -7.747755 2.296726 -8.660254 0 -8.660254 
C -2.296726 -8.660254 -4.499694 -7.747755 -6.123724 -6.123724 
C -7.747755 -4.499694 -8.660254 -2.296726 -8.660254 0 
C -8.660254 2.296726 -7.747755 4.499694 -6.123724 6.123724 
C -4.499694 7.747755 -2.296726 8.660254 0 8.660254 
z
" style="stroke: #2ca02c"/>
    </defs>
    <g clip-path="url(#p9fe0e2f666)">
     <use xlink:href="#m7fa8b7b7f1" x="675.0513" y="641.34" style="fill: #2ca02c; stroke: #2ca02c"/>
     <use xlink:href="#m7fa8b7b7f1" x="420.954545" y="464.94" style="fill: #2ca02c; stroke: #2ca02c"/>
     <use xlink:href="#m7fa8b7b7f1" x="420.954545" y="376.74" style="fill: #2ca02c; stroke: #2ca02c"/>
     <use xlink:href="#m7fa8b7b7f1" x="420.954545" y="288.54" style="fill: #2ca02c; stroke: #2ca02c"/>
     <use xlink:href="#m7fa8b7b7f1" x="420.954545" y="597.24" style="fill: #2ca02c; stroke: #2ca02c"/>
     <use xlink:href="#m7fa8b7b7f1" x="420.954545" y="729.54" style="fill: #2ca02c; stroke: #2ca02c"/>
    </g>
   </g>
   <g id="PathCollection_2">
    <defs>
     <path id="m0bc2cb02ec" d="M 0 8.660254 
C 2.296726 8.660254 4.499694 7.747755 6.123724 6.123724 
C 7.747755 4.499694 8.660254 2.296726 8.660254 0 
C 8.660254 -2.296726 7.747755 -4.499694 6.123724 -6.123724 
C 4.499694 -7.747755 2.296726 -8.660254 0 -8.660254 
C -2.296726 -8.660254 -4.499694 -7.747755 -6.123724 -6.123724 
C -7.747755 -4.499694 -8.660254 -2.296726 -8.660254 0 
C -8.660254 2.296726 -7.747755 4.499694 -6.123724 6.123724 
C -4.499694 7.747755 -2.296726 8.660254 0 8.660254 
z
" style="stroke: #1f77b4"/>
    </defs>
    <g clip-path="url(#p9fe0e2f666)">
     <use xlink:href="#m0bc2cb02ec" x="675.0513" y="729.54" style="fill: #1f77b4; stroke: #1f77b4"/>
     <use xlink:href="#m0bc2cb02ec" x="675.0513" y="553.14" style="fill: #1f77b4; stroke: #1f77b4"/>
     <use xlink:href="#m0bc2cb02ec" x="895.347385" y="597.24" style="fill: #1f77b4; stroke: #1f77b4"/>
    </g>
   </g>
   <g id="PathCollection_3">
    <defs>
     <path id="mcebb8f8438" d="M 0 8.660254 
C 2.296726 8.660254 4.499694 7.747755 6.123724 6.123724 
C 7.747755 4.499694 8.660254 2.296726 8.660254 0 
C 8.660254 -2.296726 7.747755 -4.499694 6.123724 -6.123724 
C 4.499694 -7.747755 2.296726 -8.660254 0 -8.660254 
C -2.296726 -8.660254 -4.499694 -7.747755 -6.123724 -6.123724 
C -7.747755 -4.499694 -8.660254 -2.296726 -8.660254 0 
C -8.660254 2.296726 -7.747755 4.499694 -6.123724 6.123724 
C -4.499694 7.747755 -2.296726 8.660254 0 8.660254 
z
" style="stroke: #d62728"/>
    </defs>
    <g clip-path="url(#p9fe0e2f666)">
     <use xlink:href="#mcebb8f8438" x="1055.045455" y="597.24" style="fill: #d62728; stroke: #d62728"/>
     <use xlink:href="#mcebb8f8438" x="675.0513" y="464.94" style="fill: #d62728; stroke: #d62728"/>
     <use xlink:href="#mcebb8f8438" x="675.0513" y="288.54" style="fill: #d62728; stroke: #d62728"/>
     <use xlink:href="#mcebb8f8438" x="675.0513" y="376.74" style="fill: #d62728; stroke: #d62728"/>
     <use xlink:href="#mcebb8f8438" x="895.347385" y="729.54" style="fill: #d62728; stroke: #d62728"/>
    </g>
   </g>
   <g id="patch_13">
    <path d="M 180 897.12 
L 180 120.96 
" style="fill: none; stroke: #000000; stroke-width: 0.8; stroke-linejoin: miter; stroke-linecap: square"/>
   </g>
   <g id="patch_14">
    <path d="M 1296 897.12 
L 1296 120.96 
" style="fill: none; stroke: #000000; stroke-width: 0.8; stroke-linejoin: miter; stroke-linecap: square"/>
   </g>
   <g id="patch_15">
    <path d="M 180 897.12 
L 1296 897.12 
" style="fill: none; stroke: #000000; stroke-width: 0.8; stroke-linejoin: miter; stroke-linecap: square"/>
   </g>
   <g id="patch_16">
    <path d="M 180 120.96 
L 1296 120.96 
" style="fill: none; stroke: #000000; stroke-width: 0.8; stroke-linejoin: miter; stroke-linecap: square"/>
   </g>
   <g id="text_1">
    <g id="patch_17">
     <path d="M 585.60898 650.746875 
L 662.984605 650.746875 
Q 666.584605 650.746875 666.584605 647.146875 
L 666.584605 635.533125 
Q 666.584605 631.933125 662.984605 631.933125 
L 585.60898 631.933125 
Q 582.00898 631.933125 582.00898 635.533125 
L 582.00898 647.146875 
Q 582.00898 650.746875 585.60898 650.746875 
z
" clip-path="url(#p9fe0e2f666)" style="fill: #2ca02c; stroke: #000000; stroke-linejoin: miter"/>
    </g>
    <g clip-path="url(#p9fe0e2f666)">
     <!-- assessments -->
     <g style="fill: #f5f5f5" transform="translate(585.60898 644.65125)scale(0.12 -0.12)">
      <defs>
       <path id="DejaVuSans-61" d="M 2194 1759 
Q 1497 1759 1228 1600 
Q 959 1441 959 1056 
Q 959 750 1161 570 
Q 1363 391 1709 391 
Q 2188 391 2477 730 
Q 2766 1069 2766 1631 
L 2766 1759 
L 2194 1759 
z
M 3341 1997 
L 3341 0 
L 2766 0 
L 2766 531 
Q 2569 213 2275 61 
Q 1981 -91 1556 -91 
Q 1019 -91 701 211 
Q 384 513 384 1019 
Q 384 1609 779 1909 
Q 1175 2209 1959 2209 
L 2766 2209 
L 2766 2266 
Q 2766 2663 2505 2880 
Q 2244 3097 1772 3097 
Q 1472 3097 1187 3025 
Q 903 2953 641 2809 
L 641 3341 
Q 956 3463 1253 3523 
Q 1550 3584 1831 3584 
Q 2591 3584 2966 3190 
Q 3341 2797 3341 1997 
z
" transform="scale(0.015625)"/>
       <path id="DejaVuSans-73" d="M 2834 3397 
L 2834 2853 
Q 2591 2978 2328 3040 
Q 2066 3103 1784 3103 
Q 1356 3103 1142 2972 
Q 928 2841 928 2578 
Q 928 2378 1081 2264 
Q 1234 2150 1697 2047 
L 1894 2003 
Q 2506 1872 2764 1633 
Q 3022 1394 3022 966 
Q 3022 478 2636 193 
Q 2250 -91 1575 -91 
Q 1294 -91 989 -36 
Q 684 19 347 128 
L 347 722 
Q 666 556 975 473 
Q 1284 391 1588 391 
Q 1994 391 2212 530 
Q 2431 669 2431 922 
Q 2431 1156 2273 1281 
Q 2116 1406 1581 1522 
L 1381 1569 
Q 847 1681 609 1914 
Q 372 2147 372 2553 
Q 372 3047 722 3315 
Q 1072 3584 1716 3584 
Q 2034 3584 2315 3537 
Q 2597 3491 2834 3397 
z
" transform="scale(0.015625)"/>
       <path id="DejaVuSans-65" d="M 3597 1894 
L 3597 1613 
L 953 1613 
Q 991 1019 1311 708 
Q 1631 397 2203 397 
Q 2534 397 2845 478 
Q 3156 559 3463 722 
L 3463 178 
Q 3153 47 2828 -22 
Q 2503 -91 2169 -91 
Q 1331 -91 842 396 
Q 353 884 353 1716 
Q 353 2575 817 3079 
Q 1281 3584 2069 3584 
Q 2775 3584 3186 3129 
Q 3597 2675 3597 1894 
z
M 3022 2063 
Q 3016 2534 2758 2815 
Q 2500 3097 2075 3097 
Q 1594 3097 1305 2825 
Q 1016 2553 972 2059 
L 3022 2063 
z
" transform="scale(0.015625)"/>
       <path id="DejaVuSans-6d" d="M 3328 2828 
Q 3544 3216 3844 3400 
Q 4144 3584 4550 3584 
Q 5097 3584 5394 3201 
Q 5691 2819 5691 2113 
L 5691 0 
L 5113 0 
L 5113 2094 
Q 5113 2597 4934 2840 
Q 4756 3084 4391 3084 
Q 3944 3084 3684 2787 
Q 3425 2491 3425 1978 
L 3425 0 
L 2847 0 
L 2847 2094 
Q 2847 2600 2669 2842 
Q 2491 3084 2119 3084 
Q 1678 3084 1418 2786 
Q 1159 2488 1159 1978 
L 1159 0 
L 581 0 
L 581 3500 
L 1159 3500 
L 1159 2956 
Q 1356 3278 1631 3431 
Q 1906 3584 2284 3584 
Q 2666 3584 2933 3390 
Q 3200 3197 3328 2828 
z
" transform="scale(0.015625)"/>
       <path id="DejaVuSans-6e" d="M 3513 2113 
L 3513 0 
L 2938 0 
L 2938 2094 
Q 2938 2591 2744 2837 
Q 2550 3084 2163 3084 
Q 1697 3084 1428 2787 
Q 1159 2491 1159 1978 
L 1159 0 
L 581 0 
L 581 3500 
L 1159 3500 
L 1159 2956 
Q 1366 3272 1645 3428 
Q 1925 3584 2291 3584 
Q 2894 3584 3203 3211 
Q 3513 2838 3513 2113 
z
" transform="scale(0.015625)"/>
       <path id="DejaVuSans-74" d="M 1172 4494 
L 1172 3500 
L 2356 3500 
L 2356 3053 
L 1172 3053 
L 1172 1153 
Q 1172 725 1289 603 
Q 1406 481 1766 481 
L 2356 481 
L 2356 0 
L 1766 0 
Q 1100 0 847 248 
Q 594 497 594 1153 
L 594 3053 
L 172 3053 
L 172 3500 
L 594 3500 
L 594 4494 
L 1172 4494 
z
" transform="scale(0.015625)"/>
      </defs>
      <use xlink:href="#DejaVuSans-61"/>
      <use xlink:href="#DejaVuSans-73" x="61.279297"/>
      <use xlink:href="#DejaVuSans-73" x="113.378906"/>
      <use xlink:href="#DejaVuSans-65" x="165.478516"/>
      <use xlink:href="#DejaVuSans-73" x="227.001953"/>
      <use xlink:href="#DejaVuSans-73" x="279.101562"/>
      <use xlink:href="#DejaVuSans-6d" x="331.201172"/>
      <use xlink:href="#DejaVuSans-65" x="428.613281"/>
      <use xlink:href="#DejaVuSans-6e" x="490.136719"/>
      <use xlink:href="#DejaVuSans-74" x="553.515625"/>
      <use xlink:href="#DejaVuSans-73" x="592.724609"/>
     </g>
    </g>
   </g>
   <g id="text_2">
    <g id="patch_18">
     <path d="M 165.829725 474.346875 
L 408.88785 474.346875 
Q 412.48785 474.346875 412.48785 470.746875 
L 412.48785 459.133125 
Q 412.48785 455.533125 408.88785 455.533125 
L 165.829725 455.533125 
Q 162.229725 455.533125 162.229725 459.133125 
L 162.229725 470.746875 
Q 162.229725 474.346875 165.829725 474.346875 
z
" clip-path="url(#p9fe0e2f666)" style="fill: #2ca02c; stroke: #000000; stroke-linejoin: miter"/>
    </g>
    <g clip-path="url(#p9fe0e2f666)">
     <!-- assessmentReportingMethodDescriptors -->
     <g style="fill: #f5f5f5" transform="translate(165.829725 468.25125)scale(0.12 -0.12)">
      <defs>
       <path id="DejaVuSans-52" d="M 2841 2188 
Q 3044 2119 3236 1894 
Q 3428 1669 3622 1275 
L 4263 0 
L 3584 0 
L 2988 1197 
Q 2756 1666 2539 1819 
Q 2322 1972 1947 1972 
L 1259 1972 
L 1259 0 
L 628 0 
L 628 4666 
L 2053 4666 
Q 2853 4666 3247 4331 
Q 3641 3997 3641 3322 
Q 3641 2881 3436 2590 
Q 3231 2300 2841 2188 
z
M 1259 4147 
L 1259 2491 
L 2053 2491 
Q 2509 2491 2742 2702 
Q 2975 2913 2975 3322 
Q 2975 3731 2742 3939 
Q 2509 4147 2053 4147 
L 1259 4147 
z
" transform="scale(0.015625)"/>
       <path id="DejaVuSans-70" d="M 1159 525 
L 1159 -1331 
L 581 -1331 
L 581 3500 
L 1159 3500 
L 1159 2969 
Q 1341 3281 1617 3432 
Q 1894 3584 2278 3584 
Q 2916 3584 3314 3078 
Q 3713 2572 3713 1747 
Q 3713 922 3314 415 
Q 2916 -91 2278 -91 
Q 1894 -91 1617 61 
Q 1341 213 1159 525 
z
M 3116 1747 
Q 3116 2381 2855 2742 
Q 2594 3103 2138 3103 
Q 1681 3103 1420 2742 
Q 1159 2381 1159 1747 
Q 1159 1113 1420 752 
Q 1681 391 2138 391 
Q 2594 391 2855 752 
Q 3116 1113 3116 1747 
z
" transform="scale(0.015625)"/>
       <path id="DejaVuSans-6f" d="M 1959 3097 
Q 1497 3097 1228 2736 
Q 959 2375 959 1747 
Q 959 1119 1226 758 
Q 1494 397 1959 397 
Q 2419 397 2687 759 
Q 2956 1122 2956 1747 
Q 2956 2369 2687 2733 
Q 2419 3097 1959 3097 
z
M 1959 3584 
Q 2709 3584 3137 3096 
Q 3566 2609 3566 1747 
Q 3566 888 3137 398 
Q 2709 -91 1959 -91 
Q 1206 -91 779 398 
Q 353 888 353 1747 
Q 353 2609 779 3096 
Q 1206 3584 1959 3584 
z
" transform="scale(0.015625)"/>
       <path id="DejaVuSans-72" d="M 2631 2963 
Q 2534 3019 2420 3045 
Q 2306 3072 2169 3072 
Q 1681 3072 1420 2755 
Q 1159 2438 1159 1844 
L 1159 0 
L 581 0 
L 581 3500 
L 1159 3500 
L 1159 2956 
Q 1341 3275 1631 3429 
Q 1922 3584 2338 3584 
Q 2397 3584 2469 3576 
Q 2541 3569 2628 3553 
L 2631 2963 
z
" transform="scale(0.015625)"/>
       <path id="DejaVuSans-69" d="M 603 3500 
L 1178 3500 
L 1178 0 
L 603 0 
L 603 3500 
z
M 603 4863 
L 1178 4863 
L 1178 4134 
L 603 4134 
L 603 4863 
z
" transform="scale(0.015625)"/>
       <path id="DejaVuSans-67" d="M 2906 1791 
Q 2906 2416 2648 2759 
Q 2391 3103 1925 3103 
Q 1463 3103 1205 2759 
Q 947 2416 947 1791 
Q 947 1169 1205 825 
Q 1463 481 1925 481 
Q 2391 481 2648 825 
Q 2906 1169 2906 1791 
z
M 3481 434 
Q 3481 -459 3084 -895 
Q 2688 -1331 1869 -1331 
Q 1566 -1331 1297 -1286 
Q 1028 -1241 775 -1147 
L 775 -588 
Q 1028 -725 1275 -790 
Q 1522 -856 1778 -856 
Q 2344 -856 2625 -561 
Q 2906 -266 2906 331 
L 2906 616 
Q 2728 306 2450 153 
Q 2172 0 1784 0 
Q 1141 0 747 490 
Q 353 981 353 1791 
Q 353 2603 747 3093 
Q 1141 3584 1784 3584 
Q 2172 3584 2450 3431 
Q 2728 3278 2906 2969 
L 2906 3500 
L 3481 3500 
L 3481 434 
z
" transform="scale(0.015625)"/>
       <path id="DejaVuSans-4d" d="M 628 4666 
L 1569 4666 
L 2759 1491 
L 3956 4666 
L 4897 4666 
L 4897 0 
L 4281 0 
L 4281 4097 
L 3078 897 
L 2444 897 
L 1241 4097 
L 1241 0 
L 628 0 
L 628 4666 
z
" transform="scale(0.015625)"/>
       <path id="DejaVuSans-68" d="M 3513 2113 
L 3513 0 
L 2938 0 
L 2938 2094 
Q 2938 2591 2744 2837 
Q 2550 3084 2163 3084 
Q 1697 3084 1428 2787 
Q 1159 2491 1159 1978 
L 1159 0 
L 581 0 
L 581 4863 
L 1159 4863 
L 1159 2956 
Q 1366 3272 1645 3428 
Q 1925 3584 2291 3584 
Q 2894 3584 3203 3211 
Q 3513 2838 3513 2113 
z
" transform="scale(0.015625)"/>
       <path id="DejaVuSans-64" d="M 2906 2969 
L 2906 4863 
L 3481 4863 
L 3481 0 
L 2906 0 
L 2906 525 
Q 2725 213 2448 61 
Q 2172 -91 1784 -91 
Q 1150 -91 751 415 
Q 353 922 353 1747 
Q 353 2572 751 3078 
Q 1150 3584 1784 3584 
Q 2172 3584 2448 3432 
Q 2725 3281 2906 2969 
z
M 947 1747 
Q 947 1113 1208 752 
Q 1469 391 1925 391 
Q 2381 391 2643 752 
Q 2906 1113 2906 1747 
Q 2906 2381 2643 2742 
Q 2381 3103 1925 3103 
Q 1469 3103 1208 2742 
Q 947 2381 947 1747 
z
" transform="scale(0.015625)"/>
       <path id="DejaVuSans-44" d="M 1259 4147 
L 1259 519 
L 2022 519 
Q 2988 519 3436 956 
Q 3884 1394 3884 2338 
Q 3884 3275 3436 3711 
Q 2988 4147 2022 4147 
L 1259 4147 
z
M 628 4666 
L 1925 4666 
Q 3281 4666 3915 4102 
Q 4550 3538 4550 2338 
Q 4550 1131 3912 565 
Q 3275 0 1925 0 
L 628 0 
L 628 4666 
z
" transform="scale(0.015625)"/>
       <path id="DejaVuSans-63" d="M 3122 3366 
L 3122 2828 
Q 2878 2963 2633 3030 
Q 2388 3097 2138 3097 
Q 1578 3097 1268 2742 
Q 959 2388 959 1747 
Q 959 1106 1268 751 
Q 1578 397 2138 397 
Q 2388 397 2633 464 
Q 2878 531 3122 666 
L 3122 134 
Q 2881 22 2623 -34 
Q 2366 -91 2075 -91 
Q 1284 -91 818 406 
Q 353 903 353 1747 
Q 353 2603 823 3093 
Q 1294 3584 2113 3584 
Q 2378 3584 2631 3529 
Q 2884 3475 3122 3366 
z
" transform="scale(0.015625)"/>
      </defs>
      <use xlink:href="#DejaVuSans-61"/>
      <use xlink:href="#DejaVuSans-73" x="61.279297"/>
      <use xlink:href="#DejaVuSans-73" x="113.378906"/>
      <use xlink:href="#DejaVuSans-65" x="165.478516"/>
      <use xlink:href="#DejaVuSans-73" x="227.001953"/>
      <use xlink:href="#DejaVuSans-73" x="279.101562"/>
      <use xlink:href="#DejaVuSans-6d" x="331.201172"/>
      <use xlink:href="#DejaVuSans-65" x="428.613281"/>
      <use xlink:href="#DejaVuSans-6e" x="490.136719"/>
      <use xlink:href="#DejaVuSans-74" x="553.515625"/>
      <use xlink:href="#DejaVuSans-52" x="592.724609"/>
      <use xlink:href="#DejaVuSans-65" x="657.707031"/>
      <use xlink:href="#DejaVuSans-70" x="719.230469"/>
      <use xlink:href="#DejaVuSans-6f" x="782.707031"/>
      <use xlink:href="#DejaVuSans-72" x="843.888672"/>
      <use xlink:href="#DejaVuSans-74" x="885.001953"/>
      <use xlink:href="#DejaVuSans-69" x="924.210938"/>
      <use xlink:href="#DejaVuSans-6e" x="951.994141"/>
      <use xlink:href="#DejaVuSans-67" x="1015.373047"/>
      <use xlink:href="#DejaVuSans-4d" x="1078.849609"/>
      <use xlink:href="#DejaVuSans-65" x="1165.128906"/>
      <use xlink:href="#DejaVuSans-74" x="1226.652344"/>
      <use xlink:href="#DejaVuSans-68" x="1265.861328"/>
      <use xlink:href="#DejaVuSans-6f" x="1329.240234"/>
      <use xlink:href="#DejaVuSans-64" x="1390.421875"/>
      <use xlink:href="#DejaVuSans-44" x="1453.898438"/>
      <use xlink:href="#DejaVuSans-65" x="1530.900391"/>
      <use xlink:href="#DejaVuSans-73" x="1592.423828"/>
      <use xlink:href="#DejaVuSans-63" x="1644.523438"/>
      <use xlink:href="#DejaVuSans-72" x="1699.503906"/>
      <use xlink:href="#DejaVuSans-69" x="1740.617188"/>
      <use xlink:href="#DejaVuSans-70" x="1768.400391"/>
      <use xlink:href="#DejaVuSans-74" x="1831.876953"/>
      <use xlink:href="#DejaVuSans-6f" x="1871.085938"/>
      <use xlink:href="#DejaVuSans-72" x="1932.267578"/>
      <use xlink:href="#DejaVuSans-73" x="1973.380859"/>
     </g>
    </g>
   </g>
   <g id="text_3">
    <g id="patch_19">
     <path d="M 275.8566 386.146875 
L 408.88785 386.146875 
Q 412.48785 386.146875 412.48785 382.546875 
L 412.48785 370.933125 
Q 412.48785 367.333125 408.88785 367.333125 
L 275.8566 367.333125 
Q 272.2566 367.333125 272.2566 370.933125 
L 272.2566 382.546875 
Q 272.2566 386.146875 275.8566 386.146875 
z
" clip-path="url(#p9fe0e2f666)" style="fill: #2ca02c; stroke: #000000; stroke-linejoin: miter"/>
    </g>
    <g clip-path="url(#p9fe0e2f666)">
     <!-- objectiveAssessments -->
     <g style="fill: #f5f5f5" transform="translate(275.8566 380.05125)scale(0.12 -0.12)">
      <defs>
       <path id="DejaVuSans-62" d="M 3116 1747 
Q 3116 2381 2855 2742 
Q 2594 3103 2138 3103 
Q 1681 3103 1420 2742 
Q 1159 2381 1159 1747 
Q 1159 1113 1420 752 
Q 1681 391 2138 391 
Q 2594 391 2855 752 
Q 3116 1113 3116 1747 
z
M 1159 2969 
Q 1341 3281 1617 3432 
Q 1894 3584 2278 3584 
Q 2916 3584 3314 3078 
Q 3713 2572 3713 1747 
Q 3713 922 3314 415 
Q 2916 -91 2278 -91 
Q 1894 -91 1617 61 
Q 1341 213 1159 525 
L 1159 0 
L 581 0 
L 581 4863 
L 1159 4863 
L 1159 2969 
z
" transform="scale(0.015625)"/>
       <path id="DejaVuSans-6a" d="M 603 3500 
L 1178 3500 
L 1178 -63 
Q 1178 -731 923 -1031 
Q 669 -1331 103 -1331 
L -116 -1331 
L -116 -844 
L 38 -844 
Q 366 -844 484 -692 
Q 603 -541 603 -63 
L 603 3500 
z
M 603 4863 
L 1178 4863 
L 1178 4134 
L 603 4134 
L 603 4863 
z
" transform="scale(0.015625)"/>
       <path id="DejaVuSans-76" d="M 191 3500 
L 800 3500 
L 1894 563 
L 2988 3500 
L 3597 3500 
L 2284 0 
L 1503 0 
L 191 3500 
z
" transform="scale(0.015625)"/>
       <path id="DejaVuSans-41" d="M 2188 4044 
L 1331 1722 
L 3047 1722 
L 2188 4044 
z
M 1831 4666 
L 2547 4666 
L 4325 0 
L 3669 0 
L 3244 1197 
L 1141 1197 
L 716 0 
L 50 0 
L 1831 4666 
z
" transform="scale(0.015625)"/>
      </defs>
      <use xlink:href="#DejaVuSans-6f"/>
      <use xlink:href="#DejaVuSans-62" x="61.181641"/>
      <use xlink:href="#DejaVuSans-6a" x="124.658203"/>
      <use xlink:href="#DejaVuSans-65" x="152.441406"/>
      <use xlink:href="#DejaVuSans-63" x="213.964844"/>
      <use xlink:href="#DejaVuSans-74" x="268.945312"/>
      <use xlink:href="#DejaVuSans-69" x="308.154297"/>
      <use xlink:href="#DejaVuSans-76" x="335.9375"/>
      <use xlink:href="#DejaVuSans-65" x="395.117188"/>
      <use xlink:href="#DejaVuSans-41" x="456.640625"/>
      <use xlink:href="#DejaVuSans-73" x="525.048828"/>
      <use xlink:href="#DejaVuSans-73" x="577.148438"/>
      <use xlink:href="#DejaVuSans-65" x="629.248047"/>
      <use xlink:href="#DejaVuSans-73" x="690.771484"/>
      <use xlink:href="#DejaVuSans-73" x="742.871094"/>
      <use xlink:href="#DejaVuSans-6d" x="794.970703"/>
      <use xlink:href="#DejaVuSans-65" x="892.382812"/>
      <use xlink:href="#DejaVuSans-6e" x="953.90625"/>
      <use xlink:href="#DejaVuSans-74" x="1017.285156"/>
      <use xlink:href="#DejaVuSans-73" x="1056.494141"/>
     </g>
    </g>
   </g>
   <g id="text_4">
    <g id="patch_20">
     <path d="M 231.7641 297.946875 
L 408.88785 297.946875 
Q 412.48785 297.946875 412.48785 294.346875 
L 412.48785 282.733125 
Q 412.48785 279.133125 408.88785 279.133125 
L 231.7641 279.133125 
Q 228.1641 279.133125 228.1641 282.733125 
L 228.1641 294.346875 
Q 228.1641 297.946875 231.7641 297.946875 
z
" clip-path="url(#p9fe0e2f666)" style="fill: #2ca02c; stroke: #000000; stroke-linejoin: miter"/>
    </g>
    <g clip-path="url(#p9fe0e2f666)">
     <!-- performanceLevelDescriptors -->
     <g style="fill: #f5f5f5" transform="translate(231.7641 291.85125)scale(0.12 -0.12)">
      <defs>
       <path id="DejaVuSans-66" d="M 2375 4863 
L 2375 4384 
L 1825 4384 
Q 1516 4384 1395 4259 
Q 1275 4134 1275 3809 
L 1275 3500 
L 2222 3500 
L 2222 3053 
L 1275 3053 
L 1275 0 
L 697 0 
L 697 3053 
L 147 3053 
L 147 3500 
L 697 3500 
L 697 3744 
Q 697 4328 969 4595 
Q 1241 4863 1831 4863 
L 2375 4863 
z
" transform="scale(0.015625)"/>
       <path id="DejaVuSans-4c" d="M 628 4666 
L 1259 4666 
L 1259 531 
L 3531 531 
L 3531 0 
L 628 0 
L 628 4666 
z
" transform="scale(0.015625)"/>
       <path id="DejaVuSans-6c" d="M 603 4863 
L 1178 4863 
L 1178 0 
L 603 0 
L 603 4863 
z
" transform="scale(0.015625)"/>
      </defs>
      <use xlink:href="#DejaVuSans-70"/>
      <use xlink:href="#DejaVuSans-65" x="63.476562"/>
      <use xlink:href="#DejaVuSans-72" x="125"/>
      <use xlink:href="#DejaVuSans-66" x="166.113281"/>
      <use xlink:href="#DejaVuSans-6f" x="201.318359"/>
      <use xlink:href="#DejaVuSans-72" x="262.5"/>
      <use xlink:href="#DejaVuSans-6d" x="301.863281"/>
      <use xlink:href="#DejaVuSans-61" x="399.275391"/>
      <use xlink:href="#DejaVuSans-6e" x="460.554688"/>
      <use xlink:href="#DejaVuSans-63" x="523.933594"/>
      <use xlink:href="#DejaVuSans-65" x="578.914062"/>
      <use xlink:href="#DejaVuSans-4c" x="640.4375"/>
      <use xlink:href="#DejaVuSans-65" x="694.400391"/>
      <use xlink:href="#DejaVuSans-76" x="755.923828"/>
      <use xlink:href="#DejaVuSans-65" x="815.103516"/>
      <use xlink:href="#DejaVuSans-6c" x="876.626953"/>
      <use xlink:href="#DejaVuSans-44" x="904.410156"/>
      <use xlink:href="#DejaVuSans-65" x="981.412109"/>
      <use xlink:href="#DejaVuSans-73" x="1042.935547"/>
      <use xlink:href="#DejaVuSans-63" x="1095.035156"/>
      <use xlink:href="#DejaVuSans-72" x="1150.015625"/>
      <use xlink:href="#DejaVuSans-69" x="1191.128906"/>
      <use xlink:href="#DejaVuSans-70" x="1218.912109"/>
      <use xlink:href="#DejaVuSans-74" x="1282.388672"/>
      <use xlink:href="#DejaVuSans-6f" x="1321.597656"/>
      <use xlink:href="#DejaVuSans-72" x="1382.779297"/>
      <use xlink:href="#DejaVuSans-73" x="1423.892578"/>
     </g>
    </g>
   </g>
   <g id="text_5">
    <g id="patch_21">
     <path d="M 273.7116 606.646875 
L 408.88785 606.646875 
Q 412.48785 606.646875 412.48785 603.046875 
L 412.48785 591.433125 
Q 412.48785 587.833125 408.88785 587.833125 
L 273.7116 587.833125 
Q 270.1116 587.833125 270.1116 591.433125 
L 270.1116 603.046875 
Q 270.1116 606.646875 273.7116 606.646875 
z
" clip-path="url(#p9fe0e2f666)" style="fill: #2ca02c; stroke: #000000; stroke-linejoin: miter"/>
    </g>
    <g clip-path="url(#p9fe0e2f666)">
     <!-- gradeLevelDescriptors -->
     <g style="fill: #f5f5f5" transform="translate(273.7116 600.55125)scale(0.12 -0.12)">
      <use xlink:href="#DejaVuSans-67"/>
      <use xlink:href="#DejaVuSans-72" x="63.476562"/>
      <use xlink:href="#DejaVuSans-61" x="104.589844"/>
      <use xlink:href="#DejaVuSans-64" x="165.869141"/>
      <use xlink:href="#DejaVuSans-65" x="229.345703"/>
      <use xlink:href="#DejaVuSans-4c" x="290.869141"/>
      <use xlink:href="#DejaVuSans-65" x="344.832031"/>
      <use xlink:href="#DejaVuSans-76" x="406.355469"/>
      <use xlink:href="#DejaVuSans-65" x="465.535156"/>
      <use xlink:href="#DejaVuSans-6c" x="527.058594"/>
      <use xlink:href="#DejaVuSans-44" x="554.841797"/>
      <use xlink:href="#DejaVuSans-65" x="631.84375"/>
      <use xlink:href="#DejaVuSans-73" x="693.367188"/>
      <use xlink:href="#DejaVuSans-63" x="745.466797"/>
      <use xlink:href="#DejaVuSans-72" x="800.447266"/>
      <use xlink:href="#DejaVuSans-69" x="841.560547"/>
      <use xlink:href="#DejaVuSans-70" x="869.34375"/>
      <use xlink:href="#DejaVuSans-74" x="932.820312"/>
      <use xlink:href="#DejaVuSans-6f" x="972.029297"/>
      <use xlink:href="#DejaVuSans-72" x="1033.210938"/>
      <use xlink:href="#DejaVuSans-73" x="1074.324219"/>
     </g>
    </g>
   </g>
   <g id="text_6">
    <g id="patch_22">
     <path d="M 378.0216 738.946875 
L 408.88785 738.946875 
Q 412.48785 738.946875 412.48785 735.346875 
L 412.48785 723.733125 
Q 412.48785 720.133125 408.88785 720.133125 
L 378.0216 720.133125 
Q 374.4216 720.133125 374.4216 723.733125 
L 374.4216 735.346875 
Q 374.4216 738.946875 378.0216 738.946875 
z
" clip-path="url(#p9fe0e2f666)" style="fill: #2ca02c; stroke: #000000; stroke-linejoin: miter"/>
    </g>
    <g clip-path="url(#p9fe0e2f666)">
     <!-- input -->
     <g style="fill: #f5f5f5" transform="translate(378.0216 732.85125)scale(0.12 -0.12)">
      <defs>
       <path id="DejaVuSans-75" d="M 544 1381 
L 544 3500 
L 1119 3500 
L 1119 1403 
Q 1119 906 1312 657 
Q 1506 409 1894 409 
Q 2359 409 2629 706 
Q 2900 1003 2900 1516 
L 2900 3500 
L 3475 3500 
L 3475 0 
L 2900 0 
L 2900 538 
Q 2691 219 2414 64 
Q 2138 -91 1772 -91 
Q 1169 -91 856 284 
Q 544 659 544 1381 
z
M 1991 3584 
L 1991 3584 
z
" transform="scale(0.015625)"/>
      </defs>
      <use xlink:href="#DejaVuSans-69"/>
      <use xlink:href="#DejaVuSans-6e" x="27.783203"/>
      <use xlink:href="#DejaVuSans-70" x="91.162109"/>
      <use xlink:href="#DejaVuSans-75" x="154.638672"/>
      <use xlink:href="#DejaVuSans-74" x="218.017578"/>
     </g>
    </g>
   </g>
   <g id="text_7">
    <g clip-path="url(#p9fe0e2f666)">
     <!-- 1 rows; 5 cols; 275B -->
     <g transform="translate(582.088355 659.880833)scale(0.08 -0.08)">
      <defs>
       <path id="DejaVuSans-31" d="M 794 531 
L 1825 531 
L 1825 4091 
L 703 3866 
L 703 4441 
L 1819 4666 
L 2450 4666 
L 2450 531 
L 3481 531 
L 3481 0 
L 794 0 
L 794 531 
z
" transform="scale(0.015625)"/>
       <path id="DejaVuSans-20" transform="scale(0.015625)"/>
       <path id="DejaVuSans-77" d="M 269 3500 
L 844 3500 
L 1563 769 
L 2278 3500 
L 2956 3500 
L 3675 769 
L 4391 3500 
L 4966 3500 
L 4050 0 
L 3372 0 
L 2619 2869 
L 1863 0 
L 1184 0 
L 269 3500 
z
" transform="scale(0.015625)"/>
       <path id="DejaVuSans-3b" d="M 750 3309 
L 1409 3309 
L 1409 2516 
L 750 2516 
L 750 3309 
z
M 750 794 
L 1409 794 
L 1409 256 
L 897 -744 
L 494 -744 
L 750 256 
L 750 794 
z
" transform="scale(0.015625)"/>
       <path id="DejaVuSans-35" d="M 691 4666 
L 3169 4666 
L 3169 4134 
L 1269 4134 
L 1269 2991 
Q 1406 3038 1543 3061 
Q 1681 3084 1819 3084 
Q 2600 3084 3056 2656 
Q 3513 2228 3513 1497 
Q 3513 744 3044 326 
Q 2575 -91 1722 -91 
Q 1428 -91 1123 -41 
Q 819 9 494 109 
L 494 744 
Q 775 591 1075 516 
Q 1375 441 1709 441 
Q 2250 441 2565 725 
Q 2881 1009 2881 1497 
Q 2881 1984 2565 2268 
Q 2250 2553 1709 2553 
Q 1456 2553 1204 2497 
Q 953 2441 691 2322 
L 691 4666 
z
" transform="scale(0.015625)"/>
       <path id="DejaVuSans-32" d="M 1228 531 
L 3431 531 
L 3431 0 
L 469 0 
L 469 531 
Q 828 903 1448 1529 
Q 2069 2156 2228 2338 
Q 2531 2678 2651 2914 
Q 2772 3150 2772 3378 
Q 2772 3750 2511 3984 
Q 2250 4219 1831 4219 
Q 1534 4219 1204 4116 
Q 875 4013 500 3803 
L 500 4441 
Q 881 4594 1212 4672 
Q 1544 4750 1819 4750 
Q 2544 4750 2975 4387 
Q 3406 4025 3406 3419 
Q 3406 3131 3298 2873 
Q 3191 2616 2906 2266 
Q 2828 2175 2409 1742 
Q 1991 1309 1228 531 
z
" transform="scale(0.015625)"/>
       <path id="DejaVuSans-37" d="M 525 4666 
L 3525 4666 
L 3525 4397 
L 1831 0 
L 1172 0 
L 2766 4134 
L 525 4134 
L 525 4666 
z
" transform="scale(0.015625)"/>
       <path id="DejaVuSans-42" d="M 1259 2228 
L 1259 519 
L 2272 519 
Q 2781 519 3026 730 
Q 3272 941 3272 1375 
Q 3272 1813 3026 2020 
Q 2781 2228 2272 2228 
L 1259 2228 
z
M 1259 4147 
L 1259 2741 
L 2194 2741 
Q 2656 2741 2882 2914 
Q 3109 3088 3109 3444 
Q 3109 3797 2882 3972 
Q 2656 4147 2194 4147 
L 1259 4147 
z
M 628 4666 
L 2241 4666 
Q 2963 4666 3353 4366 
Q 3744 4066 3744 3513 
Q 3744 3084 3544 2831 
Q 3344 2578 2956 2516 
Q 3422 2416 3680 2098 
Q 3938 1781 3938 1306 
Q 3938 681 3513 340 
Q 3088 0 2303 0 
L 628 0 
L 628 4666 
z
" transform="scale(0.015625)"/>
      </defs>
      <use xlink:href="#DejaVuSans-31"/>
      <use xlink:href="#DejaVuSans-20" x="63.623047"/>
      <use xlink:href="#DejaVuSans-72" x="95.410156"/>
      <use xlink:href="#DejaVuSans-6f" x="134.273438"/>
      <use xlink:href="#DejaVuSans-77" x="195.455078"/>
      <use xlink:href="#DejaVuSans-73" x="277.242188"/>
      <use xlink:href="#DejaVuSans-3b" x="329.341797"/>
      <use xlink:href="#DejaVuSans-20" x="363.033203"/>
      <use xlink:href="#DejaVuSans-35" x="394.820312"/>
      <use xlink:href="#DejaVuSans-20" x="458.443359"/>
      <use xlink:href="#DejaVuSans-63" x="490.230469"/>
      <use xlink:href="#DejaVuSans-6f" x="545.210938"/>
      <use xlink:href="#DejaVuSans-6c" x="606.392578"/>
      <use xlink:href="#DejaVuSans-73" x="634.175781"/>
      <use xlink:href="#DejaVuSans-3b" x="686.275391"/>
      <use xlink:href="#DejaVuSans-20" x="719.966797"/>
      <use xlink:href="#DejaVuSans-32" x="751.753906"/>
      <use xlink:href="#DejaVuSans-37" x="815.376953"/>
      <use xlink:href="#DejaVuSans-35" x="879"/>
      <use xlink:href="#DejaVuSans-42" x="942.623047"/>
     </g>
    </g>
   </g>
   <g id="text_8">
    <g clip-path="url(#p9fe0e2f666)">
     <!-- 5 rows; 4 cols; 515B -->
     <g transform="translate(327.9916 483.480833)scale(0.08 -0.08)">
      <defs>
       <path id="DejaVuSans-34" d="M 2419 4116 
L 825 1625 
L 2419 1625 
L 2419 4116 
z
M 2253 4666 
L 3047 4666 
L 3047 1625 
L 3713 1625 
L 3713 1100 
L 3047 1100 
L 3047 0 
L 2419 0 
L 2419 1100 
L 313 1100 
L 313 1709 
L 2253 4666 
z
" transform="scale(0.015625)"/>
      </defs>
      <use xlink:href="#DejaVuSans-35"/>
      <use xlink:href="#DejaVuSans-20" x="63.623047"/>
      <use xlink:href="#DejaVuSans-72" x="95.410156"/>
      <use xlink:href="#DejaVuSans-6f" x="134.273438"/>
      <use xlink:href="#DejaVuSans-77" x="195.455078"/>
      <use xlink:href="#DejaVuSans-73" x="277.242188"/>
      <use xlink:href="#DejaVuSans-3b" x="329.341797"/>
      <use xlink:href="#DejaVuSans-20" x="363.033203"/>
      <use xlink:href="#DejaVuSans-34" x="394.820312"/>
      <use xlink:href="#DejaVuSans-20" x="458.443359"/>
      <use xlink:href="#DejaVuSans-63" x="490.230469"/>
      <use xlink:href="#DejaVuSans-6f" x="545.210938"/>
      <use xlink:href="#DejaVuSans-6c" x="606.392578"/>
      <use xlink:href="#DejaVuSans-73" x="634.175781"/>
      <use xlink:href="#DejaVuSans-3b" x="686.275391"/>
      <use xlink:href="#DejaVuSans-20" x="719.966797"/>
      <use xlink:href="#DejaVuSans-35" x="751.753906"/>
      <use xlink:href="#DejaVuSans-31" x="815.376953"/>
      <use xlink:href="#DejaVuSans-35" x="879"/>
      <use xlink:href="#DejaVuSans-42" x="942.623047"/>
     </g>
    </g>
   </g>
   <g id="text_9">
    <g clip-path="url(#p9fe0e2f666)">
     <!-- 3 rows; 5 cols; 336B -->
     <g transform="translate(327.9916 395.280833)scale(0.08 -0.08)">
      <defs>
       <path id="DejaVuSans-33" d="M 2597 2516 
Q 3050 2419 3304 2112 
Q 3559 1806 3559 1356 
Q 3559 666 3084 287 
Q 2609 -91 1734 -91 
Q 1441 -91 1130 -33 
Q 819 25 488 141 
L 488 750 
Q 750 597 1062 519 
Q 1375 441 1716 441 
Q 2309 441 2620 675 
Q 2931 909 2931 1356 
Q 2931 1769 2642 2001 
Q 2353 2234 1838 2234 
L 1294 2234 
L 1294 2753 
L 1863 2753 
Q 2328 2753 2575 2939 
Q 2822 3125 2822 3475 
Q 2822 3834 2567 4026 
Q 2313 4219 1838 4219 
Q 1578 4219 1281 4162 
Q 984 4106 628 3988 
L 628 4550 
Q 988 4650 1302 4700 
Q 1616 4750 1894 4750 
Q 2613 4750 3031 4423 
Q 3450 4097 3450 3541 
Q 3450 3153 3228 2886 
Q 3006 2619 2597 2516 
z
" transform="scale(0.015625)"/>
       <path id="DejaVuSans-36" d="M 2113 2584 
Q 1688 2584 1439 2293 
Q 1191 2003 1191 1497 
Q 1191 994 1439 701 
Q 1688 409 2113 409 
Q 2538 409 2786 701 
Q 3034 994 3034 1497 
Q 3034 2003 2786 2293 
Q 2538 2584 2113 2584 
z
M 3366 4563 
L 3366 3988 
Q 3128 4100 2886 4159 
Q 2644 4219 2406 4219 
Q 1781 4219 1451 3797 
Q 1122 3375 1075 2522 
Q 1259 2794 1537 2939 
Q 1816 3084 2150 3084 
Q 2853 3084 3261 2657 
Q 3669 2231 3669 1497 
Q 3669 778 3244 343 
Q 2819 -91 2113 -91 
Q 1303 -91 875 529 
Q 447 1150 447 2328 
Q 447 3434 972 4092 
Q 1497 4750 2381 4750 
Q 2619 4750 2861 4703 
Q 3103 4656 3366 4563 
z
" transform="scale(0.015625)"/>
      </defs>
      <use xlink:href="#DejaVuSans-33"/>
      <use xlink:href="#DejaVuSans-20" x="63.623047"/>
      <use xlink:href="#DejaVuSans-72" x="95.410156"/>
      <use xlink:href="#DejaVuSans-6f" x="134.273438"/>
      <use xlink:href="#DejaVuSans-77" x="195.455078"/>
      <use xlink:href="#DejaVuSans-73" x="277.242188"/>
      <use xlink:href="#DejaVuSans-3b" x="329.341797"/>
      <use xlink:href="#DejaVuSans-20" x="363.033203"/>
      <use xlink:href="#DejaVuSans-35" x="394.820312"/>
      <use xlink:href="#DejaVuSans-20" x="458.443359"/>
      <use xlink:href="#DejaVuSans-63" x="490.230469"/>
      <use xlink:href="#DejaVuSans-6f" x="545.210938"/>
      <use xlink:href="#DejaVuSans-6c" x="606.392578"/>
      <use xlink:href="#DejaVuSans-73" x="634.175781"/>
      <use xlink:href="#DejaVuSans-3b" x="686.275391"/>
      <use xlink:href="#DejaVuSans-20" x="719.966797"/>
      <use xlink:href="#DejaVuSans-33" x="751.753906"/>
      <use xlink:href="#DejaVuSans-33" x="815.376953"/>
      <use xlink:href="#DejaVuSans-36" x="879"/>
      <use xlink:href="#DejaVuSans-42" x="942.623047"/>
     </g>
    </g>
   </g>
   <g id="text_10">
    <g clip-path="url(#p9fe0e2f666)">
     <!-- 7 rows; 4 cols; 652B -->
     <g transform="translate(327.9916 307.080833)scale(0.08 -0.08)">
      <use xlink:href="#DejaVuSans-37"/>
      <use xlink:href="#DejaVuSans-20" x="63.623047"/>
      <use xlink:href="#DejaVuSans-72" x="95.410156"/>
      <use xlink:href="#DejaVuSans-6f" x="134.273438"/>
      <use xlink:href="#DejaVuSans-77" x="195.455078"/>
      <use xlink:href="#DejaVuSans-73" x="277.242188"/>
      <use xlink:href="#DejaVuSans-3b" x="329.341797"/>
      <use xlink:href="#DejaVuSans-20" x="363.033203"/>
      <use xlink:href="#DejaVuSans-34" x="394.820312"/>
      <use xlink:href="#DejaVuSans-20" x="458.443359"/>
      <use xlink:href="#DejaVuSans-63" x="490.230469"/>
      <use xlink:href="#DejaVuSans-6f" x="545.210938"/>
      <use xlink:href="#DejaVuSans-6c" x="606.392578"/>
      <use xlink:href="#DejaVuSans-73" x="634.175781"/>
      <use xlink:href="#DejaVuSans-3b" x="686.275391"/>
      <use xlink:href="#DejaVuSans-20" x="719.966797"/>
      <use xlink:href="#DejaVuSans-36" x="751.753906"/>
      <use xlink:href="#DejaVuSans-35" x="815.376953"/>
      <use xlink:href="#DejaVuSans-32" x="879"/>
      <use xlink:href="#DejaVuSans-42" x="942.623047"/>
     </g>
    </g>
   </g>
   <g id="text_11">
    <g clip-path="url(#p9fe0e2f666)">
     <!-- 4 rows; 3 cols; 345B -->
     <g transform="translate(327.9916 615.780833)scale(0.08 -0.08)">
      <use xlink:href="#DejaVuSans-34"/>
      <use xlink:href="#DejaVuSans-20" x="63.623047"/>
      <use xlink:href="#DejaVuSans-72" x="95.410156"/>
      <use xlink:href="#DejaVuSans-6f" x="134.273438"/>
      <use xlink:href="#DejaVuSans-77" x="195.455078"/>
      <use xlink:href="#DejaVuSans-73" x="277.242188"/>
      <use xlink:href="#DejaVuSans-3b" x="329.341797"/>
      <use xlink:href="#DejaVuSans-20" x="363.033203"/>
      <use xlink:href="#DejaVuSans-33" x="394.820312"/>
      <use xlink:href="#DejaVuSans-20" x="458.443359"/>
      <use xlink:href="#DejaVuSans-63" x="490.230469"/>
      <use xlink:href="#DejaVuSans-6f" x="545.210938"/>
      <use xlink:href="#DejaVuSans-6c" x="606.392578"/>
      <use xlink:href="#DejaVuSans-73" x="634.175781"/>
      <use xlink:href="#DejaVuSans-3b" x="686.275391"/>
      <use xlink:href="#DejaVuSans-20" x="719.966797"/>
      <use xlink:href="#DejaVuSans-33" x="751.753906"/>
      <use xlink:href="#DejaVuSans-34" x="815.376953"/>
      <use xlink:href="#DejaVuSans-35" x="879"/>
      <use xlink:href="#DejaVuSans-42" x="942.623047"/>
     </g>
    </g>
   </g>
   <g id="text_12">
    <g clip-path="url(#p9fe0e2f666)">
     <!-- 4 rows; 15 cols; 797B -->
     <g transform="translate(322.9016 748.080833)scale(0.08 -0.08)">
      <defs>
       <path id="DejaVuSans-39" d="M 703 97 
L 703 672 
Q 941 559 1184 500 
Q 1428 441 1663 441 
Q 2288 441 2617 861 
Q 2947 1281 2994 2138 
Q 2813 1869 2534 1725 
Q 2256 1581 1919 1581 
Q 1219 1581 811 2004 
Q 403 2428 403 3163 
Q 403 3881 828 4315 
Q 1253 4750 1959 4750 
Q 2769 4750 3195 4129 
Q 3622 3509 3622 2328 
Q 3622 1225 3098 567 
Q 2575 -91 1691 -91 
Q 1453 -91 1209 -44 
Q 966 3 703 97 
z
M 1959 2075 
Q 2384 2075 2632 2365 
Q 2881 2656 2881 3163 
Q 2881 3666 2632 3958 
Q 2384 4250 1959 4250 
Q 1534 4250 1286 3958 
Q 1038 3666 1038 3163 
Q 1038 2656 1286 2365 
Q 1534 2075 1959 2075 
z
" transform="scale(0.015625)"/>
      </defs>
      <use xlink:href="#DejaVuSans-34"/>
      <use xlink:href="#DejaVuSans-20" x="63.623047"/>
      <use xlink:href="#DejaVuSans-72" x="95.410156"/>
      <use xlink:href="#DejaVuSans-6f" x="134.273438"/>
      <use xlink:href="#DejaVuSans-77" x="195.455078"/>
      <use xlink:href="#DejaVuSans-73" x="277.242188"/>
      <use xlink:href="#DejaVuSans-3b" x="329.341797"/>
      <use xlink:href="#DejaVuSans-20" x="363.033203"/>
      <use xlink:href="#DejaVuSans-31" x="394.820312"/>
      <use xlink:href="#DejaVuSans-35" x="458.443359"/>
      <use xlink:href="#DejaVuSans-20" x="522.066406"/>
      <use xlink:href="#DejaVuSans-63" x="553.853516"/>
      <use xlink:href="#DejaVuSans-6f" x="608.833984"/>
      <use xlink:href="#DejaVuSans-6c" x="670.015625"/>
      <use xlink:href="#DejaVuSans-73" x="697.798828"/>
      <use xlink:href="#DejaVuSans-3b" x="749.898438"/>
      <use xlink:href="#DejaVuSans-20" x="783.589844"/>
      <use xlink:href="#DejaVuSans-37" x="815.376953"/>
      <use xlink:href="#DejaVuSans-39" x="879"/>
      <use xlink:href="#DejaVuSans-37" x="942.623047"/>
      <use xlink:href="#DejaVuSans-42" x="1006.246094"/>
     </g>
    </g>
   </g>
   <g id="text_13">
    <g id="patch_23">
     <path d="M 635.817862 721.147083 
L 714.284737 721.147083 
Q 717.884737 721.147083 717.884737 717.547083 
L 717.884737 705.599583 
Q 717.884737 701.999583 714.284737 701.999583 
L 635.817862 701.999583 
Q 632.217862 701.999583 632.217862 705.599583 
L 632.217862 717.547083 
Q 632.217862 721.147083 635.817862 721.147083 
z
" clip-path="url(#p9fe0e2f666)" style="fill: #1f77b4; stroke: #000000; stroke-linejoin: miter"/>
    </g>
    <g clip-path="url(#p9fe0e2f666)">
     <!-- clean_results -->
     <g style="fill: #f5f5f5" transform="translate(635.817862 714.717708)scale(0.12 -0.12)">
      <defs>
       <path id="DejaVuSans-5f" d="M 3263 -1063 
L 3263 -1509 
L -63 -1509 
L -63 -1063 
L 3263 -1063 
z
" transform="scale(0.015625)"/>
      </defs>
      <use xlink:href="#DejaVuSans-63"/>
      <use xlink:href="#DejaVuSans-6c" x="54.980469"/>
      <use xlink:href="#DejaVuSans-65" x="82.763672"/>
      <use xlink:href="#DejaVuSans-61" x="144.287109"/>
      <use xlink:href="#DejaVuSans-6e" x="205.566406"/>
      <use xlink:href="#DejaVuSans-5f" x="268.945312"/>
      <use xlink:href="#DejaVuSans-72" x="318.945312"/>
      <use xlink:href="#DejaVuSans-65" x="357.808594"/>
      <use xlink:href="#DejaVuSans-73" x="419.332031"/>
      <use xlink:href="#DejaVuSans-75" x="471.431641"/>
      <use xlink:href="#DejaVuSans-6c" x="534.810547"/>
      <use xlink:href="#DejaVuSans-74" x="562.59375"/>
      <use xlink:href="#DejaVuSans-73" x="601.802734"/>
     </g>
    </g>
   </g>
   <g id="text_14">
    <g id="patch_24">
     <path d="M 603.845362 544.747083 
L 746.257237 544.747083 
Q 749.857237 544.747083 749.857237 541.147083 
L 749.857237 529.199583 
Q 749.857237 525.599583 746.257237 525.599583 
L 603.845362 525.599583 
Q 600.245362 525.599583 600.245362 529.199583 
L 600.245362 541.147083 
Q 600.245362 544.747083 603.845362 544.747083 
z
" clip-path="url(#p9fe0e2f666)" style="fill: #1f77b4; stroke: #000000; stroke-linejoin: miter"/>
    </g>
    <g clip-path="url(#p9fe0e2f666)">
     <!-- grade_level_descriptors -->
     <g style="fill: #f5f5f5" transform="translate(603.845362 538.317708)scale(0.12 -0.12)">
      <use xlink:href="#DejaVuSans-67"/>
      <use xlink:href="#DejaVuSans-72" x="63.476562"/>
      <use xlink:href="#DejaVuSans-61" x="104.589844"/>
      <use xlink:href="#DejaVuSans-64" x="165.869141"/>
      <use xlink:href="#DejaVuSans-65" x="229.345703"/>
      <use xlink:href="#DejaVuSans-5f" x="290.869141"/>
      <use xlink:href="#DejaVuSans-6c" x="340.869141"/>
      <use xlink:href="#DejaVuSans-65" x="368.652344"/>
      <use xlink:href="#DejaVuSans-76" x="430.175781"/>
      <use xlink:href="#DejaVuSans-65" x="489.355469"/>
      <use xlink:href="#DejaVuSans-6c" x="550.878906"/>
      <use xlink:href="#DejaVuSans-5f" x="578.662109"/>
      <use xlink:href="#DejaVuSans-64" x="628.662109"/>
      <use xlink:href="#DejaVuSans-65" x="692.138672"/>
      <use xlink:href="#DejaVuSans-73" x="753.662109"/>
      <use xlink:href="#DejaVuSans-63" x="805.761719"/>
      <use xlink:href="#DejaVuSans-72" x="860.742188"/>
      <use xlink:href="#DejaVuSans-69" x="901.855469"/>
      <use xlink:href="#DejaVuSans-70" x="929.638672"/>
      <use xlink:href="#DejaVuSans-74" x="993.115234"/>
      <use xlink:href="#DejaVuSans-6f" x="1032.324219"/>
      <use xlink:href="#DejaVuSans-72" x="1093.505859"/>
      <use xlink:href="#DejaVuSans-73" x="1134.619141"/>
     </g>
    </g>
   </g>
   <g id="text_15">
    <g id="patch_25">
     <path d="M 856.659572 588.680208 
L 934.035197 588.680208 
Q 937.635197 588.680208 937.635197 585.080208 
L 937.635197 573.466458 
Q 937.635197 569.866458 934.035197 569.866458 
L 856.659572 569.866458 
Q 853.059572 569.866458 853.059572 573.466458 
L 853.059572 585.080208 
Q 853.059572 588.680208 856.659572 588.680208 
z
" clip-path="url(#p9fe0e2f666)" style="fill: #1f77b4; stroke: #000000; stroke-linejoin: miter"/>
    </g>
    <g clip-path="url(#p9fe0e2f666)">
     <!-- assessments -->
     <g style="fill: #f5f5f5" transform="translate(856.659572 582.584583)scale(0.12 -0.12)">
      <use xlink:href="#DejaVuSans-61"/>
      <use xlink:href="#DejaVuSans-73" x="61.279297"/>
      <use xlink:href="#DejaVuSans-73" x="113.378906"/>
      <use xlink:href="#DejaVuSans-65" x="165.478516"/>
      <use xlink:href="#DejaVuSans-73" x="227.001953"/>
      <use xlink:href="#DejaVuSans-73" x="279.101562"/>
      <use xlink:href="#DejaVuSans-6d" x="331.201172"/>
      <use xlink:href="#DejaVuSans-65" x="428.613281"/>
      <use xlink:href="#DejaVuSans-6e" x="490.136719"/>
      <use xlink:href="#DejaVuSans-74" x="553.515625"/>
      <use xlink:href="#DejaVuSans-73" x="592.724609"/>
     </g>
    </g>
   </g>
   <g id="text_16">
    <g clip-path="url(#p9fe0e2f666)">
     <!-- 4 rows; 21 cols -->
     <g transform="translate(679.692337 730.114167)scale(0.08 -0.08)">
      <use xlink:href="#DejaVuSans-34"/>
      <use xlink:href="#DejaVuSans-20" x="63.623047"/>
      <use xlink:href="#DejaVuSans-72" x="95.410156"/>
      <use xlink:href="#DejaVuSans-6f" x="134.273438"/>
      <use xlink:href="#DejaVuSans-77" x="195.455078"/>
      <use xlink:href="#DejaVuSans-73" x="277.242188"/>
      <use xlink:href="#DejaVuSans-3b" x="329.341797"/>
      <use xlink:href="#DejaVuSans-20" x="363.033203"/>
      <use xlink:href="#DejaVuSans-32" x="394.820312"/>
      <use xlink:href="#DejaVuSans-31" x="458.443359"/>
      <use xlink:href="#DejaVuSans-20" x="522.066406"/>
      <use xlink:href="#DejaVuSans-63" x="553.853516"/>
      <use xlink:href="#DejaVuSans-6f" x="608.833984"/>
      <use xlink:href="#DejaVuSans-6c" x="670.015625"/>
      <use xlink:href="#DejaVuSans-73" x="697.798828"/>
     </g>
    </g>
   </g>
   <g id="text_17">
    <g clip-path="url(#p9fe0e2f666)">
     <!-- 1 rows; 2 cols -->
     <g transform="translate(679.692337 553.714167)scale(0.08 -0.08)">
      <use xlink:href="#DejaVuSans-31"/>
      <use xlink:href="#DejaVuSans-20" x="63.623047"/>
      <use xlink:href="#DejaVuSans-72" x="95.410156"/>
      <use xlink:href="#DejaVuSans-6f" x="134.273438"/>
      <use xlink:href="#DejaVuSans-77" x="195.455078"/>
      <use xlink:href="#DejaVuSans-73" x="277.242188"/>
      <use xlink:href="#DejaVuSans-3b" x="329.341797"/>
      <use xlink:href="#DejaVuSans-20" x="363.033203"/>
      <use xlink:href="#DejaVuSans-32" x="394.820312"/>
      <use xlink:href="#DejaVuSans-20" x="458.443359"/>
      <use xlink:href="#DejaVuSans-63" x="490.230469"/>
      <use xlink:href="#DejaVuSans-6f" x="545.210938"/>
      <use xlink:href="#DejaVuSans-6c" x="606.392578"/>
      <use xlink:href="#DejaVuSans-73" x="634.175781"/>
     </g>
    </g>
   </g>
   <g id="text_18">
    <g clip-path="url(#p9fe0e2f666)">
     <!-- 1 rows; 6 cols -->
     <g transform="translate(899.988421 597.814167)scale(0.08 -0.08)">
      <use xlink:href="#DejaVuSans-31"/>
      <use xlink:href="#DejaVuSans-20" x="63.623047"/>
      <use xlink:href="#DejaVuSans-72" x="95.410156"/>
      <use xlink:href="#DejaVuSans-6f" x="134.273438"/>
      <use xlink:href="#DejaVuSans-77" x="195.455078"/>
      <use xlink:href="#DejaVuSans-73" x="277.242188"/>
      <use xlink:href="#DejaVuSans-3b" x="329.341797"/>
      <use xlink:href="#DejaVuSans-20" x="363.033203"/>
      <use xlink:href="#DejaVuSans-36" x="394.820312"/>
      <use xlink:href="#DejaVuSans-20" x="458.443359"/>
      <use xlink:href="#DejaVuSans-63" x="490.230469"/>
      <use xlink:href="#DejaVuSans-6f" x="545.210938"/>
      <use xlink:href="#DejaVuSans-6c" x="606.392578"/>
      <use xlink:href="#DejaVuSans-73" x="634.175781"/>
     </g>
    </g>
   </g>
   <g id="text_19">
    <g id="patch_26">
     <path d="M 1067.11215 606.646875 
L 1144.487775 606.646875 
Q 1148.087775 606.646875 1148.087775 603.046875 
L 1148.087775 591.433125 
Q 1148.087775 587.833125 1144.487775 587.833125 
L 1067.11215 587.833125 
Q 1063.51215 587.833125 1063.51215 591.433125 
L 1063.51215 603.046875 
Q 1063.51215 606.646875 1067.11215 606.646875 
z
" clip-path="url(#p9fe0e2f666)" style="fill: #d62728; stroke: #000000; stroke-linejoin: miter"/>
    </g>
    <g clip-path="url(#p9fe0e2f666)">
     <!-- assessments -->
     <g style="fill: #f5f5f5" transform="translate(1067.11215 600.55125)scale(0.12 -0.12)">
      <use xlink:href="#DejaVuSans-61"/>
      <use xlink:href="#DejaVuSans-73" x="61.279297"/>
      <use xlink:href="#DejaVuSans-73" x="113.378906"/>
      <use xlink:href="#DejaVuSans-65" x="165.478516"/>
      <use xlink:href="#DejaVuSans-73" x="227.001953"/>
      <use xlink:href="#DejaVuSans-73" x="279.101562"/>
      <use xlink:href="#DejaVuSans-6d" x="331.201172"/>
      <use xlink:href="#DejaVuSans-65" x="428.613281"/>
      <use xlink:href="#DejaVuSans-6e" x="490.136719"/>
      <use xlink:href="#DejaVuSans-74" x="553.515625"/>
      <use xlink:href="#DejaVuSans-73" x="592.724609"/>
     </g>
    </g>
   </g>
   <g id="text_20">
    <g id="patch_27">
     <path d="M 687.117995 474.346875 
L 930.17612 474.346875 
Q 933.77612 474.346875 933.77612 470.746875 
L 933.77612 459.133125 
Q 933.77612 455.533125 930.17612 455.533125 
L 687.117995 455.533125 
Q 683.517995 455.533125 683.517995 459.133125 
L 683.517995 470.746875 
Q 683.517995 474.346875 687.117995 474.346875 
z
" clip-path="url(#p9fe0e2f666)" style="fill: #d62728; stroke: #000000; stroke-linejoin: miter"/>
    </g>
    <g clip-path="url(#p9fe0e2f666)">
     <!-- assessmentReportingMethodDescriptors -->
     <g style="fill: #f5f5f5" transform="translate(687.117995 468.25125)scale(0.12 -0.12)">
      <use xlink:href="#DejaVuSans-61"/>
      <use xlink:href="#DejaVuSans-73" x="61.279297"/>
      <use xlink:href="#DejaVuSans-73" x="113.378906"/>
      <use xlink:href="#DejaVuSans-65" x="165.478516"/>
      <use xlink:href="#DejaVuSans-73" x="227.001953"/>
      <use xlink:href="#DejaVuSans-73" x="279.101562"/>
      <use xlink:href="#DejaVuSans-6d" x="331.201172"/>
      <use xlink:href="#DejaVuSans-65" x="428.613281"/>
      <use xlink:href="#DejaVuSans-6e" x="490.136719"/>
      <use xlink:href="#DejaVuSans-74" x="553.515625"/>
      <use xlink:href="#DejaVuSans-52" x="592.724609"/>
      <use xlink:href="#DejaVuSans-65" x="657.707031"/>
      <use xlink:href="#DejaVuSans-70" x="719.230469"/>
      <use xlink:href="#DejaVuSans-6f" x="782.707031"/>
      <use xlink:href="#DejaVuSans-72" x="843.888672"/>
      <use xlink:href="#DejaVuSans-74" x="885.001953"/>
      <use xlink:href="#DejaVuSans-69" x="924.210938"/>
      <use xlink:href="#DejaVuSans-6e" x="951.994141"/>
      <use xlink:href="#DejaVuSans-67" x="1015.373047"/>
      <use xlink:href="#DejaVuSans-4d" x="1078.849609"/>
      <use xlink:href="#DejaVuSans-65" x="1165.128906"/>
      <use xlink:href="#DejaVuSans-74" x="1226.652344"/>
      <use xlink:href="#DejaVuSans-68" x="1265.861328"/>
      <use xlink:href="#DejaVuSans-6f" x="1329.240234"/>
      <use xlink:href="#DejaVuSans-64" x="1390.421875"/>
      <use xlink:href="#DejaVuSans-44" x="1453.898438"/>
      <use xlink:href="#DejaVuSans-65" x="1530.900391"/>
      <use xlink:href="#DejaVuSans-73" x="1592.423828"/>
      <use xlink:href="#DejaVuSans-63" x="1644.523438"/>
      <use xlink:href="#DejaVuSans-72" x="1699.503906"/>
      <use xlink:href="#DejaVuSans-69" x="1740.617188"/>
      <use xlink:href="#DejaVuSans-70" x="1768.400391"/>
      <use xlink:href="#DejaVuSans-74" x="1831.876953"/>
      <use xlink:href="#DejaVuSans-6f" x="1871.085938"/>
      <use xlink:href="#DejaVuSans-72" x="1932.267578"/>
      <use xlink:href="#DejaVuSans-73" x="1973.380859"/>
     </g>
    </g>
   </g>
   <g id="text_21">
    <g id="patch_28">
     <path d="M 687.117995 297.946875 
L 864.241745 297.946875 
Q 867.841745 297.946875 867.841745 294.346875 
L 867.841745 282.733125 
Q 867.841745 279.133125 864.241745 279.133125 
L 687.117995 279.133125 
Q 683.517995 279.133125 683.517995 282.733125 
L 683.517995 294.346875 
Q 683.517995 297.946875 687.117995 297.946875 
z
" clip-path="url(#p9fe0e2f666)" style="fill: #d62728; stroke: #000000; stroke-linejoin: miter"/>
    </g>
    <g clip-path="url(#p9fe0e2f666)">
     <!-- performanceLevelDescriptors -->
     <g style="fill: #f5f5f5" transform="translate(687.117995 291.85125)scale(0.12 -0.12)">
      <use xlink:href="#DejaVuSans-70"/>
      <use xlink:href="#DejaVuSans-65" x="63.476562"/>
      <use xlink:href="#DejaVuSans-72" x="125"/>
      <use xlink:href="#DejaVuSans-66" x="166.113281"/>
      <use xlink:href="#DejaVuSans-6f" x="201.318359"/>
      <use xlink:href="#DejaVuSans-72" x="262.5"/>
      <use xlink:href="#DejaVuSans-6d" x="301.863281"/>
      <use xlink:href="#DejaVuSans-61" x="399.275391"/>
      <use xlink:href="#DejaVuSans-6e" x="460.554688"/>
      <use xlink:href="#DejaVuSans-63" x="523.933594"/>
      <use xlink:href="#DejaVuSans-65" x="578.914062"/>
      <use xlink:href="#DejaVuSans-4c" x="640.4375"/>
      <use xlink:href="#DejaVuSans-65" x="694.400391"/>
      <use xlink:href="#DejaVuSans-76" x="755.923828"/>
      <use xlink:href="#DejaVuSans-65" x="815.103516"/>
      <use xlink:href="#DejaVuSans-6c" x="876.626953"/>
      <use xlink:href="#DejaVuSans-44" x="904.410156"/>
      <use xlink:href="#DejaVuSans-65" x="981.412109"/>
      <use xlink:href="#DejaVuSans-73" x="1042.935547"/>
      <use xlink:href="#DejaVuSans-63" x="1095.035156"/>
      <use xlink:href="#DejaVuSans-72" x="1150.015625"/>
      <use xlink:href="#DejaVuSans-69" x="1191.128906"/>
      <use xlink:href="#DejaVuSans-70" x="1218.912109"/>
      <use xlink:href="#DejaVuSans-74" x="1282.388672"/>
      <use xlink:href="#DejaVuSans-6f" x="1321.597656"/>
      <use xlink:href="#DejaVuSans-72" x="1382.779297"/>
      <use xlink:href="#DejaVuSans-73" x="1423.892578"/>
     </g>
    </g>
   </g>
   <g id="text_22">
    <g id="patch_29">
     <path d="M 687.117995 386.146875 
L 820.149245 386.146875 
Q 823.749245 386.146875 823.749245 382.546875 
L 823.749245 370.933125 
Q 823.749245 367.333125 820.149245 367.333125 
L 687.117995 367.333125 
Q 683.517995 367.333125 683.517995 370.933125 
L 683.517995 382.546875 
Q 683.517995 386.146875 687.117995 386.146875 
z
" clip-path="url(#p9fe0e2f666)" style="fill: #d62728; stroke: #000000; stroke-linejoin: miter"/>
    </g>
    <g clip-path="url(#p9fe0e2f666)">
     <!-- objectiveAssessments -->
     <g style="fill: #f5f5f5" transform="translate(687.117995 380.05125)scale(0.12 -0.12)">
      <use xlink:href="#DejaVuSans-6f"/>
      <use xlink:href="#DejaVuSans-62" x="61.181641"/>
      <use xlink:href="#DejaVuSans-6a" x="124.658203"/>
      <use xlink:href="#DejaVuSans-65" x="152.441406"/>
      <use xlink:href="#DejaVuSans-63" x="213.964844"/>
      <use xlink:href="#DejaVuSans-74" x="268.945312"/>
      <use xlink:href="#DejaVuSans-69" x="308.154297"/>
      <use xlink:href="#DejaVuSans-76" x="335.9375"/>
      <use xlink:href="#DejaVuSans-65" x="395.117188"/>
      <use xlink:href="#DejaVuSans-41" x="456.640625"/>
      <use xlink:href="#DejaVuSans-73" x="525.048828"/>
      <use xlink:href="#DejaVuSans-73" x="577.148438"/>
      <use xlink:href="#DejaVuSans-65" x="629.248047"/>
      <use xlink:href="#DejaVuSans-73" x="690.771484"/>
      <use xlink:href="#DejaVuSans-73" x="742.871094"/>
      <use xlink:href="#DejaVuSans-6d" x="794.970703"/>
      <use xlink:href="#DejaVuSans-65" x="892.382812"/>
      <use xlink:href="#DejaVuSans-6e" x="953.90625"/>
      <use xlink:href="#DejaVuSans-74" x="1017.285156"/>
      <use xlink:href="#DejaVuSans-73" x="1056.494141"/>
     </g>
    </g>
   </g>
   <g id="text_23">
    <g id="patch_30">
     <path d="M 907.41408 738.946875 
L 1031.51658 738.946875 
Q 1035.11658 738.946875 1035.11658 735.346875 
L 1035.11658 723.733125 
Q 1035.11658 720.133125 1031.51658 720.133125 
L 907.41408 720.133125 
Q 903.81408 720.133125 903.81408 723.733125 
L 903.81408 735.346875 
Q 903.81408 738.946875 907.41408 738.946875 
z
" clip-path="url(#p9fe0e2f666)" style="fill: #d62728; stroke: #000000; stroke-linejoin: miter"/>
    </g>
    <g clip-path="url(#p9fe0e2f666)">
     <!-- studentAssessments -->
     <g style="fill: #f5f5f5" transform="translate(907.41408 732.85125)scale(0.12 -0.12)">
      <use xlink:href="#DejaVuSans-73"/>
      <use xlink:href="#DejaVuSans-74" x="52.099609"/>
      <use xlink:href="#DejaVuSans-75" x="91.308594"/>
      <use xlink:href="#DejaVuSans-64" x="154.6875"/>
      <use xlink:href="#DejaVuSans-65" x="218.164062"/>
      <use xlink:href="#DejaVuSans-6e" x="279.6875"/>
      <use xlink:href="#DejaVuSans-74" x="343.066406"/>
      <use xlink:href="#DejaVuSans-41" x="382.275391"/>
      <use xlink:href="#DejaVuSans-73" x="450.683594"/>
      <use xlink:href="#DejaVuSans-73" x="502.783203"/>
      <use xlink:href="#DejaVuSans-65" x="554.882812"/>
      <use xlink:href="#DejaVuSans-73" x="616.40625"/>
      <use xlink:href="#DejaVuSans-73" x="668.505859"/>
      <use xlink:href="#DejaVuSans-6d" x="720.605469"/>
      <use xlink:href="#DejaVuSans-65" x="818.017578"/>
      <use xlink:href="#DejaVuSans-6e" x="879.541016"/>
      <use xlink:href="#DejaVuSans-74" x="942.919922"/>
      <use xlink:href="#DejaVuSans-73" x="982.128906"/>
     </g>
    </g>
   </g>
   <g id="text_24">
    <g clip-path="url(#p9fe0e2f666)">
     <!-- 1 rows; 1 cols; 2KB -->
     <g transform="translate(1067.11215 615.780833)scale(0.08 -0.08)">
      <defs>
       <path id="DejaVuSans-4b" d="M 628 4666 
L 1259 4666 
L 1259 2694 
L 3353 4666 
L 4166 4666 
L 1850 2491 
L 4331 0 
L 3500 0 
L 1259 2247 
L 1259 0 
L 628 0 
L 628 4666 
z
" transform="scale(0.015625)"/>
      </defs>
      <use xlink:href="#DejaVuSans-31"/>
      <use xlink:href="#DejaVuSans-20" x="63.623047"/>
      <use xlink:href="#DejaVuSans-72" x="95.410156"/>
      <use xlink:href="#DejaVuSans-6f" x="134.273438"/>
      <use xlink:href="#DejaVuSans-77" x="195.455078"/>
      <use xlink:href="#DejaVuSans-73" x="277.242188"/>
      <use xlink:href="#DejaVuSans-3b" x="329.341797"/>
      <use xlink:href="#DejaVuSans-20" x="363.033203"/>
      <use xlink:href="#DejaVuSans-31" x="394.820312"/>
      <use xlink:href="#DejaVuSans-20" x="458.443359"/>
      <use xlink:href="#DejaVuSans-63" x="490.230469"/>
      <use xlink:href="#DejaVuSans-6f" x="545.210938"/>
      <use xlink:href="#DejaVuSans-6c" x="606.392578"/>
      <use xlink:href="#DejaVuSans-73" x="634.175781"/>
      <use xlink:href="#DejaVuSans-3b" x="686.275391"/>
      <use xlink:href="#DejaVuSans-20" x="719.966797"/>
      <use xlink:href="#DejaVuSans-32" x="751.753906"/>
      <use xlink:href="#DejaVuSans-4b" x="815.376953"/>
      <use xlink:href="#DejaVuSans-42" x="880.953125"/>
     </g>
    </g>
   </g>
   <g id="text_25">
    <g clip-path="url(#p9fe0e2f666)">
     <!-- 5 rows; 1 cols; 847B -->
     <g transform="translate(687.117995 483.480833)scale(0.08 -0.08)">
      <defs>
       <path id="DejaVuSans-38" d="M 2034 2216 
Q 1584 2216 1326 1975 
Q 1069 1734 1069 1313 
Q 1069 891 1326 650 
Q 1584 409 2034 409 
Q 2484 409 2743 651 
Q 3003 894 3003 1313 
Q 3003 1734 2745 1975 
Q 2488 2216 2034 2216 
z
M 1403 2484 
Q 997 2584 770 2862 
Q 544 3141 544 3541 
Q 544 4100 942 4425 
Q 1341 4750 2034 4750 
Q 2731 4750 3128 4425 
Q 3525 4100 3525 3541 
Q 3525 3141 3298 2862 
Q 3072 2584 2669 2484 
Q 3125 2378 3379 2068 
Q 3634 1759 3634 1313 
Q 3634 634 3220 271 
Q 2806 -91 2034 -91 
Q 1263 -91 848 271 
Q 434 634 434 1313 
Q 434 1759 690 2068 
Q 947 2378 1403 2484 
z
M 1172 3481 
Q 1172 3119 1398 2916 
Q 1625 2713 2034 2713 
Q 2441 2713 2670 2916 
Q 2900 3119 2900 3481 
Q 2900 3844 2670 4047 
Q 2441 4250 2034 4250 
Q 1625 4250 1398 4047 
Q 1172 3844 1172 3481 
z
" transform="scale(0.015625)"/>
      </defs>
      <use xlink:href="#DejaVuSans-35"/>
      <use xlink:href="#DejaVuSans-20" x="63.623047"/>
      <use xlink:href="#DejaVuSans-72" x="95.410156"/>
      <use xlink:href="#DejaVuSans-6f" x="134.273438"/>
      <use xlink:href="#DejaVuSans-77" x="195.455078"/>
      <use xlink:href="#DejaVuSans-73" x="277.242188"/>
      <use xlink:href="#DejaVuSans-3b" x="329.341797"/>
      <use xlink:href="#DejaVuSans-20" x="363.033203"/>
      <use xlink:href="#DejaVuSans-31" x="394.820312"/>
      <use xlink:href="#DejaVuSans-20" x="458.443359"/>
      <use xlink:href="#DejaVuSans-63" x="490.230469"/>
      <use xlink:href="#DejaVuSans-6f" x="545.210938"/>
      <use xlink:href="#DejaVuSans-6c" x="606.392578"/>
      <use xlink:href="#DejaVuSans-73" x="634.175781"/>
      <use xlink:href="#DejaVuSans-3b" x="686.275391"/>
      <use xlink:href="#DejaVuSans-20" x="719.966797"/>
      <use xlink:href="#DejaVuSans-38" x="751.753906"/>
      <use xlink:href="#DejaVuSans-34" x="815.376953"/>
      <use xlink:href="#DejaVuSans-37" x="879"/>
      <use xlink:href="#DejaVuSans-42" x="942.623047"/>
     </g>
    </g>
   </g>
   <g id="text_26">
    <g clip-path="url(#p9fe0e2f666)">
     <!-- 7 rows; 1 cols; 1KB -->
     <g transform="translate(687.117995 307.080833)scale(0.08 -0.08)">
      <use xlink:href="#DejaVuSans-37"/>
      <use xlink:href="#DejaVuSans-20" x="63.623047"/>
      <use xlink:href="#DejaVuSans-72" x="95.410156"/>
      <use xlink:href="#DejaVuSans-6f" x="134.273438"/>
      <use xlink:href="#DejaVuSans-77" x="195.455078"/>
      <use xlink:href="#DejaVuSans-73" x="277.242188"/>
      <use xlink:href="#DejaVuSans-3b" x="329.341797"/>
      <use xlink:href="#DejaVuSans-20" x="363.033203"/>
      <use xlink:href="#DejaVuSans-31" x="394.820312"/>
      <use xlink:href="#DejaVuSans-20" x="458.443359"/>
      <use xlink:href="#DejaVuSans-63" x="490.230469"/>
      <use xlink:href="#DejaVuSans-6f" x="545.210938"/>
      <use xlink:href="#DejaVuSans-6c" x="606.392578"/>
      <use xlink:href="#DejaVuSans-73" x="634.175781"/>
      <use xlink:href="#DejaVuSans-3b" x="686.275391"/>
      <use xlink:href="#DejaVuSans-20" x="719.966797"/>
      <use xlink:href="#DejaVuSans-31" x="751.753906"/>
      <use xlink:href="#DejaVuSans-4b" x="815.376953"/>
      <use xlink:href="#DejaVuSans-42" x="880.953125"/>
     </g>
    </g>
   </g>
   <g id="text_27">
    <g clip-path="url(#p9fe0e2f666)">
     <!-- 3 rows; 1 cols; 4KB -->
     <g transform="translate(687.117995 395.280833)scale(0.08 -0.08)">
      <use xlink:href="#DejaVuSans-33"/>
      <use xlink:href="#DejaVuSans-20" x="63.623047"/>
      <use xlink:href="#DejaVuSans-72" x="95.410156"/>
      <use xlink:href="#DejaVuSans-6f" x="134.273438"/>
      <use xlink:href="#DejaVuSans-77" x="195.455078"/>
      <use xlink:href="#DejaVuSans-73" x="277.242188"/>
      <use xlink:href="#DejaVuSans-3b" x="329.341797"/>
      <use xlink:href="#DejaVuSans-20" x="363.033203"/>
      <use xlink:href="#DejaVuSans-31" x="394.820312"/>
      <use xlink:href="#DejaVuSans-20" x="458.443359"/>
      <use xlink:href="#DejaVuSans-63" x="490.230469"/>
      <use xlink:href="#DejaVuSans-6f" x="545.210938"/>
      <use xlink:href="#DejaVuSans-6c" x="606.392578"/>
      <use xlink:href="#DejaVuSans-73" x="634.175781"/>
      <use xlink:href="#DejaVuSans-3b" x="686.275391"/>
      <use xlink:href="#DejaVuSans-20" x="719.966797"/>
      <use xlink:href="#DejaVuSans-34" x="751.753906"/>
      <use xlink:href="#DejaVuSans-4b" x="815.376953"/>
      <use xlink:href="#DejaVuSans-42" x="880.953125"/>
     </g>
    </g>
   </g>
   <g id="text_28">
    <g clip-path="url(#p9fe0e2f666)">
     <!-- 4 rows; 1 cols; 11KB -->
     <g transform="translate(907.41408 748.080833)scale(0.08 -0.08)">
      <use xlink:href="#DejaVuSans-34"/>
      <use xlink:href="#DejaVuSans-20" x="63.623047"/>
      <use xlink:href="#DejaVuSans-72" x="95.410156"/>
      <use xlink:href="#DejaVuSans-6f" x="134.273438"/>
      <use xlink:href="#DejaVuSans-77" x="195.455078"/>
      <use xlink:href="#DejaVuSans-73" x="277.242188"/>
      <use xlink:href="#DejaVuSans-3b" x="329.341797"/>
      <use xlink:href="#DejaVuSans-20" x="363.033203"/>
      <use xlink:href="#DejaVuSans-31" x="394.820312"/>
      <use xlink:href="#DejaVuSans-20" x="458.443359"/>
      <use xlink:href="#DejaVuSans-63" x="490.230469"/>
      <use xlink:href="#DejaVuSans-6f" x="545.210938"/>
      <use xlink:href="#DejaVuSans-6c" x="606.392578"/>
      <use xlink:href="#DejaVuSans-73" x="634.175781"/>
      <use xlink:href="#DejaVuSans-3b" x="686.275391"/>
      <use xlink:href="#DejaVuSans-20" x="719.966797"/>
      <use xlink:href="#DejaVuSans-31" x="751.753906"/>
      <use xlink:href="#DejaVuSans-31" x="815.376953"/>
      <use xlink:href="#DejaVuSans-4b" x="879"/>
      <use xlink:href="#DejaVuSans-42" x="944.576172"/>
     </g>
    </g>
   </g>
   <g id="legend_1">
    <g id="patch_31">
     <path d="M 584.417187 892.12 
L 891.582812 892.12 
Q 893.582812 892.12 893.582812 890.12 
L 893.582812 876.441875 
Q 893.582812 874.441875 891.582812 874.441875 
L 584.417187 874.441875 
Q 582.417187 874.441875 582.417187 876.441875 
L 582.417187 890.12 
Q 582.417187 892.12 584.417187 892.12 
z
" style="fill: #ffffff; opacity: 0.8; stroke: #cccccc; stroke-linejoin: miter"/>
    </g>
    <g id="patch_32">
     <path d="M 586.417187 886.040313 
L 606.417187 886.040313 
L 606.417187 879.040313 
L 586.417187 879.040313 
z
" style="fill: #2ca02c; stroke: #2ca02c; stroke-linejoin: miter"/>
    </g>
    <g id="text_29">
     <!-- sources -->
     <g transform="translate(614.417187 886.040313)scale(0.1 -0.1)">
      <use xlink:href="#DejaVuSans-73"/>
      <use xlink:href="#DejaVuSans-6f" x="52.099609"/>
      <use xlink:href="#DejaVuSans-75" x="113.28125"/>
      <use xlink:href="#DejaVuSans-72" x="176.660156"/>
      <use xlink:href="#DejaVuSans-63" x="215.523438"/>
      <use xlink:href="#DejaVuSans-65" x="270.503906"/>
      <use xlink:href="#DejaVuSans-73" x="332.027344"/>
     </g>
    </g>
    <g id="patch_33">
     <path d="M 672.829687 886.040313 
L 692.829687 886.040313 
L 692.829687 879.040313 
L 672.829687 879.040313 
z
" style="fill: #1f77b4; stroke: #1f77b4; stroke-linejoin: miter"/>
    </g>
    <g id="text_30">
     <!-- transformations -->
     <g transform="translate(700.829687 886.040313)scale(0.1 -0.1)">
      <use xlink:href="#DejaVuSans-74"/>
      <use xlink:href="#DejaVuSans-72" x="39.208984"/>
      <use xlink:href="#DejaVuSans-61" x="80.322266"/>
      <use xlink:href="#DejaVuSans-6e" x="141.601562"/>
      <use xlink:href="#DejaVuSans-73" x="204.980469"/>
      <use xlink:href="#DejaVuSans-66" x="257.080078"/>
      <use xlink:href="#DejaVuSans-6f" x="292.285156"/>
      <use xlink:href="#DejaVuSans-72" x="353.466797"/>
      <use xlink:href="#DejaVuSans-6d" x="392.830078"/>
      <use xlink:href="#DejaVuSans-61" x="490.242188"/>
      <use xlink:href="#DejaVuSans-74" x="551.521484"/>
      <use xlink:href="#DejaVuSans-69" x="590.730469"/>
      <use xlink:href="#DejaVuSans-6f" x="618.513672"/>
      <use xlink:href="#DejaVuSans-6e" x="679.695312"/>
      <use xlink:href="#DejaVuSans-73" x="743.074219"/>
     </g>
    </g>
    <g id="patch_34">
     <path d="M 800.34375 886.040313 
L 820.34375 886.040313 
L 820.34375 879.040313 
L 800.34375 879.040313 
z
" style="fill: #d62728; stroke: #d62728; stroke-linejoin: miter"/>
    </g>
    <g id="text_31">
     <!-- destinations -->
     <g transform="translate(828.34375 886.040313)scale(0.1 -0.1)">
      <use xlink:href="#DejaVuSans-64"/>
      <use xlink:href="#DejaVuSans-65" x="63.476562"/>
      <use xlink:href="#DejaVuSans-73" x="125"/>
      <use xlink:href="#DejaVuSans-74" x="177.099609"/>
      <use xlink:href="#DejaVuSans-69" x="216.308594"/>
      <use xlink:href="#DejaVuSans-6e" x="244.091797"/>
      <use xlink:href="#DejaVuSans-61" x="307.470703"/>
      <use xlink:href="#DejaVuSans-74" x="368.75"/>
      <use xlink:href="#DejaVuSans-69" x="407.958984"/>
      <use xlink:href="#DejaVuSans-6f" x="435.742188"/>
      <use xlink:href="#DejaVuSans-6e" x="496.923828"/>
      <use xlink:href="#DejaVuSans-73" x="560.302734"/>
     </g>
    </g>
   </g>
  </g>
 </g>
 <defs>
  <clipPath id="p9fe0e2f666">
   <rect x="180" y="120.96" width="1116" height="776.16"/>
  </clipPath>
 </defs>
</svg>
