<?xml version="1.0" encoding="utf-8" standalone="no"?>
<!DOCTYPE svg PUBLIC "-//W3C//DTD SVG 1.1//EN"
  "http://www.w3.org/Graphics/SVG/1.1/DTD/svg11.dtd">
<svg xmlns:xlink="http://www.w3.org/1999/xlink" width="1440pt" height="1008pt" viewBox="0 0 1440 1008" xmlns="http://www.w3.org/2000/svg" version="1.1">
 <metadata>
  <rdf:RDF xmlns:dc="http://purl.org/dc/elements/1.1/" xmlns:cc="http://creativecommons.org/ns#" xmlns:rdf="http://www.w3.org/1999/02/22-rdf-syntax-ns#">
   <cc:Work>
    <dc:type rdf:resource="http://purl.org/dc/dcmitype/StillImage"/>
    <dc:date>2024-07-26T17:44:11.702282</dc:date>
    <dc:format>image/svg+xml</dc:format>
    <dc:creator>
     <cc:Agent>
      <dc:title>Matplotlib v3.8.2, https://matplotlib.org/</dc:title>
     </cc:Agent>
    </dc:creator>
   </cc:Work>
  </rdf:RDF>
 </metadata>
 <defs>
  <style type="text/css">*{stroke-linejoin: round; stroke-linecap: butt}</style>
 </defs>
 <g id="figure_1">
  <g id="patch_1">
   <path d="M 0 1008 
L 1440 1008 
L 1440 0 
L 0 0 
z
" style="fill: #ffffff"/>
  </g>
  <g id="axes_1">
   <g id="patch_2">
    <path d="M 180 897.12 
L 1296 897.12 
L 1296 120.96 
L 180 120.96 
z
" style="fill: #ffffff"/>
   </g>
   <g id="patch_3">
    <path d="M 820.697512 541.482307 
Q 872.622672 576.924442 923.624402 611.736278 
" clip-path="url(#paa4539c91b)" style="fill: none; stroke: #000000; stroke-linecap: round"/>
    <path d="M 919.271896 603.922464 
L 923.624402 611.736278 
L 914.761847 610.529995 
z
" clip-path="url(#paa4539c91b)" style="stroke: #000000; stroke-linecap: round"/>
   </g>
   <g id="patch_4">
    <path d="M 681.300531 458.328072 
Q 743.696863 495.259008 805.131058 531.620478 
" clip-path="url(#paa4539c91b)" style="fill: none; stroke: #000000; stroke-linecap: round"/>
    <path d="M 800.283951 524.10346 
L 805.131058 531.620478 
L 796.20918 530.987953 
z
" clip-path="url(#paa4539c91b)" style="stroke: #000000; stroke-linecap: round"/>
   </g>
   <g id="patch_5">
    <path d="M 682.340805 510.715879 
Q 743.697755 522.821129 803.957816 534.709971 
" clip-path="url(#paa4539c91b)" style="fill: none; stroke: #000000; stroke-linecap: round"/>
    <path d="M 796.883354 529.23713 
L 803.957816 534.709971 
L 795.334866 537.085836 
z
" clip-path="url(#paa4539c91b)" style="stroke: #000000; stroke-linecap: round"/>
   </g>
   <g id="patch_6">
    <path d="M 682.340805 562.487972 
Q 743.697755 550.382722 803.957816 538.49388 
" clip-path="url(#paa4539c91b)" style="fill: none; stroke: #000000; stroke-linecap: round"/>
    <path d="M 795.334866 536.118016 
L 803.957816 538.49388 
L 796.883354 543.966722 
z
" clip-path="url(#paa4539c91b)" style="stroke: #000000; stroke-linecap: round"/>
   </g>
   <g id="patch_7">
    <path d="M 429.612906 509.03949 
Q 474.024594 509.03949 517.318248 509.03949 
" clip-path="url(#paa4539c91b)" style="fill: none; stroke: #000000; stroke-linecap: round"/>
    <path d="M 509.318248 505.03949 
L 517.318248 509.03949 
L 509.318248 513.03949 
z
" clip-path="url(#paa4539c91b)" style="stroke: #000000; stroke-linecap: round"/>
   </g>
   <g id="patch_8">
    <path d="M 681.300531 614.875779 
Q 743.696863 577.944843 805.131058 541.583374 
" clip-path="url(#paa4539c91b)" style="fill: none; stroke: #000000; stroke-linecap: round"/>
    <path d="M 796.20918 542.215898 
L 805.131058 541.583374 
L 800.283951 549.100391 
z
" clip-path="url(#paa4539c91b)" style="stroke: #000000; stroke-linecap: round"/>
   </g>
   <g id="patch_9">
    <path d="M 819.990796 717.625182 
Q 872.624955 670.329647 924.427497 623.78138 
" clip-path="url(#paa4539c91b)" style="fill: none; stroke: #000000; stroke-linecap: round"/>
    <path d="M 915.803408 626.153109 
L 924.427497 623.78138 
L 921.150427 632.103688 
z
" clip-path="url(#paa4539c91b)" style="stroke: #000000; stroke-linecap: round"/>
   </g>
   <g id="patch_10">
    <path d="M 680.010848 668.33057 
Q 743.697254 605.506403 806.587721 543.467398 
" clip-path="url(#paa4539c91b)" style="fill: none; stroke: #000000; stroke-linecap: round"/>
    <path d="M 798.08336 546.237929 
L 806.587721 543.467398 
L 803.701529 551.933206 
z
" clip-path="url(#paa4539c91b)" style="stroke: #000000; stroke-linecap: round"/>
   </g>
   <g id="patch_11">
    <path d="M 940.360344 617.247572 
Q 993.371758 617.247572 1045.265139 617.247572 
" clip-path="url(#paa4539c91b)" style="fill: none; stroke: #000000; stroke-linecap: round"/>
    <path d="M 1037.265139 613.247572 
L 1045.265139 617.247572 
L 1037.265139 621.247572 
z
" clip-path="url(#paa4539c91b)" style="stroke: #000000; stroke-linecap: round"/>
   </g>
   <g id="patch_12">
    <path d="M 678.923677 722.524445 
Q 743.695536 633.071077 807.811687 544.523275 
" clip-path="url(#paa4539c91b)" style="fill: none; stroke: #000000; stroke-linecap: round"/>
    <path d="M 799.879984 548.657047 
L 807.811687 544.523275 
L 806.359683 553.348901 
z
" clip-path="url(#paa4539c91b)" style="stroke: #000000; stroke-linecap: round"/>
   </g>
   <g id="patch_13">
    <path d="M 678.092311 296.083753 
Q 743.694078 412.568228 808.747213 528.078535 
" clip-path="url(#paa4539c91b)" style="fill: none; stroke: #000000; stroke-linecap: round"/>
    <path d="M 808.306809 519.145112 
L 808.747213 528.078535 
L 801.336232 523.070804 
z
" clip-path="url(#paa4539c91b)" style="stroke: #000000; stroke-linecap: round"/>
   </g>
   <g id="patch_14">
    <path d="M 678.923677 350.680391 
Q 743.695536 440.133285 807.811685 528.680616 
" clip-path="url(#paa4539c91b)" style="fill: none; stroke: #000000; stroke-linecap: round"/>
    <path d="M 806.359658 519.854993 
L 807.811685 528.680616 
L 799.879971 524.546863 
z
" clip-path="url(#paa4539c91b)" style="stroke: #000000; stroke-linecap: round"/>
   </g>
   <g id="patch_15">
    <path d="M 680.010848 404.873281 
Q 743.697254 467.697449 806.587721 529.736453 
" clip-path="url(#paa4539c91b)" style="fill: none; stroke: #000000; stroke-linecap: round"/>
    <path d="M 803.701529 521.270646 
L 806.587721 529.736453 
L 798.08336 526.965922 
z
" clip-path="url(#paa4539c91b)" style="stroke: #000000; stroke-linecap: round"/>
   </g>
   <g id="patch_16">
    <path d="M 534.664596 568.371859 
Q 670.320817 643.789083 804.999861 718.663053 
" clip-path="url(#paa4539c91b)" style="fill: none; stroke: #000000; stroke-linecap: round"/>
    <path d="M 799.951364 711.279783 
L 804.999861 718.663053 
L 796.064146 718.271888 
z
" clip-path="url(#paa4539c91b)" style="stroke: #000000; stroke-linecap: round"/>
   </g>
   <g id="patch_17">
    <path d="M 535.753091 564.164362 
Q 600.468369 564.164362 664.065614 564.164362 
" clip-path="url(#paa4539c91b)" style="fill: none; stroke: #000000; stroke-linecap: round"/>
    <path d="M 656.065614 560.164362 
L 664.065614 564.164362 
L 656.065614 568.164362 
z
" clip-path="url(#paa4539c91b)" style="stroke: #000000; stroke-linecap: round"/>
   </g>
   <g id="patch_18">
    <path d="M 535.206729 567.210967 
Q 600.469986 591.726754 664.686617 615.849382 
" clip-path="url(#paa4539c91b)" style="fill: none; stroke: #000000; stroke-linecap: round"/>
    <path d="M 658.604182 609.29164 
L 664.686617 615.849382 
L 655.790962 616.780685 
z
" clip-path="url(#paa4539c91b)" style="stroke: #000000; stroke-linecap: round"/>
   </g>
   <g id="patch_19">
    <path d="M 535.206729 561.117757 
Q 600.469986 536.60197 664.686617 512.479342 
" clip-path="url(#paa4539c91b)" style="fill: none; stroke: #000000; stroke-linecap: round"/>
    <path d="M 655.790962 511.548038 
L 664.686617 512.479342 
L 658.604182 519.037084 
z
" clip-path="url(#paa4539c91b)" style="stroke: #000000; stroke-linecap: round"/>
   </g>
   <g id="patch_20">
    <path d="M 534.022199 569.367647 
Q 600.47139 619.290201 666.026708 668.541198 
" clip-path="url(#paa4539c91b)" style="fill: none; stroke: #000000; stroke-linecap: round"/>
    <path d="M 662.033306 660.537902 
L 666.026708 668.541198 
L 657.22803 666.933942 
z
" clip-path="url(#paa4539c91b)" style="stroke: #000000; stroke-linecap: round"/>
   </g>
   <g id="patch_21">
    <path d="M 531.89497 556.95412 
Q 600.470585 453.913895 668.426763 351.80442 
" clip-path="url(#paa4539c91b)" style="fill: none; stroke: #000000; stroke-linecap: round"/>
    <path d="M 660.664479 356.248174 
L 668.426763 351.80442 
L 667.324395 360.6805 
z
" clip-path="url(#paa4539c91b)" style="stroke: #000000; stroke-linecap: round"/>
   </g>
   <g id="patch_22">
    <path d="M 531.164995 556.522616 
Q 600.469901 426.352563 669.249376 297.169385 
" clip-path="url(#paa4539c91b)" style="fill: none; stroke: #000000; stroke-linecap: round"/>
    <path d="M 661.958949 302.351053 
L 669.249376 297.169385 
L 669.020454 306.110727 
z
" clip-path="url(#paa4539c91b)" style="stroke: #000000; stroke-linecap: round"/>
   </g>
   <g id="patch_23">
    <path d="M 532.844386 557.686752 
Q 600.470799 481.47627 667.355144 406.102049 
" clip-path="url(#paa4539c91b)" style="fill: none; stroke: #000000; stroke-linecap: round"/>
    <path d="M 659.053432 409.430948 
L 667.355144 406.102049 
L 665.037236 414.740759 
z
" clip-path="url(#paa4539c91b)" style="stroke: #000000; stroke-linecap: round"/>
   </g>
   <g id="patch_24">
    <path d="M 532.844386 570.642012 
Q 600.470799 646.852965 667.355147 722.227653 
" clip-path="url(#paa4539c91b)" style="fill: none; stroke: #000000; stroke-linecap: round"/>
    <path d="M 665.037265 713.588937 
L 667.355147 722.227653 
L 659.053444 718.898729 
z
" clip-path="url(#paa4539c91b)" style="stroke: #000000; stroke-linecap: round"/>
   </g>
   <g id="patch_25">
    <path d="M 534.022199 558.961077 
Q 600.47139 509.038523 666.026708 459.787526 
" clip-path="url(#paa4539c91b)" style="fill: none; stroke: #000000; stroke-linecap: round"/>
    <path d="M 657.22803 461.394781 
L 666.026708 459.787526 
L 662.033306 467.790822 
z
" clip-path="url(#paa4539c91b)" style="stroke: #000000; stroke-linecap: round"/>
   </g>
   <g id="patch_26">
    <path d="M 535.206729 512.086094 
Q 600.469986 536.601882 664.686617 560.72451 
" clip-path="url(#paa4539c91b)" style="fill: none; stroke: #000000; stroke-linecap: round"/>
    <path d="M 658.604182 554.166768 
L 664.686617 560.72451 
L 655.790962 561.655813 
z
" clip-path="url(#paa4539c91b)" style="stroke: #000000; stroke-linecap: round"/>
   </g>
   <g id="patch_27">
    <path d="M 534.022199 514.242774 
Q 600.47139 564.165329 666.026708 613.416325 
" clip-path="url(#paa4539c91b)" style="fill: none; stroke: #000000; stroke-linecap: round"/>
    <path d="M 662.033306 605.41303 
L 666.026708 613.416325 
L 657.22803 611.80907 
z
" clip-path="url(#paa4539c91b)" style="stroke: #000000; stroke-linecap: round"/>
   </g>
   <g id="patch_28">
    <path d="M 535.753091 509.03949 
Q 600.468369 509.03949 664.065614 509.03949 
" clip-path="url(#paa4539c91b)" style="fill: none; stroke: #000000; stroke-linecap: round"/>
    <path d="M 656.065614 505.03949 
L 664.065614 509.03949 
L 656.065614 513.03949 
z
" clip-path="url(#paa4539c91b)" style="stroke: #000000; stroke-linecap: round"/>
   </g>
   <g id="patch_29">
    <path d="M 532.844386 515.517099 
Q 600.470799 591.727582 667.355144 667.101802 
" clip-path="url(#paa4539c91b)" style="fill: none; stroke: #000000; stroke-linecap: round"/>
    <path d="M 665.037236 658.463093 
L 667.355144 667.101802 
L 659.053432 663.772903 
z
" clip-path="url(#paa4539c91b)" style="stroke: #000000; stroke-linecap: round"/>
   </g>
   <g id="patch_30">
    <path d="M 532.844386 502.56188 
Q 600.470799 426.351397 667.355144 350.977177 
" clip-path="url(#paa4539c91b)" style="fill: none; stroke: #000000; stroke-linecap: round"/>
    <path d="M 659.053432 354.306076 
L 667.355144 350.977177 
L 665.037236 359.615886 
z
" clip-path="url(#paa4539c91b)" style="stroke: #000000; stroke-linecap: round"/>
   </g>
   <g id="patch_31">
    <path d="M 531.89497 501.829248 
Q 600.470585 398.789022 668.426763 296.679548 
" clip-path="url(#paa4539c91b)" style="fill: none; stroke: #000000; stroke-linecap: round"/>
    <path d="M 660.664479 301.123302 
L 668.426763 296.679548 
L 667.324395 305.555627 
z
" clip-path="url(#paa4539c91b)" style="stroke: #000000; stroke-linecap: round"/>
   </g>
   <g id="patch_32">
    <path d="M 534.022199 503.836205 
Q 600.47139 453.913651 666.026708 404.662654 
" clip-path="url(#paa4539c91b)" style="fill: none; stroke: #000000; stroke-linecap: round"/>
    <path d="M 657.22803 406.269909 
L 666.026708 404.662654 
L 662.033306 412.665949 
z
" clip-path="url(#paa4539c91b)" style="stroke: #000000; stroke-linecap: round"/>
   </g>
   <g id="patch_33">
    <path d="M 531.89497 516.249765 
Q 600.470585 619.290467 668.426765 721.400417 
" clip-path="url(#paa4539c91b)" style="fill: none; stroke: #000000; stroke-linecap: round"/>
    <path d="M 667.324416 712.524335 
L 668.426765 721.400417 
L 660.66449 716.956647 
z
" clip-path="url(#paa4539c91b)" style="stroke: #000000; stroke-linecap: round"/>
   </g>
   <g id="patch_34">
    <path d="M 535.206729 505.992885 
Q 600.469986 481.477098 664.686617 457.35447 
" clip-path="url(#paa4539c91b)" style="fill: none; stroke: #000000; stroke-linecap: round"/>
    <path d="M 655.790962 456.423166 
L 664.686617 457.35447 
L 658.604182 463.912211 
z
" clip-path="url(#paa4539c91b)" style="stroke: #000000; stroke-linecap: round"/>
   </g>
   <g id="matplotlib.axis_1">
    <g id="xtick_1"/>
    <g id="xtick_2"/>
    <g id="xtick_3"/>
    <g id="xtick_4"/>
    <g id="xtick_5"/>
    <g id="xtick_6"/>
    <g id="xtick_7"/>
   </g>
   <g id="matplotlib.axis_2">
    <g id="ytick_1"/>
    <g id="ytick_2"/>
    <g id="ytick_3"/>
    <g id="ytick_4"/>
    <g id="ytick_5"/>
    <g id="ytick_6"/>
    <g id="ytick_7"/>
   </g>
   <g id="PathCollection_1">
    <defs>
     <path id="ma4942df1d1" d="M 0 8.660254 
C 2.296726 8.660254 4.499694 7.747755 6.123724 6.123724 
C 7.747755 4.499694 8.660254 2.296726 8.660254 0 
C 8.660254 -2.296726 7.747755 -4.499694 6.123724 -6.123724 
C 4.499694 -7.747755 2.296726 -8.660254 0 -8.660254 
C -2.296726 -8.660254 -4.499694 -7.747755 -6.123724 -6.123724 
C -7.747755 -4.499694 -8.660254 -2.296726 -8.660254 0 
C -8.660254 2.296726 -7.747755 4.499694 -6.123724 6.123724 
C -4.499694 7.747755 -2.296726 8.660254 0 8.660254 
z
" style="stroke: #2ca02c"/>
    </defs>
    <g clip-path="url(#paa4539c91b)">
     <use xlink:href="#ma4942df1d1" x="420.954545" y="509.03949" style="fill: #2ca02c; stroke: #2ca02c"/>
     <use xlink:href="#ma4942df1d1" x="527.09639" y="564.164362" style="fill: #2ca02c; stroke: #2ca02c"/>
    </g>
   </g>
   <g id="PathCollection_2">
    <defs>
     <path id="m37652d3de4" d="M 0 8.660254 
C 2.296726 8.660254 4.499694 7.747755 6.123724 6.123724 
C 7.747755 4.499694 8.660254 2.296726 8.660254 0 
C 8.660254 -2.296726 7.747755 -4.499694 6.123724 -6.123724 
C 4.499694 -7.747755 2.296726 -8.660254 0 -8.660254 
C -2.296726 -8.660254 -4.499694 -7.747755 -6.123724 -6.123724 
C -7.747755 -4.499694 -8.660254 -2.296726 -8.660254 0 
C -8.660254 2.296726 -7.747755 4.499694 -6.123724 6.123724 
C -4.499694 7.747755 -2.296726 8.660254 0 8.660254 
z
" style="stroke: #1f77b4"/>
    </defs>
    <g clip-path="url(#paa4539c91b)">
     <use xlink:href="#m37652d3de4" x="813.547419" y="536.601926" style="fill: #1f77b4; stroke: #1f77b4"/>
     <use xlink:href="#m37652d3de4" x="673.843817" y="453.914617" style="fill: #1f77b4; stroke: #1f77b4"/>
     <use xlink:href="#m37652d3de4" x="673.843817" y="509.03949" style="fill: #1f77b4; stroke: #1f77b4"/>
     <use xlink:href="#m37652d3de4" x="673.843817" y="564.164362" style="fill: #1f77b4; stroke: #1f77b4"/>
     <use xlink:href="#m37652d3de4" x="673.843817" y="619.289234" style="fill: #1f77b4; stroke: #1f77b4"/>
     <use xlink:href="#m37652d3de4" x="813.547419" y="723.415014" style="fill: #1f77b4; stroke: #1f77b4"/>
     <use xlink:href="#m37652d3de4" x="673.843817" y="674.414107" style="fill: #1f77b4; stroke: #1f77b4"/>
     <use xlink:href="#m37652d3de4" x="931.698827" y="617.247572" style="fill: #1f77b4; stroke: #1f77b4"/>
     <use xlink:href="#m37652d3de4" x="673.843817" y="729.54" style="fill: #1f77b4; stroke: #1f77b4"/>
     <use xlink:href="#m37652d3de4" x="673.843817" y="288.54" style="fill: #1f77b4; stroke: #1f77b4"/>
     <use xlink:href="#m37652d3de4" x="673.843817" y="343.664872" style="fill: #1f77b4; stroke: #1f77b4"/>
     <use xlink:href="#m37652d3de4" x="673.843817" y="398.789745" style="fill: #1f77b4; stroke: #1f77b4"/>
     <use xlink:href="#m37652d3de4" x="527.09639" y="509.03949" style="fill: #1f77b4; stroke: #1f77b4"/>
    </g>
   </g>
   <g id="PathCollection_3">
    <defs>
     <path id="med5840bbd5" d="M 0 8.660254 
C 2.296726 8.660254 4.499694 7.747755 6.123724 6.123724 
C 7.747755 4.499694 8.660254 2.296726 8.660254 0 
C 8.660254 -2.296726 7.747755 -4.499694 6.123724 -6.123724 
C 4.499694 -7.747755 2.296726 -8.660254 0 -8.660254 
C -2.296726 -8.660254 -4.499694 -7.747755 -6.123724 -6.123724 
C -7.747755 -4.499694 -8.660254 -2.296726 -8.660254 0 
C -8.660254 2.296726 -7.747755 4.499694 -6.123724 6.123724 
C -4.499694 7.747755 -2.296726 8.660254 0 8.660254 
z
" style="stroke: #d62728"/>
    </defs>
    <g clip-path="url(#paa4539c91b)">
     <use xlink:href="#med5840bbd5" x="1055.045455" y="617.247572" style="fill: #d62728; stroke: #d62728"/>
    </g>
   </g>
   <g id="patch_35">
    <path d="M 180 897.12 
L 180 120.96 
" style="fill: none; stroke: #000000; stroke-width: 0.8; stroke-linejoin: miter; stroke-linecap: square"/>
   </g>
   <g id="patch_36">
    <path d="M 1296 897.12 
L 1296 120.96 
" style="fill: none; stroke: #000000; stroke-width: 0.8; stroke-linejoin: miter; stroke-linecap: square"/>
   </g>
   <g id="patch_37">
    <path d="M 180 897.12 
L 1296 897.12 
" style="fill: none; stroke: #000000; stroke-width: 0.8; stroke-linejoin: miter; stroke-linecap: square"/>
   </g>
   <g id="patch_38">
    <path d="M 180 120.96 
L 1296 120.96 
" style="fill: none; stroke: #000000; stroke-width: 0.8; stroke-linejoin: miter; stroke-linecap: square"/>
   </g>
   <g id="text_1">
    <g id="patch_39">
     <path d="M 348.192117 518.61324 
L 412.030242 518.61324 
Q 415.630242 518.61324 415.630242 515.01324 
L 415.630242 503.06574 
Q 415.630242 499.46574 412.030242 499.46574 
L 348.192117 499.46574 
Q 344.592117 499.46574 344.592117 503.06574 
L 344.592117 515.01324 
Q 344.592117 518.61324 348.192117 518.61324 
z
" clip-path="url(#paa4539c91b)" style="fill: #2ca02c; stroke: #000000; stroke-linejoin: miter"/>
    </g>
    <g clip-path="url(#paa4539c91b)">
     <!-- edfi_roster -->
     <g style="fill: #f5f5f5" transform="translate(348.192117 512.183865) scale(0.12 -0.12)">
      <defs>
       <path id="DejaVuSans-65" d="M 3597 1894 
L 3597 1613 
L 953 1613 
Q 991 1019 1311 708 
Q 1631 397 2203 397 
Q 2534 397 2845 478 
Q 3156 559 3463 722 
L 3463 178 
Q 3153 47 2828 -22 
Q 2503 -91 2169 -91 
Q 1331 -91 842 396 
Q 353 884 353 1716 
Q 353 2575 817 3079 
Q 1281 3584 2069 3584 
Q 2775 3584 3186 3129 
Q 3597 2675 3597 1894 
z
M 3022 2063 
Q 3016 2534 2758 2815 
Q 2500 3097 2075 3097 
Q 1594 3097 1305 2825 
Q 1016 2553 972 2059 
L 3022 2063 
z
" transform="scale(0.015625)"/>
       <path id="DejaVuSans-64" d="M 2906 2969 
L 2906 4863 
L 3481 4863 
L 3481 0 
L 2906 0 
L 2906 525 
Q 2725 213 2448 61 
Q 2172 -91 1784 -91 
Q 1150 -91 751 415 
Q 353 922 353 1747 
Q 353 2572 751 3078 
Q 1150 3584 1784 3584 
Q 2172 3584 2448 3432 
Q 2725 3281 2906 2969 
z
M 947 1747 
Q 947 1113 1208 752 
Q 1469 391 1925 391 
Q 2381 391 2643 752 
Q 2906 1113 2906 1747 
Q 2906 2381 2643 2742 
Q 2381 3103 1925 3103 
Q 1469 3103 1208 2742 
Q 947 2381 947 1747 
z
" transform="scale(0.015625)"/>
       <path id="DejaVuSans-66" d="M 2375 4863 
L 2375 4384 
L 1825 4384 
Q 1516 4384 1395 4259 
Q 1275 4134 1275 3809 
L 1275 3500 
L 2222 3500 
L 2222 3053 
L 1275 3053 
L 1275 0 
L 697 0 
L 697 3053 
L 147 3053 
L 147 3500 
L 697 3500 
L 697 3744 
Q 697 4328 969 4595 
Q 1241 4863 1831 4863 
L 2375 4863 
z
" transform="scale(0.015625)"/>
       <path id="DejaVuSans-69" d="M 603 3500 
L 1178 3500 
L 1178 0 
L 603 0 
L 603 3500 
z
M 603 4863 
L 1178 4863 
L 1178 4134 
L 603 4134 
L 603 4863 
z
" transform="scale(0.015625)"/>
       <path id="DejaVuSans-5f" d="M 3263 -1063 
L 3263 -1509 
L -63 -1509 
L -63 -1063 
L 3263 -1063 
z
" transform="scale(0.015625)"/>
       <path id="DejaVuSans-72" d="M 2631 2963 
Q 2534 3019 2420 3045 
Q 2306 3072 2169 3072 
Q 1681 3072 1420 2755 
Q 1159 2438 1159 1844 
L 1159 0 
L 581 0 
L 581 3500 
L 1159 3500 
L 1159 2956 
Q 1341 3275 1631 3429 
Q 1922 3584 2338 3584 
Q 2397 3584 2469 3576 
Q 2541 3569 2628 3553 
L 2631 2963 
z
" transform="scale(0.015625)"/>
       <path id="DejaVuSans-6f" d="M 1959 3097 
Q 1497 3097 1228 2736 
Q 959 2375 959 1747 
Q 959 1119 1226 758 
Q 1494 397 1959 397 
Q 2419 397 2687 759 
Q 2956 1122 2956 1747 
Q 2956 2369 2687 2733 
Q 2419 3097 1959 3097 
z
M 1959 3584 
Q 2709 3584 3137 3096 
Q 3566 2609 3566 1747 
Q 3566 888 3137 398 
Q 2709 -91 1959 -91 
Q 1206 -91 779 398 
Q 353 888 353 1747 
Q 353 2609 779 3096 
Q 1206 3584 1959 3584 
z
" transform="scale(0.015625)"/>
       <path id="DejaVuSans-73" d="M 2834 3397 
L 2834 2853 
Q 2591 2978 2328 3040 
Q 2066 3103 1784 3103 
Q 1356 3103 1142 2972 
Q 928 2841 928 2578 
Q 928 2378 1081 2264 
Q 1234 2150 1697 2047 
L 1894 2003 
Q 2506 1872 2764 1633 
Q 3022 1394 3022 966 
Q 3022 478 2636 193 
Q 2250 -91 1575 -91 
Q 1294 -91 989 -36 
Q 684 19 347 128 
L 347 722 
Q 666 556 975 473 
Q 1284 391 1588 391 
Q 1994 391 2212 530 
Q 2431 669 2431 922 
Q 2431 1156 2273 1281 
Q 2116 1406 1581 1522 
L 1381 1569 
Q 847 1681 609 1914 
Q 372 2147 372 2553 
Q 372 3047 722 3315 
Q 1072 3584 1716 3584 
Q 2034 3584 2315 3537 
Q 2597 3491 2834 3397 
z
" transform="scale(0.015625)"/>
       <path id="DejaVuSans-74" d="M 1172 4494 
L 1172 3500 
L 2356 3500 
L 2356 3053 
L 1172 3053 
L 1172 1153 
Q 1172 725 1289 603 
Q 1406 481 1766 481 
L 2356 481 
L 2356 0 
L 1766 0 
Q 1100 0 847 248 
Q 594 497 594 1153 
L 594 3053 
L 172 3053 
L 172 3500 
L 594 3500 
L 594 4494 
L 1172 4494 
z
" transform="scale(0.015625)"/>
      </defs>
      <use xlink:href="#DejaVuSans-65"/>
      <use xlink:href="#DejaVuSans-64" x="61.523438"/>
      <use xlink:href="#DejaVuSans-66" x="125"/>
      <use xlink:href="#DejaVuSans-69" x="160.205078"/>
      <use xlink:href="#DejaVuSans-5f" x="187.988281"/>
      <use xlink:href="#DejaVuSans-72" x="237.988281"/>
      <use xlink:href="#DejaVuSans-6f" x="276.851562"/>
      <use xlink:href="#DejaVuSans-73" x="338.033203"/>
      <use xlink:href="#DejaVuSans-74" x="390.132812"/>
      <use xlink:href="#DejaVuSans-65" x="429.341797"/>
      <use xlink:href="#DejaVuSans-72" x="490.865234"/>
     </g>
    </g>
   </g>
   <g id="text_2">
    <g id="patch_40">
     <path d="M 416.488961 573.738112 
L 518.172086 573.738112 
Q 521.772086 573.738112 521.772086 570.138112 
L 521.772086 558.190612 
Q 521.772086 554.590612 518.172086 554.590612 
L 416.488961 554.590612 
Q 412.888961 554.590612 412.888961 558.190612 
L 412.888961 570.138112 
Q 412.888961 573.738112 416.488961 573.738112 
z
" clip-path="url(#paa4539c91b)" style="fill: #2ca02c; stroke: #000000; stroke-linejoin: miter"/>
    </g>
    <g clip-path="url(#paa4539c91b)">
     <!-- nwea_map_input -->
     <g style="fill: #f5f5f5" transform="translate(416.488961 567.308737) scale(0.12 -0.12)">
      <defs>
       <path id="DejaVuSans-6e" d="M 3513 2113 
L 3513 0 
L 2938 0 
L 2938 2094 
Q 2938 2591 2744 2837 
Q 2550 3084 2163 3084 
Q 1697 3084 1428 2787 
Q 1159 2491 1159 1978 
L 1159 0 
L 581 0 
L 581 3500 
L 1159 3500 
L 1159 2956 
Q 1366 3272 1645 3428 
Q 1925 3584 2291 3584 
Q 2894 3584 3203 3211 
Q 3513 2838 3513 2113 
z
" transform="scale(0.015625)"/>
       <path id="DejaVuSans-77" d="M 269 3500 
L 844 3500 
L 1563 769 
L 2278 3500 
L 2956 3500 
L 3675 769 
L 4391 3500 
L 4966 3500 
L 4050 0 
L 3372 0 
L 2619 2869 
L 1863 0 
L 1184 0 
L 269 3500 
z
" transform="scale(0.015625)"/>
       <path id="DejaVuSans-61" d="M 2194 1759 
Q 1497 1759 1228 1600 
Q 959 1441 959 1056 
Q 959 750 1161 570 
Q 1363 391 1709 391 
Q 2188 391 2477 730 
Q 2766 1069 2766 1631 
L 2766 1759 
L 2194 1759 
z
M 3341 1997 
L 3341 0 
L 2766 0 
L 2766 531 
Q 2569 213 2275 61 
Q 1981 -91 1556 -91 
Q 1019 -91 701 211 
Q 384 513 384 1019 
Q 384 1609 779 1909 
Q 1175 2209 1959 2209 
L 2766 2209 
L 2766 2266 
Q 2766 2663 2505 2880 
Q 2244 3097 1772 3097 
Q 1472 3097 1187 3025 
Q 903 2953 641 2809 
L 641 3341 
Q 956 3463 1253 3523 
Q 1550 3584 1831 3584 
Q 2591 3584 2966 3190 
Q 3341 2797 3341 1997 
z
" transform="scale(0.015625)"/>
       <path id="DejaVuSans-6d" d="M 3328 2828 
Q 3544 3216 3844 3400 
Q 4144 3584 4550 3584 
Q 5097 3584 5394 3201 
Q 5691 2819 5691 2113 
L 5691 0 
L 5113 0 
L 5113 2094 
Q 5113 2597 4934 2840 
Q 4756 3084 4391 3084 
Q 3944 3084 3684 2787 
Q 3425 2491 3425 1978 
L 3425 0 
L 2847 0 
L 2847 2094 
Q 2847 2600 2669 2842 
Q 2491 3084 2119 3084 
Q 1678 3084 1418 2786 
Q 1159 2488 1159 1978 
L 1159 0 
L 581 0 
L 581 3500 
L 1159 3500 
L 1159 2956 
Q 1356 3278 1631 3431 
Q 1906 3584 2284 3584 
Q 2666 3584 2933 3390 
Q 3200 3197 3328 2828 
z
" transform="scale(0.015625)"/>
       <path id="DejaVuSans-70" d="M 1159 525 
L 1159 -1331 
L 581 -1331 
L 581 3500 
L 1159 3500 
L 1159 2969 
Q 1341 3281 1617 3432 
Q 1894 3584 2278 3584 
Q 2916 3584 3314 3078 
Q 3713 2572 3713 1747 
Q 3713 922 3314 415 
Q 2916 -91 2278 -91 
Q 1894 -91 1617 61 
Q 1341 213 1159 525 
z
M 3116 1747 
Q 3116 2381 2855 2742 
Q 2594 3103 2138 3103 
Q 1681 3103 1420 2742 
Q 1159 2381 1159 1747 
Q 1159 1113 1420 752 
Q 1681 391 2138 391 
Q 2594 391 2855 752 
Q 3116 1113 3116 1747 
z
" transform="scale(0.015625)"/>
       <path id="DejaVuSans-75" d="M 544 1381 
L 544 3500 
L 1119 3500 
L 1119 1403 
Q 1119 906 1312 657 
Q 1506 409 1894 409 
Q 2359 409 2629 706 
Q 2900 1003 2900 1516 
L 2900 3500 
L 3475 3500 
L 3475 0 
L 2900 0 
L 2900 538 
Q 2691 219 2414 64 
Q 2138 -91 1772 -91 
Q 1169 -91 856 284 
Q 544 659 544 1381 
z
M 1991 3584 
L 1991 3584 
z
" transform="scale(0.015625)"/>
      </defs>
      <use xlink:href="#DejaVuSans-6e"/>
      <use xlink:href="#DejaVuSans-77" x="63.378906"/>
      <use xlink:href="#DejaVuSans-65" x="145.166016"/>
      <use xlink:href="#DejaVuSans-61" x="206.689453"/>
      <use xlink:href="#DejaVuSans-5f" x="267.96875"/>
      <use xlink:href="#DejaVuSans-6d" x="317.96875"/>
      <use xlink:href="#DejaVuSans-61" x="415.380859"/>
      <use xlink:href="#DejaVuSans-70" x="476.660156"/>
      <use xlink:href="#DejaVuSans-5f" x="540.136719"/>
      <use xlink:href="#DejaVuSans-69" x="590.136719"/>
      <use xlink:href="#DejaVuSans-6e" x="617.919922"/>
      <use xlink:href="#DejaVuSans-70" x="681.298828"/>
      <use xlink:href="#DejaVuSans-75" x="744.775391"/>
      <use xlink:href="#DejaVuSans-74" x="808.154297"/>
     </g>
    </g>
   </g>
   <g id="text_3">
    <g clip-path="url(#paa4539c91b)">
     <!-- 6 rows; 3 cols; 4KB -->
     <g transform="translate(336.067742 523.496961) scale(0.08 -0.08)">
      <defs>
       <path id="DejaVuSans-36" d="M 2113 2584 
Q 1688 2584 1439 2293 
Q 1191 2003 1191 1497 
Q 1191 994 1439 701 
Q 1688 409 2113 409 
Q 2538 409 2786 701 
Q 3034 994 3034 1497 
Q 3034 2003 2786 2293 
Q 2538 2584 2113 2584 
z
M 3366 4563 
L 3366 3988 
Q 3128 4100 2886 4159 
Q 2644 4219 2406 4219 
Q 1781 4219 1451 3797 
Q 1122 3375 1075 2522 
Q 1259 2794 1537 2939 
Q 1816 3084 2150 3084 
Q 2853 3084 3261 2657 
Q 3669 2231 3669 1497 
Q 3669 778 3244 343 
Q 2819 -91 2113 -91 
Q 1303 -91 875 529 
Q 447 1150 447 2328 
Q 447 3434 972 4092 
Q 1497 4750 2381 4750 
Q 2619 4750 2861 4703 
Q 3103 4656 3366 4563 
z
" transform="scale(0.015625)"/>
       <path id="DejaVuSans-20" transform="scale(0.015625)"/>
       <path id="DejaVuSans-3b" d="M 750 3309 
L 1409 3309 
L 1409 2516 
L 750 2516 
L 750 3309 
z
M 750 794 
L 1409 794 
L 1409 256 
L 897 -744 
L 494 -744 
L 750 256 
L 750 794 
z
" transform="scale(0.015625)"/>
       <path id="DejaVuSans-33" d="M 2597 2516 
Q 3050 2419 3304 2112 
Q 3559 1806 3559 1356 
Q 3559 666 3084 287 
Q 2609 -91 1734 -91 
Q 1441 -91 1130 -33 
Q 819 25 488 141 
L 488 750 
Q 750 597 1062 519 
Q 1375 441 1716 441 
Q 2309 441 2620 675 
Q 2931 909 2931 1356 
Q 2931 1769 2642 2001 
Q 2353 2234 1838 2234 
L 1294 2234 
L 1294 2753 
L 1863 2753 
Q 2328 2753 2575 2939 
Q 2822 3125 2822 3475 
Q 2822 3834 2567 4026 
Q 2313 4219 1838 4219 
Q 1578 4219 1281 4162 
Q 984 4106 628 3988 
L 628 4550 
Q 988 4650 1302 4700 
Q 1616 4750 1894 4750 
Q 2613 4750 3031 4423 
Q 3450 4097 3450 3541 
Q 3450 3153 3228 2886 
Q 3006 2619 2597 2516 
z
" transform="scale(0.015625)"/>
       <path id="DejaVuSans-63" d="M 3122 3366 
L 3122 2828 
Q 2878 2963 2633 3030 
Q 2388 3097 2138 3097 
Q 1578 3097 1268 2742 
Q 959 2388 959 1747 
Q 959 1106 1268 751 
Q 1578 397 2138 397 
Q 2388 397 2633 464 
Q 2878 531 3122 666 
L 3122 134 
Q 2881 22 2623 -34 
Q 2366 -91 2075 -91 
Q 1284 -91 818 406 
Q 353 903 353 1747 
Q 353 2603 823 3093 
Q 1294 3584 2113 3584 
Q 2378 3584 2631 3529 
Q 2884 3475 3122 3366 
z
" transform="scale(0.015625)"/>
       <path id="DejaVuSans-6c" d="M 603 4863 
L 1178 4863 
L 1178 0 
L 603 0 
L 603 4863 
z
" transform="scale(0.015625)"/>
       <path id="DejaVuSans-34" d="M 2419 4116 
L 825 1625 
L 2419 1625 
L 2419 4116 
z
M 2253 4666 
L 3047 4666 
L 3047 1625 
L 3713 1625 
L 3713 1100 
L 3047 1100 
L 3047 0 
L 2419 0 
L 2419 1100 
L 313 1100 
L 313 1709 
L 2253 4666 
z
" transform="scale(0.015625)"/>
       <path id="DejaVuSans-4b" d="M 628 4666 
L 1259 4666 
L 1259 2694 
L 3353 4666 
L 4166 4666 
L 1850 2491 
L 4331 0 
L 3500 0 
L 1259 2247 
L 1259 0 
L 628 0 
L 628 4666 
z
" transform="scale(0.015625)"/>
       <path id="DejaVuSans-42" d="M 1259 2228 
L 1259 519 
L 2272 519 
Q 2781 519 3026 730 
Q 3272 941 3272 1375 
Q 3272 1813 3026 2020 
Q 2781 2228 2272 2228 
L 1259 2228 
z
M 1259 4147 
L 1259 2741 
L 2194 2741 
Q 2656 2741 2882 2914 
Q 3109 3088 3109 3444 
Q 3109 3797 2882 3972 
Q 2656 4147 2194 4147 
L 1259 4147 
z
M 628 4666 
L 2241 4666 
Q 2963 4666 3353 4366 
Q 3744 4066 3744 3513 
Q 3744 3084 3544 2831 
Q 3344 2578 2956 2516 
Q 3422 2416 3680 2098 
Q 3938 1781 3938 1306 
Q 3938 681 3513 340 
Q 3088 0 2303 0 
L 628 0 
L 628 4666 
z
" transform="scale(0.015625)"/>
      </defs>
      <use xlink:href="#DejaVuSans-36"/>
      <use xlink:href="#DejaVuSans-20" x="63.623047"/>
      <use xlink:href="#DejaVuSans-72" x="95.410156"/>
      <use xlink:href="#DejaVuSans-6f" x="134.273438"/>
      <use xlink:href="#DejaVuSans-77" x="195.455078"/>
      <use xlink:href="#DejaVuSans-73" x="277.242188"/>
      <use xlink:href="#DejaVuSans-3b" x="329.341797"/>
      <use xlink:href="#DejaVuSans-20" x="363.033203"/>
      <use xlink:href="#DejaVuSans-33" x="394.820312"/>
      <use xlink:href="#DejaVuSans-20" x="458.443359"/>
      <use xlink:href="#DejaVuSans-63" x="490.230469"/>
      <use xlink:href="#DejaVuSans-6f" x="545.210938"/>
      <use xlink:href="#DejaVuSans-6c" x="606.392578"/>
      <use xlink:href="#DejaVuSans-73" x="634.175781"/>
      <use xlink:href="#DejaVuSans-3b" x="686.275391"/>
      <use xlink:href="#DejaVuSans-20" x="719.966797"/>
      <use xlink:href="#DejaVuSans-34" x="751.753906"/>
      <use xlink:href="#DejaVuSans-4b" x="815.376953"/>
      <use xlink:href="#DejaVuSans-42" x="880.953125"/>
     </g>
    </g>
   </g>
   <g id="text_4">
    <g clip-path="url(#paa4539c91b)">
     <!-- 6 rows; 143 cols; 7KB -->
     <g transform="translate(432.029586 578.621834) scale(0.08 -0.08)">
      <defs>
       <path id="DejaVuSans-31" d="M 794 531 
L 1825 531 
L 1825 4091 
L 703 3866 
L 703 4441 
L 1819 4666 
L 2450 4666 
L 2450 531 
L 3481 531 
L 3481 0 
L 794 0 
L 794 531 
z
" transform="scale(0.015625)"/>
       <path id="DejaVuSans-37" d="M 525 4666 
L 3525 4666 
L 3525 4397 
L 1831 0 
L 1172 0 
L 2766 4134 
L 525 4134 
L 525 4666 
z
" transform="scale(0.015625)"/>
      </defs>
      <use xlink:href="#DejaVuSans-36"/>
      <use xlink:href="#DejaVuSans-20" x="63.623047"/>
      <use xlink:href="#DejaVuSans-72" x="95.410156"/>
      <use xlink:href="#DejaVuSans-6f" x="134.273438"/>
      <use xlink:href="#DejaVuSans-77" x="195.455078"/>
      <use xlink:href="#DejaVuSans-73" x="277.242188"/>
      <use xlink:href="#DejaVuSans-3b" x="329.341797"/>
      <use xlink:href="#DejaVuSans-20" x="363.033203"/>
      <use xlink:href="#DejaVuSans-31" x="394.820312"/>
      <use xlink:href="#DejaVuSans-34" x="458.443359"/>
      <use xlink:href="#DejaVuSans-33" x="522.066406"/>
      <use xlink:href="#DejaVuSans-20" x="585.689453"/>
      <use xlink:href="#DejaVuSans-63" x="617.476562"/>
      <use xlink:href="#DejaVuSans-6f" x="672.457031"/>
      <use xlink:href="#DejaVuSans-6c" x="733.638672"/>
      <use xlink:href="#DejaVuSans-73" x="761.421875"/>
      <use xlink:href="#DejaVuSans-3b" x="813.521484"/>
      <use xlink:href="#DejaVuSans-20" x="847.212891"/>
      <use xlink:href="#DejaVuSans-37" x="879"/>
      <use xlink:href="#DejaVuSans-4b" x="942.623047"/>
      <use xlink:href="#DejaVuSans-42" x="1008.199219"/>
     </g>
    </g>
   </g>
   <g id="text_5">
    <g id="patch_41">
     <path d="M 773.402731 532.904873 
L 853.692106 532.904873 
Q 857.292106 532.904873 857.292106 529.304873 
L 857.292106 517.357373 
Q 857.292106 513.757373 853.692106 513.757373 
L 773.402731 513.757373 
Q 769.802731 513.757373 769.802731 517.357373 
L 769.802731 529.304873 
Q 769.802731 532.904873 773.402731 532.904873 
z
" clip-path="url(#paa4539c91b)" style="fill: #1f77b4; stroke: #000000; stroke-linejoin: miter"/>
    </g>
    <g clip-path="url(#paa4539c91b)">
     <!-- stacked_joins -->
     <g style="fill: #f5f5f5" transform="translate(773.402731 526.475498) scale(0.12 -0.12)">
      <defs>
       <path id="DejaVuSans-6b" d="M 581 4863 
L 1159 4863 
L 1159 1991 
L 2875 3500 
L 3609 3500 
L 1753 1863 
L 3688 0 
L 2938 0 
L 1159 1709 
L 1159 0 
L 581 0 
L 581 4863 
z
" transform="scale(0.015625)"/>
       <path id="DejaVuSans-6a" d="M 603 3500 
L 1178 3500 
L 1178 -63 
Q 1178 -731 923 -1031 
Q 669 -1331 103 -1331 
L -116 -1331 
L -116 -844 
L 38 -844 
Q 366 -844 484 -692 
Q 603 -541 603 -63 
L 603 3500 
z
M 603 4863 
L 1178 4863 
L 1178 4134 
L 603 4134 
L 603 4863 
z
" transform="scale(0.015625)"/>
      </defs>
      <use xlink:href="#DejaVuSans-73"/>
      <use xlink:href="#DejaVuSans-74" x="52.099609"/>
      <use xlink:href="#DejaVuSans-61" x="91.308594"/>
      <use xlink:href="#DejaVuSans-63" x="152.587891"/>
      <use xlink:href="#DejaVuSans-6b" x="207.568359"/>
      <use xlink:href="#DejaVuSans-65" x="261.853516"/>
      <use xlink:href="#DejaVuSans-64" x="323.376953"/>
      <use xlink:href="#DejaVuSans-5f" x="386.853516"/>
      <use xlink:href="#DejaVuSans-6a" x="436.853516"/>
      <use xlink:href="#DejaVuSans-6f" x="464.636719"/>
      <use xlink:href="#DejaVuSans-69" x="525.818359"/>
      <use xlink:href="#DejaVuSans-6e" x="553.601562"/>
      <use xlink:href="#DejaVuSans-73" x="616.980469"/>
     </g>
    </g>
   </g>
   <g id="text_6">
    <g id="patch_42">
     <path d="M 592.262567 450.217565 
L 755.425067 450.217565 
Q 759.025067 450.217565 759.025067 446.617565 
L 759.025067 434.670065 
Q 759.025067 431.070065 755.425067 431.070065 
L 592.262567 431.070065 
Q 588.662567 431.070065 588.662567 434.670065 
L 588.662567 446.617565 
Q 588.662567 450.217565 592.262567 450.217565 
z
" clip-path="url(#paa4539c91b)" style="fill: #1f77b4; stroke: #000000; stroke-linejoin: miter"/>
    </g>
    <g clip-path="url(#paa4539c91b)">
     <!-- Student_StateID_State_join -->
     <g style="fill: #f5f5f5" transform="translate(592.262567 443.78819) scale(0.12 -0.12)">
      <defs>
       <path id="DejaVuSans-53" d="M 3425 4513 
L 3425 3897 
Q 3066 4069 2747 4153 
Q 2428 4238 2131 4238 
Q 1616 4238 1336 4038 
Q 1056 3838 1056 3469 
Q 1056 3159 1242 3001 
Q 1428 2844 1947 2747 
L 2328 2669 
Q 3034 2534 3370 2195 
Q 3706 1856 3706 1288 
Q 3706 609 3251 259 
Q 2797 -91 1919 -91 
Q 1588 -91 1214 -16 
Q 841 59 441 206 
L 441 856 
Q 825 641 1194 531 
Q 1563 422 1919 422 
Q 2459 422 2753 634 
Q 3047 847 3047 1241 
Q 3047 1584 2836 1778 
Q 2625 1972 2144 2069 
L 1759 2144 
Q 1053 2284 737 2584 
Q 422 2884 422 3419 
Q 422 4038 858 4394 
Q 1294 4750 2059 4750 
Q 2388 4750 2728 4690 
Q 3069 4631 3425 4513 
z
" transform="scale(0.015625)"/>
       <path id="DejaVuSans-49" d="M 628 4666 
L 1259 4666 
L 1259 0 
L 628 0 
L 628 4666 
z
" transform="scale(0.015625)"/>
       <path id="DejaVuSans-44" d="M 1259 4147 
L 1259 519 
L 2022 519 
Q 2988 519 3436 956 
Q 3884 1394 3884 2338 
Q 3884 3275 3436 3711 
Q 2988 4147 2022 4147 
L 1259 4147 
z
M 628 4666 
L 1925 4666 
Q 3281 4666 3915 4102 
Q 4550 3538 4550 2338 
Q 4550 1131 3912 565 
Q 3275 0 1925 0 
L 628 0 
L 628 4666 
z
" transform="scale(0.015625)"/>
      </defs>
      <use xlink:href="#DejaVuSans-53"/>
      <use xlink:href="#DejaVuSans-74" x="63.476562"/>
      <use xlink:href="#DejaVuSans-75" x="102.685547"/>
      <use xlink:href="#DejaVuSans-64" x="166.064453"/>
      <use xlink:href="#DejaVuSans-65" x="229.541016"/>
      <use xlink:href="#DejaVuSans-6e" x="291.064453"/>
      <use xlink:href="#DejaVuSans-74" x="354.443359"/>
      <use xlink:href="#DejaVuSans-5f" x="393.652344"/>
      <use xlink:href="#DejaVuSans-53" x="443.652344"/>
      <use xlink:href="#DejaVuSans-74" x="507.128906"/>
      <use xlink:href="#DejaVuSans-61" x="546.337891"/>
      <use xlink:href="#DejaVuSans-74" x="607.617188"/>
      <use xlink:href="#DejaVuSans-65" x="646.826172"/>
      <use xlink:href="#DejaVuSans-49" x="708.349609"/>
      <use xlink:href="#DejaVuSans-44" x="737.841797"/>
      <use xlink:href="#DejaVuSans-5f" x="814.84375"/>
      <use xlink:href="#DejaVuSans-53" x="864.84375"/>
      <use xlink:href="#DejaVuSans-74" x="928.320312"/>
      <use xlink:href="#DejaVuSans-61" x="967.529297"/>
      <use xlink:href="#DejaVuSans-74" x="1028.808594"/>
      <use xlink:href="#DejaVuSans-65" x="1068.017578"/>
      <use xlink:href="#DejaVuSans-5f" x="1129.541016"/>
      <use xlink:href="#DejaVuSans-6a" x="1179.541016"/>
      <use xlink:href="#DejaVuSans-6f" x="1207.324219"/>
      <use xlink:href="#DejaVuSans-69" x="1268.505859"/>
      <use xlink:href="#DejaVuSans-6e" x="1296.289062"/>
     </g>
    </g>
   </g>
   <g id="text_7">
    <g id="patch_43">
     <path d="M 595.961942 505.342437 
L 751.725692 505.342437 
Q 755.325692 505.342437 755.325692 501.742437 
L 755.325692 489.794937 
Q 755.325692 486.194937 751.725692 486.194937 
L 595.961942 486.194937 
Q 592.361942 486.194937 592.361942 489.794937 
L 592.361942 501.742437 
Q 592.361942 505.342437 595.961942 505.342437 
z
" clip-path="url(#paa4539c91b)" style="fill: #1f77b4; stroke: #000000; stroke-linejoin: miter"/>
    </g>
    <g clip-path="url(#paa4539c91b)">
     <!-- School_StateID_State_join -->
     <g style="fill: #f5f5f5" transform="translate(595.961942 498.913062) scale(0.12 -0.12)">
      <defs>
       <path id="DejaVuSans-68" d="M 3513 2113 
L 3513 0 
L 2938 0 
L 2938 2094 
Q 2938 2591 2744 2837 
Q 2550 3084 2163 3084 
Q 1697 3084 1428 2787 
Q 1159 2491 1159 1978 
L 1159 0 
L 581 0 
L 581 4863 
L 1159 4863 
L 1159 2956 
Q 1366 3272 1645 3428 
Q 1925 3584 2291 3584 
Q 2894 3584 3203 3211 
Q 3513 2838 3513 2113 
z
" transform="scale(0.015625)"/>
      </defs>
      <use xlink:href="#DejaVuSans-53"/>
      <use xlink:href="#DejaVuSans-63" x="63.476562"/>
      <use xlink:href="#DejaVuSans-68" x="118.457031"/>
      <use xlink:href="#DejaVuSans-6f" x="181.835938"/>
      <use xlink:href="#DejaVuSans-6f" x="243.017578"/>
      <use xlink:href="#DejaVuSans-6c" x="304.199219"/>
      <use xlink:href="#DejaVuSans-5f" x="331.982422"/>
      <use xlink:href="#DejaVuSans-53" x="381.982422"/>
      <use xlink:href="#DejaVuSans-74" x="445.458984"/>
      <use xlink:href="#DejaVuSans-61" x="484.667969"/>
      <use xlink:href="#DejaVuSans-74" x="545.947266"/>
      <use xlink:href="#DejaVuSans-65" x="585.15625"/>
      <use xlink:href="#DejaVuSans-49" x="646.679688"/>
      <use xlink:href="#DejaVuSans-44" x="676.171875"/>
      <use xlink:href="#DejaVuSans-5f" x="753.173828"/>
      <use xlink:href="#DejaVuSans-53" x="803.173828"/>
      <use xlink:href="#DejaVuSans-74" x="866.650391"/>
      <use xlink:href="#DejaVuSans-61" x="905.859375"/>
      <use xlink:href="#DejaVuSans-74" x="967.138672"/>
      <use xlink:href="#DejaVuSans-65" x="1006.347656"/>
      <use xlink:href="#DejaVuSans-5f" x="1067.871094"/>
      <use xlink:href="#DejaVuSans-6a" x="1117.871094"/>
      <use xlink:href="#DejaVuSans-6f" x="1145.654297"/>
      <use xlink:href="#DejaVuSans-69" x="1206.835938"/>
      <use xlink:href="#DejaVuSans-6e" x="1234.619141"/>
     </g>
    </g>
   </g>
   <g id="text_8">
    <g id="patch_44">
     <path d="M 596.291942 560.467309 
L 751.395692 560.467309 
Q 754.995692 560.467309 754.995692 556.867309 
L 754.995692 544.919809 
Q 754.995692 541.319809 751.395692 541.319809 
L 596.291942 541.319809 
Q 592.691942 541.319809 592.691942 544.919809 
L 592.691942 556.867309 
Q 592.691942 560.467309 596.291942 560.467309 
z
" clip-path="url(#paa4539c91b)" style="fill: #1f77b4; stroke: #000000; stroke-linejoin: miter"/>
    </g>
    <g clip-path="url(#paa4539c91b)">
     <!-- School_StateID_Local_join -->
     <g style="fill: #f5f5f5" transform="translate(596.291942 554.037934) scale(0.12 -0.12)">
      <defs>
       <path id="DejaVuSans-4c" d="M 628 4666 
L 1259 4666 
L 1259 531 
L 3531 531 
L 3531 0 
L 628 0 
L 628 4666 
z
" transform="scale(0.015625)"/>
      </defs>
      <use xlink:href="#DejaVuSans-53"/>
      <use xlink:href="#DejaVuSans-63" x="63.476562"/>
      <use xlink:href="#DejaVuSans-68" x="118.457031"/>
      <use xlink:href="#DejaVuSans-6f" x="181.835938"/>
      <use xlink:href="#DejaVuSans-6f" x="243.017578"/>
      <use xlink:href="#DejaVuSans-6c" x="304.199219"/>
      <use xlink:href="#DejaVuSans-5f" x="331.982422"/>
      <use xlink:href="#DejaVuSans-53" x="381.982422"/>
      <use xlink:href="#DejaVuSans-74" x="445.458984"/>
      <use xlink:href="#DejaVuSans-61" x="484.667969"/>
      <use xlink:href="#DejaVuSans-74" x="545.947266"/>
      <use xlink:href="#DejaVuSans-65" x="585.15625"/>
      <use xlink:href="#DejaVuSans-49" x="646.679688"/>
      <use xlink:href="#DejaVuSans-44" x="676.171875"/>
      <use xlink:href="#DejaVuSans-5f" x="753.173828"/>
      <use xlink:href="#DejaVuSans-4c" x="803.173828"/>
      <use xlink:href="#DejaVuSans-6f" x="857.136719"/>
      <use xlink:href="#DejaVuSans-63" x="918.318359"/>
      <use xlink:href="#DejaVuSans-61" x="973.298828"/>
      <use xlink:href="#DejaVuSans-6c" x="1034.578125"/>
      <use xlink:href="#DejaVuSans-5f" x="1062.361328"/>
      <use xlink:href="#DejaVuSans-6a" x="1112.361328"/>
      <use xlink:href="#DejaVuSans-6f" x="1140.144531"/>
      <use xlink:href="#DejaVuSans-69" x="1201.326172"/>
      <use xlink:href="#DejaVuSans-6e" x="1229.109375"/>
     </g>
    </g>
   </g>
   <g id="text_9">
    <g id="patch_45">
     <path d="M 590.294755 615.592182 
L 757.39288 615.592182 
Q 760.99288 615.592182 760.99288 611.992182 
L 760.99288 600.044682 
Q 760.99288 596.444682 757.39288 596.444682 
L 590.294755 596.444682 
Q 586.694755 596.444682 586.694755 600.044682 
L 586.694755 611.992182 
Q 586.694755 615.592182 590.294755 615.592182 
z
" clip-path="url(#paa4539c91b)" style="fill: #1f77b4; stroke: #000000; stroke-linejoin: miter"/>
    </g>
    <g clip-path="url(#paa4539c91b)">
     <!-- School_StateID_District_join -->
     <g style="fill: #f5f5f5" transform="translate(590.294755 609.162807) scale(0.12 -0.12)">
      <use xlink:href="#DejaVuSans-53"/>
      <use xlink:href="#DejaVuSans-63" x="63.476562"/>
      <use xlink:href="#DejaVuSans-68" x="118.457031"/>
      <use xlink:href="#DejaVuSans-6f" x="181.835938"/>
      <use xlink:href="#DejaVuSans-6f" x="243.017578"/>
      <use xlink:href="#DejaVuSans-6c" x="304.199219"/>
      <use xlink:href="#DejaVuSans-5f" x="331.982422"/>
      <use xlink:href="#DejaVuSans-53" x="381.982422"/>
      <use xlink:href="#DejaVuSans-74" x="445.458984"/>
      <use xlink:href="#DejaVuSans-61" x="484.667969"/>
      <use xlink:href="#DejaVuSans-74" x="545.947266"/>
      <use xlink:href="#DejaVuSans-65" x="585.15625"/>
      <use xlink:href="#DejaVuSans-49" x="646.679688"/>
      <use xlink:href="#DejaVuSans-44" x="676.171875"/>
      <use xlink:href="#DejaVuSans-5f" x="753.173828"/>
      <use xlink:href="#DejaVuSans-44" x="803.173828"/>
      <use xlink:href="#DejaVuSans-69" x="880.175781"/>
      <use xlink:href="#DejaVuSans-73" x="907.958984"/>
      <use xlink:href="#DejaVuSans-74" x="960.058594"/>
      <use xlink:href="#DejaVuSans-72" x="999.267578"/>
      <use xlink:href="#DejaVuSans-69" x="1040.380859"/>
      <use xlink:href="#DejaVuSans-63" x="1068.164062"/>
      <use xlink:href="#DejaVuSans-74" x="1123.144531"/>
      <use xlink:href="#DejaVuSans-5f" x="1162.353516"/>
      <use xlink:href="#DejaVuSans-6a" x="1212.353516"/>
      <use xlink:href="#DejaVuSans-6f" x="1240.136719"/>
      <use xlink:href="#DejaVuSans-69" x="1301.318359"/>
      <use xlink:href="#DejaVuSans-6e" x="1329.101562"/>
     </g>
    </g>
   </g>
   <g id="text_10">
    <g id="patch_46">
     <path d="M 764.629606 719.717962 
L 862.465231 719.717962 
Q 866.065231 719.717962 866.065231 716.117962 
L 866.065231 704.170462 
Q 866.065231 700.570462 862.465231 700.570462 
L 764.629606 700.570462 
Q 761.029606 700.570462 761.029606 704.170462 
L 761.029606 716.117962 
Q 761.029606 719.717962 764.629606 719.717962 
z
" clip-path="url(#paa4539c91b)" style="fill: #1f77b4; stroke: #000000; stroke-linejoin: miter"/>
    </g>
    <g clip-path="url(#paa4539c91b)">
     <!-- num_input_rows -->
     <g style="fill: #f5f5f5" transform="translate(764.629606 713.288587) scale(0.12 -0.12)">
      <use xlink:href="#DejaVuSans-6e"/>
      <use xlink:href="#DejaVuSans-75" x="63.378906"/>
      <use xlink:href="#DejaVuSans-6d" x="126.757812"/>
      <use xlink:href="#DejaVuSans-5f" x="224.169922"/>
      <use xlink:href="#DejaVuSans-69" x="274.169922"/>
      <use xlink:href="#DejaVuSans-6e" x="301.953125"/>
      <use xlink:href="#DejaVuSans-70" x="365.332031"/>
      <use xlink:href="#DejaVuSans-75" x="428.808594"/>
      <use xlink:href="#DejaVuSans-74" x="492.1875"/>
      <use xlink:href="#DejaVuSans-5f" x="531.396484"/>
      <use xlink:href="#DejaVuSans-72" x="581.396484"/>
      <use xlink:href="#DejaVuSans-6f" x="620.259766"/>
      <use xlink:href="#DejaVuSans-77" x="681.441406"/>
      <use xlink:href="#DejaVuSans-73" x="763.228516"/>
     </g>
    </g>
   </g>
   <g id="text_11">
    <g id="patch_47">
     <path d="M 611.474755 670.717054 
L 736.21288 670.717054 
Q 739.81288 670.717054 739.81288 667.117054 
L 739.81288 655.169554 
Q 739.81288 651.569554 736.21288 651.569554 
L 611.474755 651.569554 
Q 607.874755 651.569554 607.874755 655.169554 
L 607.874755 667.117054 
Q 607.874755 670.717054 611.474755 670.717054 
z
" clip-path="url(#paa4539c91b)" style="fill: #1f77b4; stroke: #000000; stroke-linejoin: miter"/>
    </g>
    <g clip-path="url(#paa4539c91b)">
     <!-- StudentID_Local_join -->
     <g style="fill: #f5f5f5" transform="translate(611.474755 664.287679) scale(0.12 -0.12)">
      <use xlink:href="#DejaVuSans-53"/>
      <use xlink:href="#DejaVuSans-74" x="63.476562"/>
      <use xlink:href="#DejaVuSans-75" x="102.685547"/>
      <use xlink:href="#DejaVuSans-64" x="166.064453"/>
      <use xlink:href="#DejaVuSans-65" x="229.541016"/>
      <use xlink:href="#DejaVuSans-6e" x="291.064453"/>
      <use xlink:href="#DejaVuSans-74" x="354.443359"/>
      <use xlink:href="#DejaVuSans-49" x="393.652344"/>
      <use xlink:href="#DejaVuSans-44" x="423.144531"/>
      <use xlink:href="#DejaVuSans-5f" x="500.146484"/>
      <use xlink:href="#DejaVuSans-4c" x="550.146484"/>
      <use xlink:href="#DejaVuSans-6f" x="604.109375"/>
      <use xlink:href="#DejaVuSans-63" x="665.291016"/>
      <use xlink:href="#DejaVuSans-61" x="720.271484"/>
      <use xlink:href="#DejaVuSans-6c" x="781.550781"/>
      <use xlink:href="#DejaVuSans-5f" x="809.333984"/>
      <use xlink:href="#DejaVuSans-6a" x="859.333984"/>
      <use xlink:href="#DejaVuSans-6f" x="887.117188"/>
      <use xlink:href="#DejaVuSans-69" x="948.298828"/>
      <use xlink:href="#DejaVuSans-6e" x="976.082031"/>
     </g>
    </g>
   </g>
   <g id="text_12">
    <g id="patch_48">
     <path d="M 885.934764 613.55052 
L 977.462889 613.55052 
Q 981.062889 613.55052 981.062889 609.95052 
L 981.062889 598.00302 
Q 981.062889 594.40302 977.462889 594.40302 
L 885.934764 594.40302 
Q 882.334764 594.40302 882.334764 598.00302 
L 882.334764 609.95052 
Q 882.334764 613.55052 885.934764 613.55052 
z
" clip-path="url(#paa4539c91b)" style="fill: #1f77b4; stroke: #000000; stroke-linejoin: miter"/>
    </g>
    <g clip-path="url(#paa4539c91b)">
     <!-- id_match_rates -->
     <g style="fill: #f5f5f5" transform="translate(885.934764 607.121145) scale(0.12 -0.12)">
      <use xlink:href="#DejaVuSans-69"/>
      <use xlink:href="#DejaVuSans-64" x="27.783203"/>
      <use xlink:href="#DejaVuSans-5f" x="91.259766"/>
      <use xlink:href="#DejaVuSans-6d" x="141.259766"/>
      <use xlink:href="#DejaVuSans-61" x="238.671875"/>
      <use xlink:href="#DejaVuSans-74" x="299.951172"/>
      <use xlink:href="#DejaVuSans-63" x="339.160156"/>
      <use xlink:href="#DejaVuSans-68" x="394.140625"/>
      <use xlink:href="#DejaVuSans-5f" x="457.519531"/>
      <use xlink:href="#DejaVuSans-72" x="507.519531"/>
      <use xlink:href="#DejaVuSans-61" x="548.632812"/>
      <use xlink:href="#DejaVuSans-74" x="609.912109"/>
      <use xlink:href="#DejaVuSans-65" x="649.121094"/>
      <use xlink:href="#DejaVuSans-73" x="710.644531"/>
     </g>
    </g>
   </g>
   <g id="text_13">
    <g id="patch_49">
     <path d="M 586.59538 725.842947 
L 761.092255 725.842947 
Q 764.692255 725.842947 764.692255 722.242947 
L 764.692255 710.295447 
Q 764.692255 706.695447 761.092255 706.695447 
L 586.59538 706.695447 
Q 582.99538 706.695447 582.99538 710.295447 
L 582.99538 722.242947 
Q 582.99538 725.842947 586.59538 725.842947 
z
" clip-path="url(#paa4539c91b)" style="fill: #1f77b4; stroke: #000000; stroke-linejoin: miter"/>
    </g>
    <g clip-path="url(#paa4539c91b)">
     <!-- Student_StateID_District_join -->
     <g style="fill: #f5f5f5" transform="translate(586.59538 719.413572) scale(0.12 -0.12)">
      <use xlink:href="#DejaVuSans-53"/>
      <use xlink:href="#DejaVuSans-74" x="63.476562"/>
      <use xlink:href="#DejaVuSans-75" x="102.685547"/>
      <use xlink:href="#DejaVuSans-64" x="166.064453"/>
      <use xlink:href="#DejaVuSans-65" x="229.541016"/>
      <use xlink:href="#DejaVuSans-6e" x="291.064453"/>
      <use xlink:href="#DejaVuSans-74" x="354.443359"/>
      <use xlink:href="#DejaVuSans-5f" x="393.652344"/>
      <use xlink:href="#DejaVuSans-53" x="443.652344"/>
      <use xlink:href="#DejaVuSans-74" x="507.128906"/>
      <use xlink:href="#DejaVuSans-61" x="546.337891"/>
      <use xlink:href="#DejaVuSans-74" x="607.617188"/>
      <use xlink:href="#DejaVuSans-65" x="646.826172"/>
      <use xlink:href="#DejaVuSans-49" x="708.349609"/>
      <use xlink:href="#DejaVuSans-44" x="737.841797"/>
      <use xlink:href="#DejaVuSans-5f" x="814.84375"/>
      <use xlink:href="#DejaVuSans-44" x="864.84375"/>
      <use xlink:href="#DejaVuSans-69" x="941.845703"/>
      <use xlink:href="#DejaVuSans-73" x="969.628906"/>
      <use xlink:href="#DejaVuSans-74" x="1021.728516"/>
      <use xlink:href="#DejaVuSans-72" x="1060.9375"/>
      <use xlink:href="#DejaVuSans-69" x="1102.050781"/>
      <use xlink:href="#DejaVuSans-63" x="1129.833984"/>
      <use xlink:href="#DejaVuSans-74" x="1184.814453"/>
      <use xlink:href="#DejaVuSans-5f" x="1224.023438"/>
      <use xlink:href="#DejaVuSans-6a" x="1274.023438"/>
      <use xlink:href="#DejaVuSans-6f" x="1301.806641"/>
      <use xlink:href="#DejaVuSans-69" x="1362.988281"/>
      <use xlink:href="#DejaVuSans-6e" x="1390.771484"/>
     </g>
    </g>
   </g>
   <g id="text_14">
    <g id="patch_50">
     <path d="M 611.144755 284.842947 
L 736.54288 284.842947 
Q 740.14288 284.842947 740.14288 281.242947 
L 740.14288 269.295447 
Q 740.14288 265.695447 736.54288 265.695447 
L 611.144755 265.695447 
Q 607.544755 265.695447 607.544755 269.295447 
L 607.544755 281.242947 
Q 607.544755 284.842947 611.144755 284.842947 
z
" clip-path="url(#paa4539c91b)" style="fill: #1f77b4; stroke: #000000; stroke-linejoin: miter"/>
    </g>
    <g clip-path="url(#paa4539c91b)">
     <!-- StudentID_State_join -->
     <g style="fill: #f5f5f5" transform="translate(611.144755 278.413572) scale(0.12 -0.12)">
      <use xlink:href="#DejaVuSans-53"/>
      <use xlink:href="#DejaVuSans-74" x="63.476562"/>
      <use xlink:href="#DejaVuSans-75" x="102.685547"/>
      <use xlink:href="#DejaVuSans-64" x="166.064453"/>
      <use xlink:href="#DejaVuSans-65" x="229.541016"/>
      <use xlink:href="#DejaVuSans-6e" x="291.064453"/>
      <use xlink:href="#DejaVuSans-74" x="354.443359"/>
      <use xlink:href="#DejaVuSans-49" x="393.652344"/>
      <use xlink:href="#DejaVuSans-44" x="423.144531"/>
      <use xlink:href="#DejaVuSans-5f" x="500.146484"/>
      <use xlink:href="#DejaVuSans-53" x="550.146484"/>
      <use xlink:href="#DejaVuSans-74" x="613.623047"/>
      <use xlink:href="#DejaVuSans-61" x="652.832031"/>
      <use xlink:href="#DejaVuSans-74" x="714.111328"/>
      <use xlink:href="#DejaVuSans-65" x="753.320312"/>
      <use xlink:href="#DejaVuSans-5f" x="814.84375"/>
      <use xlink:href="#DejaVuSans-6a" x="864.84375"/>
      <use xlink:href="#DejaVuSans-6f" x="892.626953"/>
      <use xlink:href="#DejaVuSans-69" x="953.808594"/>
      <use xlink:href="#DejaVuSans-6e" x="981.591797"/>
     </g>
    </g>
   </g>
   <g id="text_15">
    <g id="patch_51">
     <path d="M 605.477567 339.96782 
L 742.210067 339.96782 
Q 745.810067 339.96782 745.810067 336.36782 
L 745.810067 324.42032 
Q 745.810067 320.82032 742.210067 320.82032 
L 605.477567 320.82032 
Q 601.877567 320.82032 601.877567 324.42032 
L 601.877567 336.36782 
Q 601.877567 339.96782 605.477567 339.96782 
z
" clip-path="url(#paa4539c91b)" style="fill: #1f77b4; stroke: #000000; stroke-linejoin: miter"/>
    </g>
    <g clip-path="url(#paa4539c91b)">
     <!-- StudentID_District_join -->
     <g style="fill: #f5f5f5" transform="translate(605.477567 333.538445) scale(0.12 -0.12)">
      <use xlink:href="#DejaVuSans-53"/>
      <use xlink:href="#DejaVuSans-74" x="63.476562"/>
      <use xlink:href="#DejaVuSans-75" x="102.685547"/>
      <use xlink:href="#DejaVuSans-64" x="166.064453"/>
      <use xlink:href="#DejaVuSans-65" x="229.541016"/>
      <use xlink:href="#DejaVuSans-6e" x="291.064453"/>
      <use xlink:href="#DejaVuSans-74" x="354.443359"/>
      <use xlink:href="#DejaVuSans-49" x="393.652344"/>
      <use xlink:href="#DejaVuSans-44" x="423.144531"/>
      <use xlink:href="#DejaVuSans-5f" x="500.146484"/>
      <use xlink:href="#DejaVuSans-44" x="550.146484"/>
      <use xlink:href="#DejaVuSans-69" x="627.148438"/>
      <use xlink:href="#DejaVuSans-73" x="654.931641"/>
      <use xlink:href="#DejaVuSans-74" x="707.03125"/>
      <use xlink:href="#DejaVuSans-72" x="746.240234"/>
      <use xlink:href="#DejaVuSans-69" x="787.353516"/>
      <use xlink:href="#DejaVuSans-63" x="815.136719"/>
      <use xlink:href="#DejaVuSans-74" x="870.117188"/>
      <use xlink:href="#DejaVuSans-5f" x="909.326172"/>
      <use xlink:href="#DejaVuSans-6a" x="959.326172"/>
      <use xlink:href="#DejaVuSans-6f" x="987.109375"/>
      <use xlink:href="#DejaVuSans-69" x="1048.291016"/>
      <use xlink:href="#DejaVuSans-6e" x="1076.074219"/>
     </g>
    </g>
   </g>
   <g id="text_16">
    <g id="patch_52">
     <path d="M 592.592567 395.092692 
L 755.095067 395.092692 
Q 758.695067 395.092692 758.695067 391.492692 
L 758.695067 379.545192 
Q 758.695067 375.945192 755.095067 375.945192 
L 592.592567 375.945192 
Q 588.992567 375.945192 588.992567 379.545192 
L 588.992567 391.492692 
Q 588.992567 395.092692 592.592567 395.092692 
z
" clip-path="url(#paa4539c91b)" style="fill: #1f77b4; stroke: #000000; stroke-linejoin: miter"/>
    </g>
    <g clip-path="url(#paa4539c91b)">
     <!-- Student_StateID_Local_join -->
     <g style="fill: #f5f5f5" transform="translate(592.592567 388.663317) scale(0.12 -0.12)">
      <use xlink:href="#DejaVuSans-53"/>
      <use xlink:href="#DejaVuSans-74" x="63.476562"/>
      <use xlink:href="#DejaVuSans-75" x="102.685547"/>
      <use xlink:href="#DejaVuSans-64" x="166.064453"/>
      <use xlink:href="#DejaVuSans-65" x="229.541016"/>
      <use xlink:href="#DejaVuSans-6e" x="291.064453"/>
      <use xlink:href="#DejaVuSans-74" x="354.443359"/>
      <use xlink:href="#DejaVuSans-5f" x="393.652344"/>
      <use xlink:href="#DejaVuSans-53" x="443.652344"/>
      <use xlink:href="#DejaVuSans-74" x="507.128906"/>
      <use xlink:href="#DejaVuSans-61" x="546.337891"/>
      <use xlink:href="#DejaVuSans-74" x="607.617188"/>
      <use xlink:href="#DejaVuSans-65" x="646.826172"/>
      <use xlink:href="#DejaVuSans-49" x="708.349609"/>
      <use xlink:href="#DejaVuSans-44" x="737.841797"/>
      <use xlink:href="#DejaVuSans-5f" x="814.84375"/>
      <use xlink:href="#DejaVuSans-4c" x="864.84375"/>
      <use xlink:href="#DejaVuSans-6f" x="918.806641"/>
      <use xlink:href="#DejaVuSans-63" x="979.988281"/>
      <use xlink:href="#DejaVuSans-61" x="1034.96875"/>
      <use xlink:href="#DejaVuSans-6c" x="1096.248047"/>
      <use xlink:href="#DejaVuSans-5f" x="1124.03125"/>
      <use xlink:href="#DejaVuSans-6a" x="1174.03125"/>
      <use xlink:href="#DejaVuSans-6f" x="1201.814453"/>
      <use xlink:href="#DejaVuSans-69" x="1262.996094"/>
      <use xlink:href="#DejaVuSans-6e" x="1290.779297"/>
     </g>
    </g>
   </g>
   <g id="text_17">
    <g id="patch_53">
     <path d="M 463.029515 505.342437 
L 591.163265 505.342437 
Q 594.763265 505.342437 594.763265 501.742437 
L 594.763265 489.794937 
Q 594.763265 486.194937 591.163265 486.194937 
L 463.029515 486.194937 
Q 459.429515 486.194937 459.429515 489.794937 
L 459.429515 501.742437 
Q 459.429515 505.342437 463.029515 505.342437 
z
" clip-path="url(#paa4539c91b)" style="fill: #1f77b4; stroke: #000000; stroke-linejoin: miter"/>
    </g>
    <g clip-path="url(#paa4539c91b)">
     <!-- unpacked_edfi_roster -->
     <g style="fill: #f5f5f5" transform="translate(463.029515 498.913062) scale(0.12 -0.12)">
      <use xlink:href="#DejaVuSans-75"/>
      <use xlink:href="#DejaVuSans-6e" x="63.378906"/>
      <use xlink:href="#DejaVuSans-70" x="126.757812"/>
      <use xlink:href="#DejaVuSans-61" x="190.234375"/>
      <use xlink:href="#DejaVuSans-63" x="251.513672"/>
      <use xlink:href="#DejaVuSans-6b" x="306.494141"/>
      <use xlink:href="#DejaVuSans-65" x="360.779297"/>
      <use xlink:href="#DejaVuSans-64" x="422.302734"/>
      <use xlink:href="#DejaVuSans-5f" x="485.779297"/>
      <use xlink:href="#DejaVuSans-65" x="535.779297"/>
      <use xlink:href="#DejaVuSans-64" x="597.302734"/>
      <use xlink:href="#DejaVuSans-66" x="660.779297"/>
      <use xlink:href="#DejaVuSans-69" x="695.984375"/>
      <use xlink:href="#DejaVuSans-5f" x="723.767578"/>
      <use xlink:href="#DejaVuSans-72" x="773.767578"/>
      <use xlink:href="#DejaVuSans-6f" x="812.630859"/>
      <use xlink:href="#DejaVuSans-73" x="873.8125"/>
      <use xlink:href="#DejaVuSans-74" x="925.912109"/>
      <use xlink:href="#DejaVuSans-65" x="965.121094"/>
      <use xlink:href="#DejaVuSans-72" x="1026.644531"/>
     </g>
    </g>
   </g>
   <g id="text_18">
    <g clip-path="url(#paa4539c91b)">
     <!-- 9 rows; 4 cols -->
     <g transform="translate(817.372121 537.788595) scale(0.08 -0.08)">
      <defs>
       <path id="DejaVuSans-39" d="M 703 97 
L 703 672 
Q 941 559 1184 500 
Q 1428 441 1663 441 
Q 2288 441 2617 861 
Q 2947 1281 2994 2138 
Q 2813 1869 2534 1725 
Q 2256 1581 1919 1581 
Q 1219 1581 811 2004 
Q 403 2428 403 3163 
Q 403 3881 828 4315 
Q 1253 4750 1959 4750 
Q 2769 4750 3195 4129 
Q 3622 3509 3622 2328 
Q 3622 1225 3098 567 
Q 2575 -91 1691 -91 
Q 1453 -91 1209 -44 
Q 966 3 703 97 
z
M 1959 2075 
Q 2384 2075 2632 2365 
Q 2881 2656 2881 3163 
Q 2881 3666 2632 3958 
Q 2384 4250 1959 4250 
Q 1534 4250 1286 3958 
Q 1038 3666 1038 3163 
Q 1038 2656 1286 2365 
Q 1534 2075 1959 2075 
z
" transform="scale(0.015625)"/>
      </defs>
      <use xlink:href="#DejaVuSans-39"/>
      <use xlink:href="#DejaVuSans-20" x="63.623047"/>
      <use xlink:href="#DejaVuSans-72" x="95.410156"/>
      <use xlink:href="#DejaVuSans-6f" x="134.273438"/>
      <use xlink:href="#DejaVuSans-77" x="195.455078"/>
      <use xlink:href="#DejaVuSans-73" x="277.242188"/>
      <use xlink:href="#DejaVuSans-3b" x="329.341797"/>
      <use xlink:href="#DejaVuSans-20" x="363.033203"/>
      <use xlink:href="#DejaVuSans-34" x="394.820312"/>
      <use xlink:href="#DejaVuSans-20" x="458.443359"/>
      <use xlink:href="#DejaVuSans-63" x="490.230469"/>
      <use xlink:href="#DejaVuSans-6f" x="545.210938"/>
      <use xlink:href="#DejaVuSans-6c" x="606.392578"/>
      <use xlink:href="#DejaVuSans-73" x="634.175781"/>
     </g>
    </g>
   </g>
   <g id="text_19">
    <g clip-path="url(#paa4539c91b)">
     <!-- 1 rows; 4 cols -->
     <g transform="translate(677.668519 455.101286) scale(0.08 -0.08)">
      <use xlink:href="#DejaVuSans-31"/>
      <use xlink:href="#DejaVuSans-20" x="63.623047"/>
      <use xlink:href="#DejaVuSans-72" x="95.410156"/>
      <use xlink:href="#DejaVuSans-6f" x="134.273438"/>
      <use xlink:href="#DejaVuSans-77" x="195.455078"/>
      <use xlink:href="#DejaVuSans-73" x="277.242188"/>
      <use xlink:href="#DejaVuSans-3b" x="329.341797"/>
      <use xlink:href="#DejaVuSans-20" x="363.033203"/>
      <use xlink:href="#DejaVuSans-34" x="394.820312"/>
      <use xlink:href="#DejaVuSans-20" x="458.443359"/>
      <use xlink:href="#DejaVuSans-63" x="490.230469"/>
      <use xlink:href="#DejaVuSans-6f" x="545.210938"/>
      <use xlink:href="#DejaVuSans-6c" x="606.392578"/>
      <use xlink:href="#DejaVuSans-73" x="634.175781"/>
     </g>
    </g>
   </g>
   <g id="text_20">
    <g clip-path="url(#paa4539c91b)">
     <!-- 0 rows; 4 cols -->
     <g transform="translate(677.668519 510.226159) scale(0.08 -0.08)">
      <defs>
       <path id="DejaVuSans-30" d="M 2034 4250 
Q 1547 4250 1301 3770 
Q 1056 3291 1056 2328 
Q 1056 1369 1301 889 
Q 1547 409 2034 409 
Q 2525 409 2770 889 
Q 3016 1369 3016 2328 
Q 3016 3291 2770 3770 
Q 2525 4250 2034 4250 
z
M 2034 4750 
Q 2819 4750 3233 4129 
Q 3647 3509 3647 2328 
Q 3647 1150 3233 529 
Q 2819 -91 2034 -91 
Q 1250 -91 836 529 
Q 422 1150 422 2328 
Q 422 3509 836 4129 
Q 1250 4750 2034 4750 
z
" transform="scale(0.015625)"/>
      </defs>
      <use xlink:href="#DejaVuSans-30"/>
      <use xlink:href="#DejaVuSans-20" x="63.623047"/>
      <use xlink:href="#DejaVuSans-72" x="95.410156"/>
      <use xlink:href="#DejaVuSans-6f" x="134.273438"/>
      <use xlink:href="#DejaVuSans-77" x="195.455078"/>
      <use xlink:href="#DejaVuSans-73" x="277.242188"/>
      <use xlink:href="#DejaVuSans-3b" x="329.341797"/>
      <use xlink:href="#DejaVuSans-20" x="363.033203"/>
      <use xlink:href="#DejaVuSans-34" x="394.820312"/>
      <use xlink:href="#DejaVuSans-20" x="458.443359"/>
      <use xlink:href="#DejaVuSans-63" x="490.230469"/>
      <use xlink:href="#DejaVuSans-6f" x="545.210938"/>
      <use xlink:href="#DejaVuSans-6c" x="606.392578"/>
      <use xlink:href="#DejaVuSans-73" x="634.175781"/>
     </g>
    </g>
   </g>
   <g id="text_21">
    <g clip-path="url(#paa4539c91b)">
     <!-- 4 rows; 4 cols -->
     <g transform="translate(677.668519 565.351031) scale(0.08 -0.08)">
      <use xlink:href="#DejaVuSans-34"/>
      <use xlink:href="#DejaVuSans-20" x="63.623047"/>
      <use xlink:href="#DejaVuSans-72" x="95.410156"/>
      <use xlink:href="#DejaVuSans-6f" x="134.273438"/>
      <use xlink:href="#DejaVuSans-77" x="195.455078"/>
      <use xlink:href="#DejaVuSans-73" x="277.242188"/>
      <use xlink:href="#DejaVuSans-3b" x="329.341797"/>
      <use xlink:href="#DejaVuSans-20" x="363.033203"/>
      <use xlink:href="#DejaVuSans-34" x="394.820312"/>
      <use xlink:href="#DejaVuSans-20" x="458.443359"/>
      <use xlink:href="#DejaVuSans-63" x="490.230469"/>
      <use xlink:href="#DejaVuSans-6f" x="545.210938"/>
      <use xlink:href="#DejaVuSans-6c" x="606.392578"/>
      <use xlink:href="#DejaVuSans-73" x="634.175781"/>
     </g>
    </g>
   </g>
   <g id="text_22">
    <g clip-path="url(#paa4539c91b)">
     <!-- 0 rows; 4 cols -->
     <g transform="translate(677.668519 620.475903) scale(0.08 -0.08)">
      <use xlink:href="#DejaVuSans-30"/>
      <use xlink:href="#DejaVuSans-20" x="63.623047"/>
      <use xlink:href="#DejaVuSans-72" x="95.410156"/>
      <use xlink:href="#DejaVuSans-6f" x="134.273438"/>
      <use xlink:href="#DejaVuSans-77" x="195.455078"/>
      <use xlink:href="#DejaVuSans-73" x="277.242188"/>
      <use xlink:href="#DejaVuSans-3b" x="329.341797"/>
      <use xlink:href="#DejaVuSans-20" x="363.033203"/>
      <use xlink:href="#DejaVuSans-34" x="394.820312"/>
      <use xlink:href="#DejaVuSans-20" x="458.443359"/>
      <use xlink:href="#DejaVuSans-63" x="490.230469"/>
      <use xlink:href="#DejaVuSans-6f" x="545.210938"/>
      <use xlink:href="#DejaVuSans-6c" x="606.392578"/>
      <use xlink:href="#DejaVuSans-73" x="634.175781"/>
     </g>
    </g>
   </g>
   <g id="text_23">
    <g clip-path="url(#paa4539c91b)">
     <!-- 1 rows; 2 cols -->
     <g transform="translate(817.372121 724.601683) scale(0.08 -0.08)">
      <defs>
       <path id="DejaVuSans-32" d="M 1228 531 
L 3431 531 
L 3431 0 
L 469 0 
L 469 531 
Q 828 903 1448 1529 
Q 2069 2156 2228 2338 
Q 2531 2678 2651 2914 
Q 2772 3150 2772 3378 
Q 2772 3750 2511 3984 
Q 2250 4219 1831 4219 
Q 1534 4219 1204 4116 
Q 875 4013 500 3803 
L 500 4441 
Q 881 4594 1212 4672 
Q 1544 4750 1819 4750 
Q 2544 4750 2975 4387 
Q 3406 4025 3406 3419 
Q 3406 3131 3298 2873 
Q 3191 2616 2906 2266 
Q 2828 2175 2409 1742 
Q 1991 1309 1228 531 
z
" transform="scale(0.015625)"/>
      </defs>
      <use xlink:href="#DejaVuSans-31"/>
      <use xlink:href="#DejaVuSans-20" x="63.623047"/>
      <use xlink:href="#DejaVuSans-72" x="95.410156"/>
      <use xlink:href="#DejaVuSans-6f" x="134.273438"/>
      <use xlink:href="#DejaVuSans-77" x="195.455078"/>
      <use xlink:href="#DejaVuSans-73" x="277.242188"/>
      <use xlink:href="#DejaVuSans-3b" x="329.341797"/>
      <use xlink:href="#DejaVuSans-20" x="363.033203"/>
      <use xlink:href="#DejaVuSans-32" x="394.820312"/>
      <use xlink:href="#DejaVuSans-20" x="458.443359"/>
      <use xlink:href="#DejaVuSans-63" x="490.230469"/>
      <use xlink:href="#DejaVuSans-6f" x="545.210938"/>
      <use xlink:href="#DejaVuSans-6c" x="606.392578"/>
      <use xlink:href="#DejaVuSans-73" x="634.175781"/>
     </g>
    </g>
   </g>
   <g id="text_24">
    <g clip-path="url(#paa4539c91b)">
     <!-- 0 rows; 4 cols -->
     <g transform="translate(677.668519 675.600776) scale(0.08 -0.08)">
      <use xlink:href="#DejaVuSans-30"/>
      <use xlink:href="#DejaVuSans-20" x="63.623047"/>
      <use xlink:href="#DejaVuSans-72" x="95.410156"/>
      <use xlink:href="#DejaVuSans-6f" x="134.273438"/>
      <use xlink:href="#DejaVuSans-77" x="195.455078"/>
      <use xlink:href="#DejaVuSans-73" x="277.242188"/>
      <use xlink:href="#DejaVuSans-3b" x="329.341797"/>
      <use xlink:href="#DejaVuSans-20" x="363.033203"/>
      <use xlink:href="#DejaVuSans-34" x="394.820312"/>
      <use xlink:href="#DejaVuSans-20" x="458.443359"/>
      <use xlink:href="#DejaVuSans-63" x="490.230469"/>
      <use xlink:href="#DejaVuSans-6f" x="545.210938"/>
      <use xlink:href="#DejaVuSans-6c" x="606.392578"/>
      <use xlink:href="#DejaVuSans-73" x="634.175781"/>
     </g>
    </g>
   </g>
   <g id="text_25">
    <g clip-path="url(#paa4539c91b)">
     <!-- 3 rows; 5 cols -->
     <g transform="translate(935.523529 618.434241) scale(0.08 -0.08)">
      <defs>
       <path id="DejaVuSans-35" d="M 691 4666 
L 3169 4666 
L 3169 4134 
L 1269 4134 
L 1269 2991 
Q 1406 3038 1543 3061 
Q 1681 3084 1819 3084 
Q 2600 3084 3056 2656 
Q 3513 2228 3513 1497 
Q 3513 744 3044 326 
Q 2575 -91 1722 -91 
Q 1428 -91 1123 -41 
Q 819 9 494 109 
L 494 744 
Q 775 591 1075 516 
Q 1375 441 1709 441 
Q 2250 441 2565 725 
Q 2881 1009 2881 1497 
Q 2881 1984 2565 2268 
Q 2250 2553 1709 2553 
Q 1456 2553 1204 2497 
Q 953 2441 691 2322 
L 691 4666 
z
" transform="scale(0.015625)"/>
      </defs>
      <use xlink:href="#DejaVuSans-33"/>
      <use xlink:href="#DejaVuSans-20" x="63.623047"/>
      <use xlink:href="#DejaVuSans-72" x="95.410156"/>
      <use xlink:href="#DejaVuSans-6f" x="134.273438"/>
      <use xlink:href="#DejaVuSans-77" x="195.455078"/>
      <use xlink:href="#DejaVuSans-73" x="277.242188"/>
      <use xlink:href="#DejaVuSans-3b" x="329.341797"/>
      <use xlink:href="#DejaVuSans-20" x="363.033203"/>
      <use xlink:href="#DejaVuSans-35" x="394.820312"/>
      <use xlink:href="#DejaVuSans-20" x="458.443359"/>
      <use xlink:href="#DejaVuSans-63" x="490.230469"/>
      <use xlink:href="#DejaVuSans-6f" x="545.210938"/>
      <use xlink:href="#DejaVuSans-6c" x="606.392578"/>
      <use xlink:href="#DejaVuSans-73" x="634.175781"/>
     </g>
    </g>
   </g>
   <g id="text_26">
    <g clip-path="url(#paa4539c91b)">
     <!-- 0 rows; 4 cols -->
     <g transform="translate(677.668519 730.726669) scale(0.08 -0.08)">
      <use xlink:href="#DejaVuSans-30"/>
      <use xlink:href="#DejaVuSans-20" x="63.623047"/>
      <use xlink:href="#DejaVuSans-72" x="95.410156"/>
      <use xlink:href="#DejaVuSans-6f" x="134.273438"/>
      <use xlink:href="#DejaVuSans-77" x="195.455078"/>
      <use xlink:href="#DejaVuSans-73" x="277.242188"/>
      <use xlink:href="#DejaVuSans-3b" x="329.341797"/>
      <use xlink:href="#DejaVuSans-20" x="363.033203"/>
      <use xlink:href="#DejaVuSans-34" x="394.820312"/>
      <use xlink:href="#DejaVuSans-20" x="458.443359"/>
      <use xlink:href="#DejaVuSans-63" x="490.230469"/>
      <use xlink:href="#DejaVuSans-6f" x="545.210938"/>
      <use xlink:href="#DejaVuSans-6c" x="606.392578"/>
      <use xlink:href="#DejaVuSans-73" x="634.175781"/>
     </g>
    </g>
   </g>
   <g id="text_27">
    <g clip-path="url(#paa4539c91b)">
     <!-- 4 rows; 4 cols -->
     <g transform="translate(677.668519 289.726669) scale(0.08 -0.08)">
      <use xlink:href="#DejaVuSans-34"/>
      <use xlink:href="#DejaVuSans-20" x="63.623047"/>
      <use xlink:href="#DejaVuSans-72" x="95.410156"/>
      <use xlink:href="#DejaVuSans-6f" x="134.273438"/>
      <use xlink:href="#DejaVuSans-77" x="195.455078"/>
      <use xlink:href="#DejaVuSans-73" x="277.242188"/>
      <use xlink:href="#DejaVuSans-3b" x="329.341797"/>
      <use xlink:href="#DejaVuSans-20" x="363.033203"/>
      <use xlink:href="#DejaVuSans-34" x="394.820312"/>
      <use xlink:href="#DejaVuSans-20" x="458.443359"/>
      <use xlink:href="#DejaVuSans-63" x="490.230469"/>
      <use xlink:href="#DejaVuSans-6f" x="545.210938"/>
      <use xlink:href="#DejaVuSans-6c" x="606.392578"/>
      <use xlink:href="#DejaVuSans-73" x="634.175781"/>
     </g>
    </g>
   </g>
   <g id="text_28">
    <g clip-path="url(#paa4539c91b)">
     <!-- 0 rows; 4 cols -->
     <g transform="translate(677.668519 344.851541) scale(0.08 -0.08)">
      <use xlink:href="#DejaVuSans-30"/>
      <use xlink:href="#DejaVuSans-20" x="63.623047"/>
      <use xlink:href="#DejaVuSans-72" x="95.410156"/>
      <use xlink:href="#DejaVuSans-6f" x="134.273438"/>
      <use xlink:href="#DejaVuSans-77" x="195.455078"/>
      <use xlink:href="#DejaVuSans-73" x="277.242188"/>
      <use xlink:href="#DejaVuSans-3b" x="329.341797"/>
      <use xlink:href="#DejaVuSans-20" x="363.033203"/>
      <use xlink:href="#DejaVuSans-34" x="394.820312"/>
      <use xlink:href="#DejaVuSans-20" x="458.443359"/>
      <use xlink:href="#DejaVuSans-63" x="490.230469"/>
      <use xlink:href="#DejaVuSans-6f" x="545.210938"/>
      <use xlink:href="#DejaVuSans-6c" x="606.392578"/>
      <use xlink:href="#DejaVuSans-73" x="634.175781"/>
     </g>
    </g>
   </g>
   <g id="text_29">
    <g clip-path="url(#paa4539c91b)">
     <!-- 0 rows; 4 cols -->
     <g transform="translate(677.668519 399.976414) scale(0.08 -0.08)">
      <use xlink:href="#DejaVuSans-30"/>
      <use xlink:href="#DejaVuSans-20" x="63.623047"/>
      <use xlink:href="#DejaVuSans-72" x="95.410156"/>
      <use xlink:href="#DejaVuSans-6f" x="134.273438"/>
      <use xlink:href="#DejaVuSans-77" x="195.455078"/>
      <use xlink:href="#DejaVuSans-73" x="277.242188"/>
      <use xlink:href="#DejaVuSans-3b" x="329.341797"/>
      <use xlink:href="#DejaVuSans-20" x="363.033203"/>
      <use xlink:href="#DejaVuSans-34" x="394.820312"/>
      <use xlink:href="#DejaVuSans-20" x="458.443359"/>
      <use xlink:href="#DejaVuSans-63" x="490.230469"/>
      <use xlink:href="#DejaVuSans-6f" x="545.210938"/>
      <use xlink:href="#DejaVuSans-6c" x="606.392578"/>
      <use xlink:href="#DejaVuSans-73" x="634.175781"/>
     </g>
    </g>
   </g>
   <g id="text_30">
    <g clip-path="url(#paa4539c91b)">
     <!-- 6 rows; 6 cols -->
     <g transform="translate(530.921092 510.226159) scale(0.08 -0.08)">
      <use xlink:href="#DejaVuSans-36"/>
      <use xlink:href="#DejaVuSans-20" x="63.623047"/>
      <use xlink:href="#DejaVuSans-72" x="95.410156"/>
      <use xlink:href="#DejaVuSans-6f" x="134.273438"/>
      <use xlink:href="#DejaVuSans-77" x="195.455078"/>
      <use xlink:href="#DejaVuSans-73" x="277.242188"/>
      <use xlink:href="#DejaVuSans-3b" x="329.341797"/>
      <use xlink:href="#DejaVuSans-20" x="363.033203"/>
      <use xlink:href="#DejaVuSans-36" x="394.820312"/>
      <use xlink:href="#DejaVuSans-20" x="458.443359"/>
      <use xlink:href="#DejaVuSans-63" x="490.230469"/>
      <use xlink:href="#DejaVuSans-6f" x="545.210938"/>
      <use xlink:href="#DejaVuSans-6c" x="606.392578"/>
      <use xlink:href="#DejaVuSans-73" x="634.175781"/>
     </g>
    </g>
   </g>
   <g id="text_31">
    <g id="patch_54">
     <path d="M 1063.969758 626.821322 
L 1207.369758 626.821322 
Q 1210.969758 626.821322 1210.969758 623.221322 
L 1210.969758 611.273822 
Q 1210.969758 607.673822 1207.369758 607.673822 
L 1063.969758 607.673822 
Q 1060.369758 607.673822 1060.369758 611.273822 
L 1060.369758 623.221322 
Q 1060.369758 626.821322 1063.969758 626.821322 
z
" clip-path="url(#paa4539c91b)" style="fill: #d62728; stroke: #000000; stroke-linejoin: miter"/>
    </g>
    <g clip-path="url(#paa4539c91b)">
     <!-- student_id_match_rates -->
     <g style="fill: #f5f5f5" transform="translate(1063.969758 620.391947) scale(0.12 -0.12)">
      <use xlink:href="#DejaVuSans-73"/>
      <use xlink:href="#DejaVuSans-74" x="52.099609"/>
      <use xlink:href="#DejaVuSans-75" x="91.308594"/>
      <use xlink:href="#DejaVuSans-64" x="154.6875"/>
      <use xlink:href="#DejaVuSans-65" x="218.164062"/>
      <use xlink:href="#DejaVuSans-6e" x="279.6875"/>
      <use xlink:href="#DejaVuSans-74" x="343.066406"/>
      <use xlink:href="#DejaVuSans-5f" x="382.275391"/>
      <use xlink:href="#DejaVuSans-69" x="432.275391"/>
      <use xlink:href="#DejaVuSans-64" x="460.058594"/>
      <use xlink:href="#DejaVuSans-5f" x="523.535156"/>
      <use xlink:href="#DejaVuSans-6d" x="573.535156"/>
      <use xlink:href="#DejaVuSans-61" x="670.947266"/>
      <use xlink:href="#DejaVuSans-74" x="732.226562"/>
      <use xlink:href="#DejaVuSans-63" x="771.435547"/>
      <use xlink:href="#DejaVuSans-68" x="826.416016"/>
      <use xlink:href="#DejaVuSans-5f" x="889.794922"/>
      <use xlink:href="#DejaVuSans-72" x="939.794922"/>
      <use xlink:href="#DejaVuSans-61" x="980.908203"/>
      <use xlink:href="#DejaVuSans-74" x="1042.1875"/>
      <use xlink:href="#DejaVuSans-65" x="1081.396484"/>
      <use xlink:href="#DejaVuSans-73" x="1142.919922"/>
     </g>
    </g>
   </g>
   <g id="text_32">
    <g clip-path="url(#paa4539c91b)">
     <!-- 3 rows; 1 cols; 197B -->
     <g transform="translate(1063.969758 631.705044) scale(0.08 -0.08)">
      <use xlink:href="#DejaVuSans-33"/>
      <use xlink:href="#DejaVuSans-20" x="63.623047"/>
      <use xlink:href="#DejaVuSans-72" x="95.410156"/>
      <use xlink:href="#DejaVuSans-6f" x="134.273438"/>
      <use xlink:href="#DejaVuSans-77" x="195.455078"/>
      <use xlink:href="#DejaVuSans-73" x="277.242188"/>
      <use xlink:href="#DejaVuSans-3b" x="329.341797"/>
      <use xlink:href="#DejaVuSans-20" x="363.033203"/>
      <use xlink:href="#DejaVuSans-31" x="394.820312"/>
      <use xlink:href="#DejaVuSans-20" x="458.443359"/>
      <use xlink:href="#DejaVuSans-63" x="490.230469"/>
      <use xlink:href="#DejaVuSans-6f" x="545.210938"/>
      <use xlink:href="#DejaVuSans-6c" x="606.392578"/>
      <use xlink:href="#DejaVuSans-73" x="634.175781"/>
      <use xlink:href="#DejaVuSans-3b" x="686.275391"/>
      <use xlink:href="#DejaVuSans-20" x="719.966797"/>
      <use xlink:href="#DejaVuSans-31" x="751.753906"/>
      <use xlink:href="#DejaVuSans-39" x="815.376953"/>
      <use xlink:href="#DejaVuSans-37" x="879"/>
      <use xlink:href="#DejaVuSans-42" x="942.623047"/>
     </g>
    </g>
   </g>
   <g id="legend_1">
    <g id="patch_55">
     <path d="M 584.417187 892.12 
L 891.582812 892.12 
Q 893.582812 892.12 893.582812 890.12 
L 893.582812 876.441875 
Q 893.582812 874.441875 891.582812 874.441875 
L 584.417187 874.441875 
Q 582.417187 874.441875 582.417187 876.441875 
L 582.417187 890.12 
Q 582.417187 892.12 584.417187 892.12 
z
" style="fill: #ffffff; opacity: 0.8; stroke: #cccccc; stroke-linejoin: miter"/>
    </g>
    <g id="patch_56">
     <path d="M 586.417187 886.040313 
L 606.417187 886.040313 
L 606.417187 879.040313 
L 586.417187 879.040313 
z
" style="fill: #2ca02c; stroke: #2ca02c; stroke-linejoin: miter"/>
    </g>
    <g id="text_33">
     <!-- sources -->
     <g transform="translate(614.417187 886.040313) scale(0.1 -0.1)">
      <use xlink:href="#DejaVuSans-73"/>
      <use xlink:href="#DejaVuSans-6f" x="52.099609"/>
      <use xlink:href="#DejaVuSans-75" x="113.28125"/>
      <use xlink:href="#DejaVuSans-72" x="176.660156"/>
      <use xlink:href="#DejaVuSans-63" x="215.523438"/>
      <use xlink:href="#DejaVuSans-65" x="270.503906"/>
      <use xlink:href="#DejaVuSans-73" x="332.027344"/>
     </g>
    </g>
    <g id="patch_57">
     <path d="M 672.829687 886.040313 
L 692.829687 886.040313 
L 692.829687 879.040313 
L 672.829687 879.040313 
z
" style="fill: #1f77b4; stroke: #1f77b4; stroke-linejoin: miter"/>
    </g>
    <g id="text_34">
     <!-- transformations -->
     <g transform="translate(700.829687 886.040313) scale(0.1 -0.1)">
      <use xlink:href="#DejaVuSans-74"/>
      <use xlink:href="#DejaVuSans-72" x="39.208984"/>
      <use xlink:href="#DejaVuSans-61" x="80.322266"/>
      <use xlink:href="#DejaVuSans-6e" x="141.601562"/>
      <use xlink:href="#DejaVuSans-73" x="204.980469"/>
      <use xlink:href="#DejaVuSans-66" x="257.080078"/>
      <use xlink:href="#DejaVuSans-6f" x="292.285156"/>
      <use xlink:href="#DejaVuSans-72" x="353.466797"/>
      <use xlink:href="#DejaVuSans-6d" x="392.830078"/>
      <use xlink:href="#DejaVuSans-61" x="490.242188"/>
      <use xlink:href="#DejaVuSans-74" x="551.521484"/>
      <use xlink:href="#DejaVuSans-69" x="590.730469"/>
      <use xlink:href="#DejaVuSans-6f" x="618.513672"/>
      <use xlink:href="#DejaVuSans-6e" x="679.695312"/>
      <use xlink:href="#DejaVuSans-73" x="743.074219"/>
     </g>
    </g>
    <g id="patch_58">
     <path d="M 800.34375 886.040313 
L 820.34375 886.040313 
L 820.34375 879.040313 
L 800.34375 879.040313 
z
" style="fill: #d62728; stroke: #d62728; stroke-linejoin: miter"/>
    </g>
    <g id="text_35">
     <!-- destinations -->
     <g transform="translate(828.34375 886.040313) scale(0.1 -0.1)">
      <use xlink:href="#DejaVuSans-64"/>
      <use xlink:href="#DejaVuSans-65" x="63.476562"/>
      <use xlink:href="#DejaVuSans-73" x="125"/>
      <use xlink:href="#DejaVuSans-74" x="177.099609"/>
      <use xlink:href="#DejaVuSans-69" x="216.308594"/>
      <use xlink:href="#DejaVuSans-6e" x="244.091797"/>
      <use xlink:href="#DejaVuSans-61" x="307.470703"/>
      <use xlink:href="#DejaVuSans-74" x="368.75"/>
      <use xlink:href="#DejaVuSans-69" x="407.958984"/>
      <use xlink:href="#DejaVuSans-6f" x="435.742188"/>
      <use xlink:href="#DejaVuSans-6e" x="496.923828"/>
      <use xlink:href="#DejaVuSans-73" x="560.302734"/>
     </g>
    </g>
   </g>
  </g>
 </g>
 <defs>
  <clipPath id="paa4539c91b">
   <rect x="180" y="120.96" width="1116" height="776.16"/>
  </clipPath>
 </defs>
</svg>
